<svg width="162" height="175" viewBox="0 0 162 175" fill="none" xmlns="http://www.w3.org/2000/svg">
<g clip-path="url(#clip0_3408_44059)">
<path d="M12.3692 153.797L9.45898 159.646V159.89C10.429 160.865 11.6416 161.596 12.6117 162.571C13.5817 163.546 14.5518 164.521 15.2793 165.74H15.5219L21.3422 162.815C20.1296 161.109 18.6746 159.403 17.2195 157.94C15.5219 156.478 14.0668 155.016 12.3692 153.797Z" fill="#F27292"/>
<path d="M40.0156 97.25C39.0456 98.9561 38.0755 100.906 37.1055 102.856C44.1384 106.999 50.6863 112.118 56.5067 118.211C62.327 124.061 67.6624 130.641 71.7851 137.71L77.3629 134.785C73.2402 126.742 67.6624 119.673 61.1145 113.336C55.0516 106.999 48.0186 101.393 40.0156 97.25Z" fill="#63CAE1"/>
<path d="M31.041 115.527L28.1309 121.377V121.621C33.2237 125.033 37.8315 128.933 41.9542 133.076C46.3195 137.463 50.1997 142.094 53.5949 147.213H53.8374L59.6578 144.288C56.0201 138.438 51.8973 133.076 47.047 128.445C42.1967 123.327 36.8614 118.94 31.041 115.527Z" fill="#F27292"/>
<path d="M21.584 134.539L18.6738 140.632C21.584 142.826 24.4942 145.263 27.1619 147.944C29.8295 150.625 32.2547 153.55 34.4373 156.475H34.6798L40.5002 153.55C38.075 149.894 35.1648 146.238 32.0122 143.313C28.6169 139.901 25.2217 137.22 21.584 134.539Z" fill="#63CAE1"/>
<path d="M72.5127 102.368C61.5996 91.4003 47.7762 82.6259 42.9259 87.0131C42.4409 87.5006 0.243281 173.294 0.243281 173.294C0.000766397 173.782 0.000766397 174.269 0.485796 174.757C0.728311 175.001 0.970826 175.001 1.21334 175.001C1.45586 175.001 1.45586 175.001 1.69837 175.001C1.69837 175.001 87.3062 132.104 87.5487 131.86C92.399 127.229 83.1834 113.093 72.5127 102.368ZM85.8511 130.398C77.363 135.272 3.88101 171.345 3.88101 171.345C5.09358 168.907 42.4409 92.619 44.6235 88.963C45.1085 88.4755 45.8361 88.2318 46.3211 88.4755C50.4439 88.4755 59.902 93.5939 70.5726 104.318C83.4259 116.992 88.2762 127.96 85.8511 130.398Z" fill="#727272"/>
<path d="M44.1371 41.6788C40.7419 41.6788 38.0742 38.9978 38.0742 35.5855C38.0742 32.1732 40.7419 29.4922 44.1371 29.4922C47.5323 29.4922 50.2 32.1732 50.2 35.5855C50.2 38.9978 47.5323 41.6788 44.1371 41.6788ZM44.1371 32.1732C42.197 32.1732 40.4994 33.8794 40.4994 35.8292C40.4994 37.7791 42.197 39.4852 44.1371 39.4852C46.0772 39.4852 47.7748 37.7791 47.7748 35.8292C47.7748 33.8794 46.0772 32.1732 44.1371 32.1732Z" fill="#63CAE1"/>
<path d="M102.098 57.279C99.4307 57.279 97.248 55.0854 97.248 52.6481C97.248 49.967 99.4307 47.7734 101.856 47.7734C104.524 47.7734 106.706 49.967 106.706 52.4044C106.706 55.0854 104.766 57.0353 102.098 57.279ZM102.098 50.2108C100.886 49.967 99.6732 50.942 99.6732 52.1606C99.4307 53.3793 100.401 54.5979 101.613 54.5979C101.856 54.5979 101.856 54.5979 102.098 54.5979C103.311 54.3542 104.281 53.3793 104.038 52.1606C104.038 51.1857 103.311 50.2108 102.098 50.2108Z" fill="#63CAE1"/>
<path d="M45.5925 73.8519C47.4676 73.8519 48.9877 72.3241 48.9877 70.4396C48.9877 68.5551 47.4676 67.0273 45.5925 67.0273C43.7174 67.0273 42.1973 68.5551 42.1973 70.4396C42.1973 72.3241 43.7174 73.8519 45.5925 73.8519Z" fill="#F27292"/>
<path d="M138.719 109.68C140.595 109.68 142.115 108.152 142.115 106.268C142.115 104.383 140.595 102.855 138.719 102.855C136.844 102.855 135.324 104.383 135.324 106.268C135.324 108.152 136.844 109.68 138.719 109.68Z" fill="#F27292"/>
<path d="M85.1218 103.586C86.9969 103.586 88.517 102.059 88.517 100.174C88.517 98.2894 86.9969 96.7617 85.1218 96.7617C83.2466 96.7617 81.7266 98.2894 81.7266 100.174C81.7266 102.059 83.2466 103.586 85.1218 103.586Z" fill="#63CAE1"/>
<path d="M109.131 137.953C106.706 137.953 104.523 136.003 104.523 133.322C104.523 130.885 106.464 128.691 109.131 128.691C111.556 128.691 113.739 130.641 113.739 133.322C113.739 136.003 111.556 137.953 109.131 137.953ZM109.131 131.129C107.919 131.129 106.949 132.104 106.949 133.322C106.949 134.541 107.919 135.516 109.131 135.516C110.344 135.516 111.314 134.541 111.314 133.322C111.314 132.104 110.344 131.129 109.131 131.129Z" fill="#63CAE1"/>
<path d="M75.907 86.2812C75.6645 86.2812 75.6645 86.2812 75.422 86.2812C74.6945 86.0374 74.4519 85.3062 74.6945 84.8188L81.4849 63.8578C81.7274 63.1266 82.4549 62.8828 83.1825 63.1266C83.91 63.3703 84.1525 64.1015 83.91 64.8327L77.1196 85.3062C77.1196 85.7937 76.6346 86.2812 75.907 86.2812Z" fill="#727272"/>
<path d="M85.1219 58.2513C85.1219 58.2513 84.8794 58.2513 84.6369 58.2513C83.9093 58.0075 83.6668 57.2763 83.9093 56.7889L91.6698 33.1468C91.9123 32.4156 92.6398 32.1719 93.1249 32.4156C93.8524 32.6594 94.0949 33.3905 93.8524 33.878L86.0919 57.5201C86.0919 58.0075 85.6069 58.2513 85.1219 58.2513Z" fill="#727272"/>
<path d="M95.5516 26.3221C95.3091 26.3221 95.309 26.3221 95.0665 26.3221C94.339 26.0783 94.0965 25.3471 94.339 24.8597L96.2791 19.0101C96.5216 18.2789 97.2492 18.0352 97.9767 18.2789C98.7043 18.5226 98.9468 19.2538 98.7043 19.985L96.7641 25.8346C96.5216 26.0783 96.0366 26.5658 95.5516 26.3221Z" fill="#727272"/>
<path d="M121.986 54.595C121.743 54.595 121.258 54.3512 121.258 54.3512C120.773 53.8638 120.773 53.1326 121.258 52.6451L145.025 28.2718C145.51 27.7844 146.237 27.7844 146.722 28.2718C147.207 28.7593 147.207 29.4905 146.722 29.978L122.956 54.3512C122.713 54.3512 122.228 54.595 121.986 54.595Z" fill="#727272"/>
<path d="M113.498 63.3706C113.255 63.3706 112.77 63.1269 112.77 63.1269C112.285 62.6394 112.285 61.9082 112.77 61.4208L117.135 57.0336C117.62 56.5461 118.348 56.5461 118.833 57.0336C119.318 57.521 119.318 58.2522 118.833 58.7397L114.468 63.1269C114.225 63.1269 113.74 63.3706 113.498 63.3706Z" fill="#727272"/>
<path d="M90.9429 86.2829C90.7004 86.2829 90.2153 86.2829 90.2153 86.0392C89.7303 85.5517 89.7303 84.8205 90.2153 84.333L108.161 66.0531C108.646 65.5656 109.374 65.5656 109.859 66.0531C110.344 66.5406 110.344 67.2718 109.859 67.7592L91.9129 86.2829C91.6704 86.0392 91.4279 86.2829 90.9429 86.2829Z" fill="#727272"/>
<path d="M63.2968 82.3816H63.0542C62.3267 82.1378 62.0842 81.4067 62.3267 80.9192C66.4495 68.0014 62.3267 60.4457 57.9614 56.3022C57.4764 55.8147 57.4764 55.0835 57.9614 54.5961C58.4465 54.1086 59.174 54.1086 59.659 54.5961C64.5093 59.227 69.1171 67.5139 64.5093 81.6504C64.2668 82.1378 63.7818 82.3816 63.2968 82.3816Z" fill="#727272"/>
<path d="M54.8084 53.6216C54.5659 53.6216 54.3234 53.6216 54.0809 53.3778C53.1108 52.6466 51.8982 52.1592 50.6857 51.9154C49.9581 51.6717 49.7156 50.9405 49.9581 50.2093C50.2006 49.4781 50.9282 49.2344 51.6557 49.4781C52.8683 49.9656 54.3234 50.6968 55.536 51.428C56.021 51.6717 56.2635 52.6466 56.021 53.1341C55.7785 53.3778 55.2935 53.6216 54.8084 53.6216Z" fill="#727272"/>
<path d="M134.11 134.783C133.625 134.783 133.14 134.539 132.898 134.051C132.413 132.833 132.17 131.614 131.685 130.395C131.442 129.908 131.685 129.177 132.17 128.689C132.655 128.446 133.383 128.689 133.868 129.177C133.868 129.177 133.868 129.177 133.868 129.421C134.353 130.639 134.838 131.858 135.08 133.077C135.323 133.808 134.838 134.295 134.353 134.539C134.353 134.783 134.11 135.026 134.11 134.783Z" fill="#727272"/>
<path d="M130.473 126.255C129.988 126.255 129.746 126.011 129.503 125.523C117.62 103.831 94.3387 112.362 93.1261 112.849C92.3986 113.093 91.9135 112.849 91.671 112.118C91.4285 111.387 91.671 110.899 92.3986 110.656C92.6411 110.656 118.833 100.906 131.686 124.548C131.929 125.036 131.686 125.767 131.201 126.255C130.716 126.255 130.716 126.255 130.473 126.255Z" fill="#727272"/>
<path d="M67.9037 20.4751C67.4186 20.4751 66.9336 20.2314 66.6911 19.7439L64.0234 14.3818L58.2031 13.6506C57.4755 13.6506 56.9905 12.9194 57.233 12.1882C57.233 11.9445 57.4755 11.7007 57.4755 11.457L61.8408 7.31354L60.8707 1.46396C60.8707 0.976497 60.8707 0.489032 61.3558 0.245299C61.8408 0.00156686 62.3258 0.00156686 62.5683 0.245299L67.9037 2.92636L73.239 0.245299C73.724 0.00156686 74.2091 0.00156686 74.4516 0.245299C74.9366 0.489032 74.9366 0.976497 74.9366 1.46396L73.9665 7.31354L78.0893 11.457C78.5743 11.9445 78.5743 12.6757 78.0893 13.1631C77.8468 13.4069 77.6043 13.4069 77.3617 13.4069L71.5414 14.3818L68.8737 19.7439C68.8737 20.2314 68.3887 20.4751 67.9037 20.4751ZM61.1132 11.457L65.236 12.1882C65.721 12.1882 65.9635 12.4319 66.2061 12.9194L67.9037 16.5754L69.8438 12.9194C69.8438 12.4319 70.3288 12.1882 70.5713 12.1882L74.6941 11.7007L71.7839 8.77594C71.5414 8.53221 71.2989 8.04474 71.5414 7.80101L72.2689 3.65756L68.6312 5.60742C68.3887 5.85115 67.9037 5.85115 67.4186 5.60742L63.7809 3.65756L64.5085 7.80101C64.5085 8.28847 64.5085 8.53221 64.2659 8.77594L61.1132 11.457Z" fill="#F27292"/>
<path d="M151.329 76.7759C150.844 76.7759 150.359 76.5322 150.117 76.0447L147.692 70.6826L141.871 69.7076C141.386 69.7076 141.144 69.2202 140.901 68.9764C140.659 68.489 140.901 68.0015 141.144 67.7578L145.509 63.6143L144.539 57.7647C144.539 57.2773 144.539 56.7898 145.024 56.5461C145.509 56.3023 145.994 56.3023 146.237 56.5461L151.572 59.2271L156.907 56.5461C157.392 56.3023 158.12 56.5461 158.605 57.0335C158.847 57.2773 158.847 57.521 158.847 57.7647L157.877 63.6143L162.243 67.7578C162.485 68.0015 162.728 68.489 162.485 68.9764C162.243 69.4639 162 69.7076 161.515 69.7076L155.21 70.6826L152.542 76.0447C152.299 76.5322 151.814 76.7759 151.329 76.7759ZM144.539 67.7578L148.662 68.2452C149.147 68.2452 149.389 68.489 149.632 68.9764L151.572 72.6324L153.512 68.9764C153.755 68.7327 153.997 68.489 154.482 68.2452L158.605 67.7578L155.21 64.833C154.967 64.5893 154.725 64.1018 154.725 63.6143L155.452 59.4709L151.814 61.4207C151.572 61.6645 151.087 61.6645 150.602 61.4207L146.964 59.4709L147.692 63.6143C147.692 64.1018 147.692 64.3455 147.449 64.833L144.539 67.7578Z" fill="#63CAE1"/>
<path d="M127.077 16.8157C126.835 15.1095 127.32 13.4034 128.533 12.1847C129.745 10.9661 131.2 10.4786 132.898 10.7224C135.08 10.9661 137.506 10.2349 138.961 8.52876C139.446 8.04129 139.446 7.3101 138.961 6.82263C138.476 6.33516 137.748 6.33516 137.263 6.82263C136.051 8.04129 134.595 8.52876 132.898 8.28503C130.715 8.04129 128.533 8.77249 126.835 10.4786C125.38 12.1847 124.41 14.3783 124.652 16.8157C124.895 18.5218 124.41 19.9842 123.197 21.2029C121.985 22.4215 120.53 22.909 118.832 22.6652C116.649 22.4215 114.224 23.1527 112.769 24.8588C111.314 26.565 110.344 28.7586 110.586 31.1959C110.829 32.902 110.344 34.3644 109.131 35.8268C108.646 36.3143 108.646 37.0455 109.131 37.5329C109.374 37.7767 109.616 37.7767 110.101 37.7767C110.344 37.7767 110.829 37.5329 111.071 37.2892C112.527 35.5831 113.497 33.3895 113.254 30.9522C113.012 29.4898 113.497 27.7836 114.467 26.565C115.679 25.3463 117.134 24.8588 118.832 25.1026C121.015 25.3463 123.44 24.6151 124.895 22.909C126.592 21.4466 127.32 19.253 127.077 16.8157Z" fill="#63CAE1"/>
<path d="M121.015 89.4515C120.287 90.9139 119.075 92.1326 117.377 92.3763C115.922 92.62 114.224 92.3763 113.012 91.1577C111.314 89.6953 108.889 89.2078 106.706 89.6952C105.979 89.939 105.736 90.4265 105.736 91.1577C105.736 91.4014 105.979 91.6451 106.221 91.8888C106.464 92.1326 106.949 92.1326 107.191 92.1326C108.647 91.8888 110.344 92.1326 111.557 93.3512C113.254 94.8136 115.679 95.3011 117.862 94.8136C120.045 94.3262 121.985 92.62 122.955 90.6702C123.682 89.2078 124.895 88.2329 126.593 87.7454C128.048 87.5017 129.745 87.7454 130.958 88.9641C132.655 90.4264 135.081 90.9139 137.263 90.4264C137.991 90.1827 138.233 89.4515 138.233 88.9641C137.991 88.2329 137.506 87.7454 136.778 87.9891C135.323 88.2329 133.626 87.9891 132.655 87.0142H132.413C130.473 85.3081 128.29 84.8206 126.108 85.3081C123.925 85.7955 121.985 87.5017 121.015 89.4515Z" fill="#F27292"/>
<path d="M74.2102 29.9797C74.2102 29.2485 73.4827 28.7611 72.7551 29.0048C72.0276 29.0048 71.5426 29.736 71.5426 30.4672C71.7851 31.9296 71.0575 33.6357 70.0875 34.6107C68.3899 36.3168 67.6623 38.5104 67.9048 40.704C68.1474 42.8976 69.6025 45.0912 71.5426 46.3098C72.9977 47.041 73.9677 48.5034 74.2102 50.2095C74.4528 51.6719 73.7252 53.3781 72.7551 54.353C71.0575 56.0591 70.33 58.2527 70.5725 60.4463C70.5725 61.1775 71.3001 61.665 72.0276 61.665C72.2701 61.665 72.7551 61.4212 72.7551 61.1775C72.9977 60.9338 72.9977 60.4463 72.9977 60.2026C72.7551 58.7402 73.4827 57.0341 74.4528 56.0591C76.1504 54.353 76.8779 52.1594 76.6354 49.9658C76.3929 47.7722 74.9378 45.5786 72.9977 44.36C71.5426 43.6288 70.5725 42.1664 70.33 40.4602C70.0875 38.9978 70.815 37.2917 71.7851 36.3168C73.7252 34.6107 74.4528 32.4171 74.2102 29.9797Z" fill="#F27292"/>
</g>
<defs>
<clipPath id="clip0_3408_44059">
<rect width="162" height="175" fill="white"/>
</clipPath>
</defs>
</svg>
