<svg width="10" height="20" viewBox="0 0 10 20" fill="none" xmlns="http://www.w3.org/2000/svg">
<path d="M0.377144 0.425767C0.610624 0.153649 0.931892 7.92759e-07 1.26752 7.63417e-07C1.60299 7.3409e-07 1.92425 0.153649 2.15771 0.425767L9.54411 8.75958C9.83605 9.08916 10 9.53614 10 10.0023C10 10.4684 9.83604 10.9155 9.54411 11.2452L2.15772 19.5742C1.92424 19.8464 1.60297 20 1.26753 20C0.931874 20 0.610612 19.8464 0.377146 19.5742C0.136103 19.3107 -9.19526e-08 18.9482 -1.25077e-07 18.5693C-1.58202e-07 18.1904 0.136102 17.8279 0.377146 17.5643L6.92929 10.1675C7.01118 10.0749 7.01118 9.92455 6.92929 9.8319L0.377144 2.43509C0.136101 2.17151 -1.5903e-06 1.80904 -1.62343e-06 1.43014C-1.65655e-06 1.05124 0.136101 0.688752 0.377144 0.425189L0.377144 0.425767Z" fill="#201C1D"/>
</svg>
