<svg width="51" height="50" viewBox="0 0 51 50" fill="none" xmlns="http://www.w3.org/2000/svg">
<rect x="0.5" width="50" height="50" rx="25" fill="#201C1D"/>
<path d="M19 19.5834H17.9167V33.6667C17.9167 34.2413 18.1449 34.7924 18.5513 35.1988C18.9576 35.6051 19.5087 35.8334 20.0833 35.8334H30.9167C31.4913 35.8334 32.0424 35.6051 32.4487 35.1988C32.8551 34.7924 33.0833 34.2413 33.0833 33.6667V19.5834H19ZM23.3333 32.5834H21.1667V22.8334H23.3333V32.5834ZM29.8333 32.5834H27.6667V22.8334H29.8333V32.5834ZM30.5028 16.3334L28.75 14.1667H22.25L20.4972 16.3334H15.75V18.5H35.25V16.3334H30.5028Z" fill="#FCFCFC"/>
</svg>
