<svg width="30" height="30" viewBox="0 0 30 30" fill="none" xmlns="http://www.w3.org/2000/svg">
<path d="M26.0794 20.4212L24.5899 18.9369C23.9987 18.3439 23.1956 18.0107 22.3581 18.0107C21.5207 18.0107 20.7178 18.3439 20.1266 18.9369L19.4581 19.5999V19.6002C19.2081 19.8556 18.8434 19.963 18.4949 19.8843C17.3896 19.6368 15.6053 18.8737 13.3683 16.6368C11.1262 14.3948 10.363 12.6105 10.1156 11.5053C10.0369 11.1568 10.1442 10.7922 10.3997 10.5421L11.0681 9.87367C11.6572 9.28038 11.9878 8.47823 11.9878 7.64219C11.9878 6.80598 11.6572 6.00381 11.0681 5.41048L9.57864 3.92103C8.9858 3.33103 8.18339 3 7.34685 3C6.5106 3 5.70816 3.33106 5.1153 3.92103L4.65733 4.37897C3.28862 5.73682 2.71385 7.70302 3.13613 9.58412C3.92046 13.1156 6.50986 17.6263 9.44135 20.558C12.3731 23.4842 16.8841 26.0792 20.4102 26.863V26.8633C20.8146 26.9528 21.2277 26.9988 21.642 27C23.1359 26.9977 24.5676 26.4013 25.621 25.3421L26.0789 24.8842C26.669 24.2914 27 23.489 27 22.6527C27 21.8163 26.6689 21.0138 26.0789 20.421L26.0794 20.4212Z" fill="#201C1D"/>
</svg>
