<svg width="26" height="26" viewBox="0 0 26 26" fill="none" xmlns="http://www.w3.org/2000/svg">
<path d="M20.5697 2.17969L23.8197 5.42969L21.3421 7.90835L18.0921 4.65835L20.5697 2.17969ZM8.66602 17.3334H11.916L19.8103 9.4391L16.5603 6.1891L8.66602 14.0834V17.3334Z" fill="#201C1D"/>
<path d="M20.5833 20.5833H8.83783C8.80967 20.5833 8.78042 20.5942 8.75225 20.5942C8.7165 20.5942 8.68075 20.5844 8.64392 20.5833H5.41667V5.41667H12.8343L15.0009 3.25H5.41667C4.22175 3.25 3.25 4.22067 3.25 5.41667V20.5833C3.25 21.7793 4.22175 22.75 5.41667 22.75H20.5833C21.158 22.75 21.7091 22.5217 22.1154 22.1154C22.5217 21.7091 22.75 21.158 22.75 20.5833V11.193L20.5833 13.3597V20.5833Z" fill="#201C1D"/>
</svg>
