<svg width="15" height="15" viewBox="0 0 15 15" fill="none" xmlns="http://www.w3.org/2000/svg">
<path d="M13.7501 3.18354C13.1917 2.0377 11.5834 1.1002 9.71257 1.64604C8.81859 1.90426 8.03862 2.45803 7.50007 3.21687C6.96152 2.45803 6.18154 1.90426 5.28757 1.64604C3.41257 1.10854 1.8084 2.0377 1.25007 3.18354C0.466733 4.7877 0.791733 6.59187 2.21673 8.54604C3.3334 10.0752 4.92923 11.6252 7.2459 13.4252C7.31911 13.4823 7.4093 13.5133 7.50215 13.5133C7.595 13.5133 7.68519 13.4823 7.7584 13.4252C10.0709 11.6294 11.6709 10.0919 12.7876 8.54604C14.2084 6.59187 14.5334 4.7877 13.7501 3.18354Z" fill="url(#paint0_linear_1608_9306)"/>
<defs>
<linearGradient id="paint0_linear_1608_9306" x1="0.834473" y1="2.80435" x2="13.031" y2="14.6789" gradientUnits="userSpaceOnUse">
<stop stop-color="#FF6A8F"/>
<stop offset="0.494792" stop-color="#FF6276"/>
<stop offset="1" stop-color="#F53838"/>
</linearGradient>
</defs>
</svg>
