<svg width="26" height="26" viewBox="0 0 26 26" fill="none" xmlns="http://www.w3.org/2000/svg">
<path d="M12.576 20.92V5.88H13.376V20.92H12.576ZM12.912 19.096C12.08 19.096 11.28 18.9627 10.512 18.696C9.75467 18.4187 9.168 18.0667 8.752 17.64L9.216 16.728C9.61067 17.112 10.1387 17.4373 10.8 17.704C11.472 17.96 12.176 18.088 12.912 18.088C13.616 18.088 14.1867 18.0027 14.624 17.832C15.072 17.6507 15.3973 17.4107 15.6 17.112C15.8133 16.8133 15.92 16.4827 15.92 16.12C15.92 15.6827 15.792 15.3307 15.536 15.064C15.2907 14.7973 14.9653 14.5893 14.56 14.44C14.1547 14.28 13.7067 14.1413 13.216 14.024C12.7253 13.9067 12.2347 13.784 11.744 13.656C11.2533 13.5173 10.8 13.336 10.384 13.112C9.97867 12.888 9.648 12.5947 9.392 12.232C9.14667 11.8587 9.024 11.3733 9.024 10.776C9.024 10.2213 9.168 9.71467 9.456 9.256C9.75467 8.78667 10.208 8.41333 10.816 8.136C11.424 7.848 12.2027 7.704 13.152 7.704C13.7813 7.704 14.4053 7.79467 15.024 7.976C15.6427 8.14667 16.176 8.38667 16.624 8.696L16.224 9.64C15.744 9.32 15.232 9.08533 14.688 8.936C14.1547 8.78667 13.6373 8.712 13.136 8.712C12.464 8.712 11.9093 8.80267 11.472 8.984C11.0347 9.16533 10.7093 9.41067 10.496 9.72C10.2933 10.0187 10.192 10.36 10.192 10.744C10.192 11.1813 10.3147 11.5333 10.56 11.8C10.816 12.0667 11.1467 12.2747 11.552 12.424C11.968 12.5733 12.4213 12.7067 12.912 12.824C13.4027 12.9413 13.888 13.0693 14.368 13.208C14.8587 13.3467 15.3067 13.528 15.712 13.752C16.128 13.9653 16.4587 14.2533 16.704 14.616C16.96 14.9787 17.088 15.4533 17.088 16.04C17.088 16.584 16.9387 17.0907 16.64 17.56C16.3413 18.0187 15.8827 18.392 15.264 18.68C14.656 18.9573 13.872 19.096 12.912 19.096Z" fill="#201C1D"/>
</svg>
