<svg width="26" height="26" viewBox="0 0 26 26" fill="none" xmlns="http://www.w3.org/2000/svg">
<path d="M5.41667 22.75H20.5833C21.158 22.75 21.7091 22.5217 22.1154 22.1154C22.5217 21.7091 22.75 21.158 22.75 20.5833V8.66665C22.7508 8.52408 22.7235 8.38275 22.6696 8.25076C22.6157 8.11877 22.5362 7.99871 22.4358 7.89749L18.1025 3.56415C18.0013 3.46375 17.8812 3.38431 17.7492 3.3304C17.6172 3.27649 17.4759 3.24916 17.3333 3.24999H5.41667C4.84203 3.24999 4.29093 3.47826 3.8846 3.88459C3.47827 4.29092 3.25 4.84202 3.25 5.41665V20.5833C3.25 21.158 3.47827 21.7091 3.8846 22.1154C4.29093 22.5217 4.84203 22.75 5.41667 22.75ZM16.25 20.5833H9.75V15.1667H16.25V20.5833ZM14.0833 7.58332H11.9167V5.41665H14.0833V7.58332ZM5.41667 5.41665H7.58333V9.74999H16.25V5.41665H16.8892L20.5833 9.11082V20.5833H18.4167V15.1667C18.4167 14.592 18.1884 14.0409 17.7821 13.6346C17.3757 13.2283 16.8246 13 16.25 13H9.75C9.17536 13 8.62426 13.2283 8.21794 13.6346C7.81161 14.0409 7.58333 14.592 7.58333 15.1667V20.5833H5.41667V5.41665Z" fill="#FCFCFC"/>
</svg>
