<svg width="48" height="48" viewBox="0 0 48 48" fill="none" xmlns="http://www.w3.org/2000/svg">
<path d="M4.6876 30.542L8.6876 37.462C8.95316 37.921 9.39014 38.2558 9.90245 38.3927C10.4148 38.5295 10.9605 38.4574 11.4196 38.192L14.2116 36.58C15.3716 37.494 16.6536 38.244 18.0016 38.804V42C18.0016 42.5304 18.2123 43.0391 18.5874 43.4142C18.9625 43.7893 19.4712 44 20.0016 44H28.0016C28.532 44 29.0407 43.7893 29.4158 43.4142C29.7909 43.0391 30.0016 42.5304 30.0016 42V38.804C31.3601 38.2384 32.6352 37.4902 33.7916 36.58L36.5836 38.192C37.5376 38.742 38.7656 38.412 39.3156 37.462L43.3156 30.542C43.5788 30.0824 43.6498 29.5374 43.5131 29.0257C43.3763 28.514 43.043 28.0771 42.5856 27.81L39.8416 26.224C40.056 24.749 40.0547 23.2506 39.8376 21.776L42.5816 20.19C43.5336 19.64 43.8636 18.41 43.3116 17.458L39.3116 10.538C39.046 10.079 38.6091 9.74424 38.0967 9.60735C37.5844 9.47046 37.0387 9.54263 36.5796 9.808L33.7876 11.42C32.6327 10.5088 31.3581 9.76043 29.9996 9.196V6C29.9996 5.46957 29.7889 4.96086 29.4138 4.58579C29.0387 4.21071 28.53 4 27.9996 4H19.9996C19.4692 4 18.9605 4.21071 18.5854 4.58579C18.2103 4.96086 17.9996 5.46957 17.9996 6V9.196C16.6411 9.76162 15.366 10.5098 14.2096 11.42L11.4196 9.808C11.1923 9.67634 10.9413 9.59077 10.681 9.55621C10.4206 9.52164 10.156 9.53875 9.90224 9.60655C9.64849 9.67435 9.41061 9.79152 9.20219 9.95134C8.99376 10.1112 8.8189 10.3105 8.6876 10.538L4.6876 17.458C4.42437 17.9176 4.3534 18.4626 4.49012 18.9743C4.62685 19.486 4.96021 19.9229 5.4176 20.19L8.1616 21.776C7.94587 23.2508 7.94587 24.7492 8.1616 26.224L5.4176 27.81C4.4656 28.36 4.1356 29.59 4.6876 30.542ZM23.9996 16C28.4116 16 31.9996 19.588 31.9996 24C31.9996 28.412 28.4116 32 23.9996 32C19.5876 32 15.9996 28.412 15.9996 24C15.9996 19.588 19.5876 16 23.9996 16Z" fill="#FCFCFC"/>
</svg>
