<svg width="47" height="46" viewBox="0 0 47 46" fill="none" xmlns="http://www.w3.org/2000/svg">
<path d="M19.333 23C23.0097 23 25.9997 20.01 25.9997 16.3333C25.9997 12.6567 23.0097 9.66666 19.333 9.66666C15.6563 9.66666 12.6663 12.6567 12.6663 16.3333C12.6663 20.01 15.6563 23 19.333 23ZM21.833 24.6667H16.833C11.318 24.6667 6.83301 29.1517 6.83301 34.6667V36.3333H31.833V34.6667C31.833 29.1517 27.348 24.6667 21.833 24.6667Z" fill="#201C1D"/>
<path d="M31.1733 21.4133C32.1884 19.6835 32.6267 17.6755 32.425 15.68C32.1266 12.7067 30.4666 10.0783 27.7533 8.28L25.9116 11.0567C27.7766 12.2933 28.9116 14.055 29.1083 16.0133C29.199 16.9235 29.0857 17.8424 28.7766 18.7033C28.4675 19.5642 27.9705 20.3453 27.3216 20.99L25.335 22.9767L28.0316 23.7683C35.085 25.835 35.1666 32.9283 35.1666 33H38.5C38.5 30.0183 36.9066 24.1917 31.1733 21.4133Z" fill="#201C1D"/>
</svg>
