<svg width="30" height="30" viewBox="0 0 30 30" fill="none" xmlns="http://www.w3.org/2000/svg">
<path d="M18.5744 3H11.4256C9.19182 3.00228 7.04992 3.89066 5.47017 5.47017C3.89042 7.04968 3.00228 9.19165 3 11.4256V18.5744C3.00228 20.8082 3.89066 22.9501 5.47017 24.5298C7.04968 26.1096 9.19165 26.9977 11.4256 27H18.5744C20.8082 26.9977 22.9501 26.1093 24.5298 24.5298C26.1096 22.9503 26.9977 20.8084 27 18.5744V11.4256C26.9977 9.19182 26.1093 7.04992 24.5298 5.47017C22.9503 3.89042 20.8084 3.00228 18.5744 3ZM15 20.5861C13.5185 20.5861 12.0976 19.9975 11.0499 18.9498C10.0021 17.9021 9.41358 16.4812 9.41358 14.9997C9.41358 13.5182 10.0022 12.0973 11.0499 11.0496C12.0976 10.0018 13.5185 9.41329 15 9.41329C16.4815 9.41329 17.9024 10.0019 18.9501 11.0496C19.9979 12.0973 20.5864 13.5182 20.5864 14.9997C20.5844 16.4808 19.9951 17.9003 18.9478 18.9475C17.9006 19.9947 16.4811 20.584 15.0001 20.5861L15 20.5861ZM22.164 9.6738C22.1177 9.72167 22.0664 9.76453 22.0108 9.80146C21.9541 9.83702 21.8941 9.86779 21.8321 9.89332C21.7717 9.91977 21.7083 9.93869 21.6431 9.9494C21.5779 9.96376 21.5109 9.9706 21.4441 9.96992C21.3094 9.96832 21.1763 9.94234 21.0509 9.89332C20.9905 9.86779 20.9323 9.83702 20.8772 9.80146C20.8211 9.76316 20.7682 9.72053 20.719 9.6738C20.5288 9.48026 20.4224 9.21993 20.4228 8.94865C20.4219 8.88163 20.4288 8.81483 20.4431 8.74941C20.4541 8.68444 20.473 8.62107 20.4994 8.56065C20.525 8.49842 20.5557 8.4387 20.5913 8.38193C20.6298 8.32745 20.6725 8.27639 20.719 8.22874C20.7682 8.18178 20.8211 8.13915 20.8772 8.10109C20.9323 8.0653 20.9905 8.03452 21.0509 8.00899C21.1138 7.98323 21.1788 7.96272 21.2449 7.9479C21.5788 7.8827 21.9235 7.98802 22.164 8.22874C22.2121 8.27502 22.2547 8.32631 22.2917 8.38193C22.329 8.43869 22.3614 8.49842 22.3888 8.56065C22.4127 8.62175 22.4316 8.68512 22.4448 8.74941C22.4567 8.81529 22.4635 8.88185 22.4654 8.94865C22.466 9.22106 22.3575 9.48207 22.164 9.6738H22.164ZM15 10.9451C13.9247 10.9451 12.8934 11.3723 12.1332 12.1328C11.3727 12.893 10.9455 13.9243 10.9455 14.9997C10.9455 16.075 11.3727 17.1062 12.1332 17.8665C12.8934 18.6269 13.9247 19.0542 15 19.0542C16.0753 19.0542 17.1066 18.627 17.8668 17.8665C18.6273 17.1062 19.0545 16.075 19.0545 14.9997C19.0536 13.9246 18.6262 12.894 17.866 12.1338C17.1057 11.3735 16.0751 10.9461 15.0001 10.9452L15 10.9451ZM14.5046 13.5851C14.2113 13.6877 13.9569 13.879 13.7765 14.1322C13.5964 14.3857 13.4993 14.6887 13.4986 14.9996C13.4986 15.4227 13.1558 15.7655 12.7327 15.7655C12.3098 15.7655 11.9667 15.4227 11.9667 14.9996C11.9674 14.3711 12.1632 13.7583 12.5273 13.2461C12.8916 12.7337 13.4059 12.3473 13.9993 12.1401C14.3975 12.0028 14.832 12.2132 14.971 12.611C15.1101 13.0088 14.9017 13.4442 14.5046 13.5851L14.5046 13.5851Z" fill="#201C1D"/>
</svg>
