<svg width="30" height="30" viewBox="0 0 30 30" fill="none" xmlns="http://www.w3.org/2000/svg">
<path d="M25.2051 8.54986C21.615 2.99982 14.2852 1.3498 8.60089 4.79983C3.06614 8.24986 1.27108 15.7499 4.86119 21.3L5.16037 21.75L3.96366 26.25L8.4513 25.05L8.90006 25.35C10.8447 26.4 12.9389 27 15.0332 27C17.277 27 19.5208 26.4 21.4654 25.2C27.0002 21.6 28.6456 14.2499 25.2051 8.54986ZM22.0638 20.0999C21.4654 21 20.7175 21.6 19.6704 21.75C19.072 21.75 18.3241 22.05 15.3323 20.85C12.7893 19.6499 10.6951 17.6999 9.19924 15.4499C8.30171 14.3999 7.85295 13.0499 7.70336 11.6999C7.70336 10.4999 8.15212 9.44987 8.90006 8.69986C9.19924 8.39986 9.49841 8.24986 9.79759 8.24986H10.5455C10.8447 8.24986 11.1439 8.24986 11.2935 8.84986C11.5926 9.59987 12.3406 11.3999 12.3406 11.5499C12.4902 11.6999 12.4902 11.9999 12.3406 12.1499C12.4902 12.4499 12.3406 12.7499 12.191 12.8999C12.0414 13.0499 11.8918 13.3499 11.7422 13.4999C11.4431 13.6499 11.2935 13.9499 11.4431 14.2499C12.0414 15.1499 12.7893 16.0499 13.5373 16.7999C14.4348 17.5499 15.3323 18.1499 16.3794 18.5999C16.6786 18.7499 16.9778 18.7499 17.1274 18.4499C17.277 18.1499 18.0249 17.3999 18.3241 17.0999C18.6233 16.7999 18.7729 16.7999 19.072 16.9499L21.4654 18.1499C21.7646 18.2999 22.0638 18.4499 22.2134 18.5999C22.363 19.0499 22.363 19.6499 22.0638 20.0999Z" fill="#201C1D"/>
</svg>
