<svg width="26" height="26" viewBox="0 0 26 26" fill="none" xmlns="http://www.w3.org/2000/svg">
<path d="M13 23.8333C13.6709 23.8341 14.3254 23.6259 14.8725 23.2376C15.4197 22.8493 15.8322 22.3002 16.0528 21.6666H9.94717C10.1678 22.3002 10.5804 22.8493 11.1275 23.2376C11.6746 23.6259 12.3291 23.8341 13 23.8333ZM20.5833 15.8015V10.8333C20.5833 7.34821 18.2162 4.41238 15.0096 3.52946C14.6922 2.72996 13.9165 2.16663 13 2.16663C12.0835 2.16663 11.3078 2.72996 10.9904 3.52946C7.78375 4.41346 5.41667 7.34821 5.41667 10.8333V15.8015L3.56742 17.6507C3.46662 17.7511 3.38668 17.8705 3.33221 18.002C3.27773 18.1334 3.24979 18.2743 3.25 18.4166V19.5C3.25 19.7873 3.36414 20.0628 3.5673 20.266C3.77047 20.4692 4.04602 20.5833 4.33333 20.5833H21.6667C21.954 20.5833 22.2295 20.4692 22.4327 20.266C22.6359 20.0628 22.75 19.7873 22.75 19.5V18.4166C22.7502 18.2743 22.7223 18.1334 22.6678 18.002C22.6133 17.8705 22.5334 17.7511 22.4326 17.6507L20.5833 15.8015Z" fill="black"/>
</svg>
