<svg width="30" height="30" viewBox="0 0 30 30" fill="none" xmlns="http://www.w3.org/2000/svg">
<path d="M17.0909 12.4301C17.0909 13.1123 16.818 13.7663 16.3322 14.2487C15.8462 14.7309 15.1873 15.0019 14.5 15.0019C13.8128 15.0019 13.1539 14.7309 12.6679 14.2487C12.1821 13.7663 11.9092 13.1123 11.9092 12.4301C11.9092 11.7479 12.1821 11.0939 12.6679 10.6115C13.1539 10.1292 13.8128 9.85829 14.5 9.85829C15.1873 9.85829 15.8462 10.1292 16.3322 10.6115C16.818 11.0939 17.0909 11.7479 17.0909 12.4301ZM23.9999 12.4301C23.9999 17.4537 15.4846 26.3609 15.1219 26.7377C14.959 26.9053 14.7346 27 14.4999 27C14.2653 27 14.041 26.9053 13.878 26.7377C13.5154 26.3605 5 17.4537 5 12.4301C5 9.92908 6.00086 7.53044 7.78249 5.76202C9.56412 3.9935 11.9803 3 14.5 3C17.0197 3 19.436 3.9935 21.2175 5.76202C22.9991 7.53054 24 9.92893 24 12.4301H23.9999ZM18.8182 12.4301C18.8182 11.2933 18.3632 10.2031 17.5534 9.39924C16.7435 8.59536 15.6453 8.14375 14.5 8.14375C13.3548 8.14375 12.2566 8.59535 11.4467 9.39924C10.6369 10.2031 10.1819 11.2933 10.1819 12.4301C10.1819 13.5669 10.6369 14.6571 11.4467 15.461C12.2566 16.2648 13.3548 16.7164 14.5 16.7164C15.6453 16.7164 16.7435 16.2648 17.5534 15.461C18.3632 14.6571 18.8182 13.5669 18.8182 12.4301Z" fill="#201C1D"/>
</svg>
