<svg width="41" height="40" viewBox="0 0 41 40" fill="none" xmlns="http://www.w3.org/2000/svg">
<path d="M16.334 20C20.0106 20 23.0006 17.01 23.0006 13.3333C23.0006 9.65666 20.0106 6.66666 16.334 6.66666C12.6573 6.66666 9.66732 9.65666 9.66732 13.3333C9.66732 17.01 12.6573 20 16.334 20ZM18.834 21.6667H13.834C8.31898 21.6667 3.83398 26.1517 3.83398 31.6667V33.3333H28.834V31.6667C28.834 26.1517 24.349 21.6667 18.834 21.6667Z" fill="#201C1D"/>
<path d="M28.1743 18.4133C29.1893 16.6835 29.6277 14.6755 29.4259 12.68C29.1276 9.70667 27.4676 7.07833 24.7543 5.28L22.9126 8.05667C24.7776 9.29333 25.9126 11.055 26.1093 13.0133C26.2 13.9235 26.0866 14.8424 25.7776 15.7033C25.4685 16.5642 24.9715 17.3453 24.3226 17.99L22.3359 19.9767L25.0326 20.7683C32.0859 22.835 32.1676 29.9283 32.1676 30H35.5009C35.5009 27.0183 33.9076 21.1917 28.1743 18.4133Z" fill="#201C1D"/>
</svg>
