<svg width="26" height="26" viewBox="0 0 26 26" fill="none" xmlns="http://www.w3.org/2000/svg">
<path d="M13 2.16675C10.0133 2.16675 7.58337 4.59666 7.58337 7.58342V10.8334H6.50004C5.30512 10.8334 4.33337 11.8052 4.33337 13.0001V21.6667C4.33337 22.8617 5.30512 23.8334 6.50004 23.8334H19.5C20.695 23.8334 21.6667 22.8617 21.6667 21.6667V13.0001C21.6667 11.8052 20.695 10.8334 19.5 10.8334H18.4167V7.58342C18.4167 4.59666 15.9868 2.16675 13 2.16675ZM19.5 13.0001L19.5022 21.6667H6.50004V13.0001H19.5ZM9.75004 10.8334V7.58342C9.75004 5.79158 11.2082 4.33341 13 4.33341C14.7919 4.33341 16.25 5.79158 16.25 7.58342V10.8334H9.75004Z" fill="black"/>
</svg>
