<svg width="41" height="40" viewBox="0 0 41 40" fill="none" xmlns="http://www.w3.org/2000/svg">
<path d="M20.4993 16.666C18.666 16.666 17.166 18.166 17.166 19.9993C17.166 21.8327 18.666 23.3327 20.4993 23.3327C22.3327 23.3327 23.8327 21.8327 23.8327 19.9993C23.8327 18.166 22.3327 16.666 20.4993 16.666ZM30.4993 16.666C28.666 16.666 27.166 18.166 27.166 19.9993C27.166 21.8327 28.666 23.3327 30.4993 23.3327C32.3327 23.3327 33.8327 21.8327 33.8327 19.9993C33.8327 18.166 32.3327 16.666 30.4993 16.666ZM10.4993 16.666C8.66602 16.666 7.16602 18.166 7.16602 19.9993C7.16602 21.8327 8.66602 23.3327 10.4993 23.3327C12.3327 23.3327 13.8327 21.8327 13.8327 19.9993C13.8327 18.166 12.3327 16.666 10.4993 16.666Z" fill="#FCFCFC"/>
</svg>
