<svg width="22" height="22" viewBox="0 0 22 22" fill="none" xmlns="http://www.w3.org/2000/svg">
<path d="M19.5919 10.4167H20.1599L20.0878 9.85332C19.8914 8.31764 19.3099 6.85657 18.3972 5.60599C17.4846 4.35541 16.2705 3.35593 14.8679 2.70051L13.4799 2.05192L14.2181 3.39442C15.3264 5.40999 15.9689 7.64833 16.0983 9.94489L16.1249 10.4167H16.5975H19.5919ZM11.9724 2.06043L11.834 1.87793L11.6053 1.86364C11.5672 1.86125 11.5267 1.85844 11.4845 1.8555C11.3365 1.84521 11.167 1.83341 11 1.83341C10.8431 1.83341 10.6806 1.84441 10.5402 1.85391C10.4936 1.85707 10.4494 1.86006 10.4087 1.86242L10.1767 1.87591L10.0375 2.06191C8.39562 4.25479 7.43866 6.98605 7.28317 9.89001L7.25497 10.4167H7.78246H14.42H14.9523L14.9191 9.88549C14.6943 6.29707 13.1311 3.5874 11.9724 2.06043ZM7.8555 3.3518L8.52659 2.06215L7.20421 2.6662C5.7836 3.31513 4.55201 4.31575 3.62597 5.5734C2.69992 6.83105 2.11002 8.30416 1.91207 9.85338L1.84009 10.4167H2.40804H5.61579H6.09267L6.11523 9.9404C6.22681 7.58472 6.82447 5.33319 7.8555 3.3518ZM2.40804 11.5834H1.84008L1.91208 12.1468C2.10761 13.6769 2.68568 15.1331 3.59285 16.3807C4.50003 17.6283 5.70704 18.6271 7.10235 19.2849L8.42313 19.9075L7.76122 18.6059C6.83277 16.7803 6.2732 14.5762 6.12906 12.0549L6.10211 11.5834H5.62988H2.40804ZM10.0185 19.9557L10.1569 20.1235L10.3741 20.1366C10.4145 20.139 10.4572 20.1419 10.5015 20.1449C10.6547 20.1551 10.8282 20.1667 11 20.1667C11.1821 20.1667 11.3635 20.154 11.5231 20.1427C11.5599 20.1401 11.5955 20.1376 11.6298 20.1353L11.8431 20.1213L11.9803 19.9573C13.6693 17.9387 14.6838 15.2086 14.9154 12.1208L14.9557 11.5834H14.4168H7.79438H7.26215L7.29535 12.1146C7.49601 15.3251 8.4157 18.0132 10.0185 19.9557ZM14.308 18.5662L13.5907 19.9138L14.9662 19.2517C16.3445 18.5883 17.535 17.5907 18.4293 16.3498C19.3236 15.1089 19.8934 13.664 20.0868 12.1466L20.1586 11.5834H19.5908H16.5813H16.1134L16.0824 12.0502C15.9208 14.4787 15.306 16.6914 14.308 18.5662ZM0.666626 11.0001C0.666626 5.30272 5.3026 0.666748 11 0.666748C16.6973 0.666748 21.3333 5.30272 21.3333 11.0001C21.3333 16.6974 16.6973 21.3334 11 21.3334C5.3026 21.3334 0.666626 16.6974 0.666626 11.0001Z" fill="black" stroke="#201C1D"/>
</svg>
