<svg width="10" height="20" viewBox="0 0 10 20" fill="none" xmlns="http://www.w3.org/2000/svg">
<path d="M9.62286 0.425767C9.38938 0.15365 9.06811 1.10122e-06 8.73248 1.07187e-06C8.39701 1.04255e-06 8.07575 0.15365 7.84229 0.425767L0.455894 8.75958C0.163951 9.08916 9.1478e-07 9.53614 8.74027e-07 10.0023C8.33275e-07 10.4684 0.163956 10.9155 0.455894 11.2452L7.84228 19.5742C8.07576 19.8464 8.39703 20 8.73247 20C9.06813 20 9.38939 19.8464 9.62285 19.5742C9.8639 19.3107 10 18.9482 10 18.5693C10 18.1904 9.8639 17.8279 9.62285 17.5643L3.07071 10.1675C2.98882 10.0749 2.98882 9.92455 3.07071 9.8319L9.62286 2.43509C9.8639 2.17151 10 1.80904 10 1.43014C10 1.05124 9.8639 0.688751 9.62286 0.425188L9.62286 0.425767Z" fill="#201C1D"/>
</svg>
