<svg width="41" height="40" viewBox="0 0 41 40" fill="none" xmlns="http://www.w3.org/2000/svg">
<path d="M10.52 30H35.5V6.66668C35.5 4.82834 34.005 3.33334 32.1667 3.33334H10.5C8.49 3.33334 5.5 4.66501 5.5 8.33334V31.6667C5.5 35.335 8.49 36.6667 10.5 36.6667H35.5V33.3333H10.52C9.75 33.3133 8.83333 33.01 8.83333 31.6667C8.83333 31.4983 8.84833 31.3483 8.87333 31.2117C9.06 30.2517 9.84667 30.0167 10.52 30ZM14.9133 12.7367C15.6071 12.0518 16.5427 11.6678 17.5175 11.6678C18.4923 11.6678 19.4279 12.0518 20.1217 12.7367L20.495 13.1017L20.8667 12.7367C21.5607 12.0517 22.4965 11.6676 23.4717 11.6676C24.4468 11.6676 25.3827 12.0517 26.0767 12.7367C26.4209 13.0678 26.6948 13.4649 26.8819 13.9044C27.0689 14.3439 27.1654 14.8166 27.1654 15.2942C27.1654 15.7718 27.0689 16.2445 26.8819 16.684C26.6948 17.1234 26.4209 17.5206 26.0767 17.8517L20.4967 23.3333L14.915 17.8517C14.5704 17.5208 14.2962 17.1238 14.1089 16.6844C13.9215 16.245 13.8249 15.7722 13.8247 15.2945C13.8246 14.8168 13.9209 14.344 14.108 13.9045C14.2951 13.465 14.569 13.0677 14.9133 12.7367Z" fill="#201C1D"/>
</svg>
