<svg width="30" height="30" viewBox="0 0 30 30" fill="none" xmlns="http://www.w3.org/2000/svg">
<path d="M15 3C11.8175 3 8.76536 4.26428 6.51466 6.51466C4.26428 8.76504 3 11.8173 3 15C3 18.1827 4.26428 21.2346 6.51466 23.4853C8.76504 25.7357 11.8173 27 15 27C18.1827 27 21.2346 25.7357 23.4853 23.4853C25.7357 21.235 27 18.1827 27 15C26.9963 11.8185 25.731 8.76852 23.4812 6.51888C21.2317 4.26913 18.1818 3.0038 15.0001 3.00011L15 3ZM19.6153 15.9229H15C14.7552 15.9229 14.5203 15.8257 14.3473 15.6526C14.1742 15.4795 14.0769 15.2446 14.0769 14.9998V7.61532C14.0769 7.28545 14.2529 6.98073 14.5385 6.8159C14.824 6.65106 15.176 6.65106 15.4615 6.8159C15.7471 6.98073 15.9231 7.28546 15.9231 7.61532V14.0768H19.6153C19.9452 14.0768 20.2499 14.2527 20.4148 14.5383C20.5796 14.8239 20.5796 15.1758 20.4148 15.4614C20.2499 15.7469 19.9452 15.9229 19.6153 15.9229Z" fill="#201C1D"/>
</svg>
