<svg width="30" height="30" viewBox="0 0 30 30" fill="none" xmlns="http://www.w3.org/2000/svg">
<path d="M7.38226 3C4.95468 3 3 4.95468 3 7.38225V22.6177C3 25.0453 4.95468 27 7.38226 27H15.6398V17.6175H13.1588V14.2395H15.6398V11.3535C15.6398 9.0861 17.1057 7.00425 20.4825 7.00425C21.8497 7.00425 22.8608 7.1355 22.8608 7.1355L22.7813 10.29C22.7813 10.29 21.7501 10.2803 20.625 10.2803C19.4073 10.2803 19.212 10.8413 19.212 11.7728V14.2395H22.878L22.7183 17.6175H19.212V27H22.6177C25.0453 27 27 25.0453 27 22.6178V7.38227C27 4.9547 25.0453 3.00002 22.6177 3.00002H7.38223L7.38226 3Z" fill="#201C1D"/>
</svg>
