<svg width="26" height="26" viewBox="0 0 26 26" fill="none" xmlns="http://www.w3.org/2000/svg">
<path d="M12.9997 2.16797C10.0129 2.16797 7.58301 4.59789 7.58301 7.58464V10.8346H6.49967C5.30476 10.8346 4.33301 11.8064 4.33301 13.0013V21.668C4.33301 22.8629 5.30476 23.8346 6.49967 23.8346H19.4997C20.6946 23.8346 21.6663 22.8629 21.6663 21.668V13.0013C21.6663 11.8064 20.6946 10.8346 19.4997 10.8346H18.4163V7.58464C18.4163 4.59789 15.9864 2.16797 12.9997 2.16797ZM19.4997 13.0013L19.5018 21.668H6.49967V13.0013H19.4997ZM9.74967 10.8346V7.58464C9.74967 5.7928 11.2078 4.33464 12.9997 4.33464C14.7915 4.33464 16.2497 5.7928 16.2497 7.58464V10.8346H9.74967Z" fill="#201C1D"/>
</svg>
