<svg width="26" height="26" viewBox="0 0 26 26" fill="none" xmlns="http://www.w3.org/2000/svg">
<path d="M21.667 4.33203H4.33366C3.13874 4.33203 2.16699 5.30378 2.16699 6.4987V19.4987C2.16699 20.6936 3.13874 21.6654 4.33366 21.6654H21.667C22.8619 21.6654 23.8337 20.6936 23.8337 19.4987V6.4987C23.8337 5.30378 22.8619 4.33203 21.667 4.33203ZM21.667 6.4987V7.05228L13.0003 13.7939L4.33366 7.05336V6.4987H21.667ZM4.33366 19.4987V9.79636L12.3352 16.0201C12.5249 16.1691 12.7591 16.2501 13.0003 16.2501C13.2416 16.2501 13.4758 16.1691 13.6655 16.0201L21.667 9.79636L21.6692 19.4987H4.33366Z" fill="#201C1D"/>
</svg>
