<svg width="26" height="26" viewBox="0 0 26 26" fill="none" xmlns="http://www.w3.org/2000/svg">
<path d="M10.8337 19.5001C12.7566 19.4997 14.624 18.856 16.1387 17.6714L20.9011 22.4337L22.4329 20.9019L17.6706 16.1396C18.8557 14.6247 19.4999 12.7568 19.5003 10.8334C19.5003 6.05483 15.6122 2.16675 10.8337 2.16675C6.05508 2.16675 2.16699 6.05483 2.16699 10.8334C2.16699 15.612 6.05508 19.5001 10.8337 19.5001ZM10.8337 4.33341C14.4184 4.33341 17.3337 7.24866 17.3337 10.8334C17.3337 14.4182 14.4184 17.3334 10.8337 17.3334C7.24891 17.3334 4.33366 14.4182 4.33366 10.8334C4.33366 7.24866 7.24891 4.33341 10.8337 4.33341Z" fill="#FCFCFC"/>
</svg>
