<svg width="130" height="29" viewBox="0 0 130 29" fill="none" xmlns="http://www.w3.org/2000/svg">
<g clip-path="url(#clip0_124_13882)">
<path d="M12.1824 18.8645C12.2057 18.841 12.229 18.8176 12.229 18.7941C12.4153 18.3952 12.5784 18.0198 12.6949 17.621C12.788 17.2456 12.8812 16.9171 12.9278 16.6121C12.9977 16.307 13.021 16.049 13.021 15.8378C13.021 15.6266 13.0443 15.5093 13.0443 15.4624C13.0443 14.125 12.7414 12.9284 12.1125 11.896C11.5069 10.8637 10.645 10.0425 9.55026 9.47938C9.15427 9.31514 8.78158 9.1509 8.40889 9.05704C8.03619 8.96319 7.71009 8.86934 7.40727 8.82242C7.10446 8.75203 6.84823 8.72857 6.66189 8.7051C6.45225 8.68164 6.31249 8.68164 6.28919 8.68164H1.70041C1.23455 8.68164 0.838559 8.84588 0.48916 9.19782C0.163053 9.50284 0 9.90171 0 10.371V27.2876C0 27.7569 0.163053 28.1558 0.512453 28.5077C0.838559 28.8362 1.25784 29.0239 1.72371 29.0239C2.21286 29.0239 2.60885 28.8596 2.95825 28.5077C3.28436 28.1792 3.4707 27.7569 3.4707 27.2876V22.2666H6.19602L9.89966 28.2027C10.2491 28.7189 10.7615 29.0004 11.3904 29.0004C11.7398 29.0004 12.0426 28.9066 12.2989 28.7423C12.5318 28.5546 12.7414 28.3435 12.8812 28.0854C13.021 27.8273 13.1141 27.5457 13.1141 27.2876C13.1141 26.9826 13.021 26.6776 12.8579 26.3491L9.82978 21.4219C10.3189 21.1169 10.7615 20.7884 11.1575 20.3896C11.5302 19.9438 11.9029 19.4276 12.1824 18.8645ZM9.50367 16.0724C9.45708 16.2601 9.4105 16.4478 9.36391 16.6824C9.29403 16.8936 9.22415 17.1048 9.13098 17.2925C8.57194 18.2779 7.61691 18.7706 6.28919 18.7706H3.44741V12.1541H6.28919C6.47554 12.1541 6.66189 12.1776 6.82494 12.2011C7.01129 12.248 7.19763 12.2714 7.40727 12.3418C7.59362 12.3888 7.80326 12.4826 8.0129 12.5765C9.0611 13.1161 9.57355 14.0546 9.57355 15.4624C9.57355 15.4858 9.57355 15.5562 9.55026 15.6501C9.57355 15.7674 9.55026 15.9082 9.50367 16.0724Z" fill="#201C1D"/>
<path d="M34.0314 26.6298L27.3229 9.73659C27.1599 9.45503 26.9502 9.19694 26.694 8.98578C26.0884 8.51652 25.343 8.53998 24.7839 8.98578C24.5044 9.19694 24.2948 9.43157 24.1317 9.76005C23.0602 12.4817 21.9422 15.2738 20.7775 18.1832C19.6128 21.0926 18.4947 23.8847 17.4465 26.6063C17.3767 26.794 17.3301 27.0052 17.3301 27.2633C17.3301 27.6856 17.4931 28.0845 17.7959 28.4364C18.1221 28.8118 18.5413 28.9995 19.0538 28.9995C19.3799 28.9995 19.706 28.8822 20.0088 28.6476C20.2883 28.4364 20.498 28.1783 20.6377 27.8968L21.8956 24.7997H29.5824L30.8402 27.9437C30.98 28.2018 31.2129 28.4364 31.4924 28.6711C31.7952 28.9057 32.1213 29.023 32.4474 29.023C32.9832 29.023 33.4025 28.8353 33.7053 28.4834C34.0081 28.1314 34.1478 27.7325 34.1478 27.3102C34.1246 27.0287 34.1013 26.8175 34.0314 26.6298ZM28.1615 21.3272H23.2699L25.7157 15.0861L28.1615 21.3272Z" fill="#201C1D"/>
<path d="M51.2212 9.17344C50.8718 9.50192 50.7087 9.92425 50.7087 10.3935V21.773L42.1601 9.43153C41.7874 8.93882 41.3215 8.68072 40.7392 8.68072C40.2267 8.68072 39.8075 8.86843 39.4813 9.22037C39.1552 9.57231 38.9922 9.97118 38.9922 10.417V27.3336C38.9922 27.8029 39.1552 28.2018 39.5046 28.5537C40.1801 29.2341 41.2749 29.2107 41.9504 28.5537C42.2998 28.2252 42.4629 27.8029 42.4629 27.3336V15.9073L51.0115 28.2487C51.3842 28.7414 51.8501 28.9995 52.4324 28.9995C52.8983 28.9995 53.2943 28.8353 53.6437 28.5068C53.9931 28.1783 54.1561 27.756 54.1561 27.2867V10.37C54.1561 9.90079 53.9698 9.50192 53.6437 9.14998C52.9449 8.49302 51.8967 8.49302 51.2212 9.17344Z" fill="#201C1D"/>
<path d="M72.0229 11.6849C71.394 10.9341 70.6952 10.3241 69.9498 9.92519C69.2277 9.52633 68.5289 9.22131 67.9 9.03361C67.2711 8.8459 66.712 8.75205 66.2695 8.70513C65.8269 8.68167 65.6173 8.6582 65.594 8.6582H60.7257C60.2598 8.6582 59.8638 8.82244 59.5144 9.17438C59.1883 9.50286 59.002 9.92519 59.002 10.3944V27.3111C59.002 27.7804 59.165 28.1792 59.5144 28.5312C59.8405 28.8597 60.2598 29.0474 60.7257 29.0474H65.594C65.6173 29.0474 65.8502 29.0239 66.2695 29.0004C66.712 28.977 67.2478 28.8597 67.8767 28.6719C68.5056 28.4842 69.2044 28.1792 69.9265 27.7804C70.6719 27.358 71.3707 26.7715 71.9996 26.0207C72.6285 25.2698 73.1643 24.2844 73.5603 23.1347C73.9795 21.9851 74.1892 20.5538 74.1892 18.8645C74.1892 17.1752 73.9795 15.744 73.5603 14.5943C73.1876 13.3977 72.6518 12.4357 72.0229 11.6849ZM65.6173 25.5045H62.4959V12.1542H65.5707C65.8968 12.2011 66.1763 12.2245 66.4325 12.2949C66.6655 12.3419 66.945 12.4357 67.2478 12.5296C67.5506 12.6234 67.8301 12.7642 68.1329 12.9519C68.9715 13.4681 69.6004 14.2423 70.043 15.2043C70.4856 16.1898 70.7185 17.4098 70.7185 18.841C70.7185 20.2254 70.5088 21.422 70.0663 22.4074C69.647 23.3694 69.0181 24.1202 68.2261 24.6364C67.9233 24.8241 67.5972 24.9883 67.2944 25.1056C66.9916 25.2229 66.6887 25.3168 66.4558 25.3637C66.2229 25.4341 66.0132 25.4576 65.8502 25.481C65.7337 25.5045 65.6405 25.5045 65.6173 25.5045Z" fill="#201C1D"/>
<path d="M90.0514 12.1541C90.5172 12.1541 90.9132 11.9899 91.2626 11.638C91.612 11.286 91.7751 10.8637 91.7751 10.3944C91.7751 9.92517 91.5887 9.5263 91.2626 9.17436C90.9132 8.84588 90.5172 8.68164 90.0514 8.68164H80.8505C80.3614 8.68164 79.9654 8.84588 79.616 9.19782C79.2899 9.5263 79.1035 9.94863 79.1035 10.4179V27.3346C79.1035 27.8038 79.2666 28.2027 79.616 28.5546C79.9421 28.8831 80.3614 29.0708 80.8505 29.0708H90.0514C90.5172 29.0708 90.9132 28.9066 91.2626 28.5781C91.612 28.2496 91.7751 27.8273 91.7751 27.358C91.7751 26.8653 91.612 26.443 91.2626 26.1145C90.9132 25.7625 90.5172 25.5983 90.0514 25.5983H82.5742V20.5538H88.3743C88.8401 20.5538 89.2361 20.3896 89.5855 20.0376C89.9116 19.7091 90.098 19.2868 90.098 18.8176C90.098 18.3483 89.9349 17.9494 89.5855 17.5975C89.2594 17.269 88.8401 17.0813 88.3743 17.0813H82.5742V12.1541H90.0514Z" fill="#201C1D"/>
<path d="M129.489 9.1744C128.813 8.49398 127.765 8.49398 127.066 9.1744C126.717 9.50288 126.554 9.92521 126.554 10.3945V21.3516C126.554 21.4454 126.53 21.6566 126.414 22.2901C126.321 22.7594 126.158 23.2286 125.902 23.6979C125.645 24.1671 125.273 24.5895 124.783 24.9649C124.318 25.3168 123.665 25.5045 122.85 25.5045C122.291 25.5045 121.802 25.4107 121.406 25.2464C121.01 25.0587 120.661 24.8475 120.404 24.566C120.125 24.2844 119.915 23.956 119.729 23.6275C119.542 23.2755 119.426 22.9471 119.333 22.642C119.24 22.337 119.193 22.0555 119.17 21.8208C119.146 21.5862 119.123 21.4454 119.123 21.3751V10.371C119.123 9.90175 118.96 9.50288 118.611 9.15094C117.935 8.47052 116.887 8.47052 116.188 9.15094C115.839 9.47942 115.676 9.90175 115.676 10.371V21.3516C115.676 21.3985 115.676 21.5393 115.699 21.7739C115.699 22.0085 115.746 22.2901 115.792 22.6186C115.839 22.9471 115.932 23.3225 116.025 23.7213C116.142 24.1437 116.305 24.5895 116.514 25.0352C117.12 26.3257 117.959 27.3111 119.03 27.9916C120.102 28.6485 121.383 29.0005 122.827 29.0005C124.271 29.0005 125.552 28.672 126.624 27.9916C127.695 27.3346 128.557 26.3257 129.163 25.0352C129.349 24.5895 129.512 24.1671 129.628 23.7448C129.745 23.3225 129.815 22.9471 129.885 22.6186C129.931 22.2901 129.955 22.0085 129.978 21.7739C129.978 21.5393 130.001 21.3985 130.001 21.3516V10.371C130.001 9.90175 129.815 9.50288 129.489 9.1744Z" fill="#201C1D"/>
<path d="M106.291 9.62736C106.702 8.22269 105.904 6.74888 104.509 6.33552C103.115 5.92216 101.651 6.72577 101.241 8.13044C100.831 9.53512 101.629 11.0089 103.023 11.4223C104.418 11.8357 105.881 11.032 106.291 9.62736Z" fill="url(#paint0_linear_124_13882)"/>
<path d="M110.479 8.6582C110.129 8.6582 109.803 8.75205 109.501 8.96322C109.198 9.15092 108.988 9.43247 108.848 9.78442L103.794 22.6186L98.6924 9.80788C98.576 9.45594 98.3663 9.17438 98.0635 8.96322C97.7607 8.77552 97.4346 8.6582 97.1085 8.6582C96.596 8.6582 96.1767 8.8459 95.8506 9.22131C95.5478 9.57325 95.3848 9.97212 95.3848 10.4179C95.3848 10.676 95.4314 10.8872 95.5012 11.0514L102.21 27.9446C102.373 28.2262 102.582 28.4843 102.839 28.6954C103.141 28.9301 103.468 29.0239 103.817 29.0239C104.143 29.0239 104.469 28.9066 104.772 28.6954C105.052 28.4843 105.261 28.2496 105.424 27.9212C105.96 26.5838 107.334 23.1113 108.732 19.6153C110.153 16.049 111.597 12.4592 112.109 11.0749C112.179 10.9106 112.226 10.676 112.226 10.4179C112.226 9.99558 112.086 9.62018 111.783 9.26824C111.434 8.84591 111.015 8.6582 110.479 8.6582Z" fill="url(#paint1_linear_124_13882)"/>
<path d="M103.771 0C99.0189 0 95.1289 3.89482 95.1289 8.70469C95.1289 9.40858 95.2221 10.089 95.3618 10.7694L95.4317 11.0275H95.455C95.3851 10.8633 95.3618 10.6521 95.3618 10.4175C95.3618 9.97168 95.5249 9.57282 95.8277 9.22087C96.1538 8.84547 96.5731 8.65777 97.0855 8.65777C97.4349 8.65777 97.7611 8.75162 98.0406 8.96278C98.3434 9.17395 98.553 9.4555 98.6695 9.80744L98.7394 9.99515C98.6695 9.61974 98.553 8.96278 98.553 8.70469C98.553 5.81877 100.882 3.47249 103.747 3.47249C106.613 3.47249 108.942 5.81877 108.942 8.70469C108.942 9.05663 108.895 9.40858 108.825 9.76052C108.965 9.43204 109.175 9.15049 109.478 8.96278C109.78 8.77508 110.107 8.65777 110.456 8.65777C110.992 8.65777 111.411 8.84547 111.714 9.22087C112.017 9.57282 112.156 9.97168 112.156 10.3706C112.156 10.6286 112.11 10.8398 112.063 11.004H112.086L112.156 10.746C112.319 10.0655 112.389 9.38511 112.389 8.68123C112.413 3.89482 108.546 0 103.771 0Z" fill="url(#paint2_linear_124_13882)"/>
</g>
<defs>
<linearGradient id="paint0_linear_124_13882" x1="101.051" y1="10.8379" x2="107.033" y2="7.0825" gradientUnits="userSpaceOnUse">
<stop stop-color="#FF6A8F"/>
<stop offset="0.494792" stop-color="#FF6276"/>
<stop offset="1" stop-color="#F53838"/>
</linearGradient>
<linearGradient id="paint1_linear_124_13882" x1="95.3848" y1="10.8901" x2="115.214" y2="26.0126" gradientUnits="userSpaceOnUse">
<stop stop-color="#89E9FF"/>
<stop offset="0.494792" stop-color="#27D8FF"/>
<stop offset="1" stop-color="#05BFE8"/>
</linearGradient>
<linearGradient id="paint2_linear_124_13882" x1="95.1289" y1="1.20849" x2="105.772" y2="15.8407" gradientUnits="userSpaceOnUse">
<stop stop-color="#FF6A8F"/>
<stop offset="0.494792" stop-color="#FF6276"/>
<stop offset="1" stop-color="#F53838"/>
</linearGradient>
<clipPath id="clip0_124_13882">
<rect width="130" height="29" fill="white"/>
</clipPath>
</defs>
</svg>
