<svg width="76" height="17" viewBox="0 0 76 17" fill="none" xmlns="http://www.w3.org/2000/svg">
<g clip-path="url(#clip0_188_38781)">
<path d="M7.12202 11.0584C7.13564 11.0446 7.14926 11.0309 7.14926 11.0171C7.2582 10.7833 7.35352 10.5632 7.42161 10.3294C7.47608 10.1093 7.53055 9.91678 7.55778 9.73798C7.59864 9.55918 7.61225 9.40788 7.61225 9.2841C7.61225 9.16031 7.62587 9.09154 7.62587 9.06403C7.62587 8.28005 7.44884 7.57859 7.08117 6.97342C6.72711 6.36824 6.22326 5.88685 5.58323 5.55675C5.35173 5.46047 5.13385 5.36419 4.91596 5.30918C4.69808 5.25416 4.50743 5.19914 4.33041 5.17164C4.15338 5.13037 4.00358 5.11662 3.89464 5.10287C3.77208 5.08911 3.69038 5.08911 3.67676 5.08911H0.994087C0.721734 5.08911 0.490235 5.18539 0.28597 5.3917C0.0953234 5.5705 0 5.80432 0 6.0794V15.9961C0 16.2712 0.0953234 16.505 0.299588 16.7113C0.490235 16.9038 0.735352 17.0139 1.0077 17.0139C1.29367 17.0139 1.52517 16.9176 1.72944 16.7113C1.92009 16.5187 2.02903 16.2712 2.02903 15.9961V13.0527H3.62229L5.78749 16.5325C5.99176 16.8351 6.29134 17.0001 6.65902 17.0001C6.86329 17.0001 7.04031 16.9451 7.19011 16.8488C7.32628 16.7388 7.44884 16.615 7.53055 16.4637C7.61225 16.3124 7.66672 16.1474 7.66672 15.9961C7.66672 15.8173 7.61225 15.6385 7.51693 15.4459L5.74664 12.5576C6.03261 12.3788 6.29134 12.1862 6.52284 11.9524C6.74073 11.6911 6.95861 11.3885 7.12202 11.0584ZM5.55599 9.42164C5.52876 9.53167 5.50152 9.6417 5.47429 9.77924C5.43343 9.90303 5.39258 10.0268 5.33811 10.1368C5.01129 10.7145 4.45296 11.0034 3.67676 11.0034H2.01541V7.12471H3.67676C3.7857 7.12471 3.89464 7.13846 3.98997 7.15222C4.09891 7.17973 4.20785 7.19348 4.33041 7.23474C4.43935 7.26225 4.56191 7.31727 4.68446 7.37228C5.29726 7.68863 5.59685 8.23879 5.59685 9.06403C5.59685 9.07778 5.59685 9.11905 5.58323 9.17406C5.59685 9.24283 5.58323 9.32536 5.55599 9.42164Z" fill="#201C1D"/>
<path d="M19.8947 15.6109L15.9728 5.70797C15.8775 5.54292 15.7549 5.39162 15.6051 5.26784C15.2511 4.99276 14.8153 5.00651 14.4885 5.26784C14.3251 5.39162 14.2025 5.52916 14.1072 5.72172C13.4808 7.31719 12.8271 8.95392 12.1463 10.6594C11.4654 12.3649 10.8117 14.0017 10.1989 15.5971C10.1581 15.7072 10.1309 15.8309 10.1309 15.9822C10.1309 16.2298 10.2262 16.4636 10.4032 16.6699C10.5939 16.89 10.839 17 11.1386 17C11.3292 17 11.5199 16.9313 11.6969 16.7937C11.8603 16.6699 11.9829 16.5187 12.0646 16.3536L12.7999 14.5381H17.2937L18.0291 16.3811C18.1108 16.5324 18.247 16.6699 18.4104 16.8075C18.5874 16.945 18.7781 17.0138 18.9687 17.0138C19.2819 17.0138 19.527 16.9038 19.7041 16.6975C19.8811 16.4911 19.9628 16.2573 19.9628 16.0098C19.9492 15.8447 19.9356 15.7209 19.8947 15.6109ZM16.4631 12.5025H13.6034L15.0332 8.84389L16.4631 12.5025Z" fill="#201C1D"/>
<path d="M29.9452 5.3778C29.7409 5.57035 29.6456 5.81793 29.6456 6.09301V12.7637L24.6479 5.52909C24.43 5.24026 24.1577 5.08896 23.8172 5.08896C23.5176 5.08896 23.2725 5.19899 23.0819 5.4053C22.8912 5.61162 22.7959 5.84543 22.7959 6.10676V16.0234C22.7959 16.2985 22.8912 16.5323 23.0955 16.7386C23.4904 17.1375 24.1304 17.1238 24.5253 16.7386C24.7296 16.5461 24.8249 16.2985 24.8249 16.0234V9.32521L29.8226 16.5598C30.0405 16.8487 30.3128 17 30.6533 17C30.9256 17 31.1571 16.9037 31.3614 16.7111C31.5657 16.5186 31.661 16.271 31.661 15.9959V6.07925C31.661 5.80417 31.552 5.57035 31.3614 5.36404C30.9529 4.97893 30.3401 4.97893 29.9452 5.3778Z" fill="#201C1D"/>
<path d="M42.1054 6.84947C41.7377 6.40934 41.3292 6.05173 40.8934 5.81791C40.4713 5.58409 40.0628 5.40529 39.6951 5.29526C39.3274 5.18523 39.0006 5.13021 38.7419 5.1027C38.4831 5.08895 38.3606 5.0752 38.347 5.0752H35.5009C35.2285 5.0752 34.997 5.17147 34.7928 5.37778C34.6021 5.57034 34.4932 5.81791 34.4932 6.09299V16.0097C34.4932 16.2847 34.5885 16.5186 34.7928 16.7249C34.9834 16.9174 35.2285 17.0275 35.5009 17.0275H38.347C38.3606 17.0275 38.4967 17.0137 38.7419 16.9999C39.0006 16.9862 39.3138 16.9174 39.6815 16.8074C40.0492 16.6974 40.4577 16.5186 40.8798 16.2847C41.3156 16.0372 41.7241 15.6933 42.0918 15.2532C42.4595 14.8131 42.7727 14.2354 43.0042 13.5614C43.2493 12.8875 43.3719 12.0485 43.3719 11.0582C43.3719 10.0679 43.2493 9.22892 43.0042 8.55497C42.7863 7.85351 42.4731 7.2896 42.1054 6.84947ZM38.3606 14.9506H36.5358V7.12455H38.3333C38.524 7.15206 38.6874 7.16581 38.8372 7.20707C38.9734 7.23458 39.1368 7.2896 39.3138 7.34461C39.4908 7.39963 39.6542 7.48215 39.8313 7.59218C40.3215 7.89477 40.6892 8.34866 40.9479 8.91257C41.2067 9.49024 41.3428 10.2055 41.3428 11.0444C41.3428 11.8559 41.2203 12.5574 40.9615 13.1351C40.7164 13.699 40.3487 14.1391 39.8857 14.4417C39.7087 14.5517 39.5181 14.648 39.341 14.7168C39.164 14.7855 38.987 14.8406 38.8508 14.8681C38.7146 14.9093 38.5921 14.9231 38.4967 14.9368C38.4287 14.9506 38.3742 14.9506 38.3606 14.9506Z" fill="#201C1D"/>
<path d="M52.6454 7.12447C52.9178 7.12447 53.1493 7.02819 53.3535 6.82188C53.5578 6.61557 53.6531 6.36799 53.6531 6.09291C53.6531 5.81783 53.5442 5.58401 53.3535 5.3777C53.1493 5.18515 52.9178 5.08887 52.6454 5.08887H47.2664C46.9805 5.08887 46.749 5.18515 46.5447 5.39146C46.3541 5.58401 46.2451 5.83159 46.2451 6.10667V16.0233C46.2451 16.2984 46.3404 16.5322 46.5447 16.7385C46.7353 16.9311 46.9805 17.0411 47.2664 17.0411H52.6454C52.9178 17.0411 53.1493 16.9449 53.3535 16.7523C53.5578 16.5597 53.6531 16.3122 53.6531 16.0371C53.6531 15.7483 53.5578 15.5007 53.3535 15.3081C53.1493 15.1018 52.9178 15.0055 52.6454 15.0055H48.2741V12.0484H51.6649C51.9373 12.0484 52.1688 11.9521 52.3731 11.7458C52.5637 11.5533 52.6726 11.3057 52.6726 11.0306C52.6726 10.7555 52.5773 10.5217 52.3731 10.3154C52.1824 10.1228 51.9373 10.0128 51.6649 10.0128H48.2741V7.12447H52.6454Z" fill="#201C1D"/>
<path d="M75.7003 5.37785C75.3053 4.97898 74.6926 4.97898 74.284 5.37785C74.0798 5.5704 73.9844 5.81798 73.9844 6.09306V12.5162C73.9844 12.5712 73.9708 12.695 73.9027 13.0664C73.8483 13.3414 73.7529 13.6165 73.6031 13.8916C73.4533 14.1667 73.2355 14.4143 72.9495 14.6343C72.6771 14.8406 72.2959 14.9507 71.8192 14.9507C71.4924 14.9507 71.2064 14.8956 70.9749 14.7994C70.7434 14.6893 70.5392 14.5656 70.3894 14.4005C70.226 14.2355 70.1034 14.0429 69.9945 13.8503C69.8855 13.644 69.8174 13.4515 69.763 13.2727C69.7085 13.0939 69.6813 12.9288 69.6676 12.7913C69.654 12.6537 69.6404 12.5712 69.6404 12.53V6.0793C69.6404 5.80422 69.5451 5.5704 69.3408 5.36409C68.9459 4.96522 68.3331 4.96522 67.9246 5.36409C67.7203 5.55665 67.625 5.80422 67.625 6.0793V12.5162C67.625 12.5437 67.625 12.6262 67.6386 12.7638C67.6386 12.9013 67.6659 13.0664 67.6931 13.2589C67.7203 13.4515 67.7748 13.6715 67.8293 13.9054C67.8974 14.1529 67.9927 14.4143 68.1152 14.6756C68.4693 15.4321 68.9595 16.0097 69.5859 16.4086C70.2123 16.7937 70.9613 17 71.8056 17C72.6499 17 73.3989 16.8075 74.0253 16.4086C74.6517 16.0235 75.1555 15.4321 75.5096 14.6756C75.6185 14.4143 75.7139 14.1667 75.782 13.9191C75.85 13.6715 75.8909 13.4515 75.9318 13.2589C75.959 13.0664 75.9726 12.9013 75.9862 12.7638C75.9862 12.6262 75.9998 12.5437 75.9998 12.5162V6.0793C75.9998 5.80422 75.8909 5.5704 75.7003 5.37785Z" fill="#201C1D"/>
<path d="M62.1406 5.64412C62.3805 4.82069 61.9141 3.95674 61.0989 3.71442C60.2836 3.47211 59.4282 3.94319 59.1883 4.76662C58.9484 5.59005 59.4148 6.454 60.2301 6.69632C61.0453 6.93864 61.9007 6.46755 62.1406 5.64412Z" fill="url(#paint0_linear_188_38781)"/>
<path d="M64.5879 5.0752C64.3836 5.0752 64.193 5.13021 64.016 5.254C63.8389 5.36403 63.7164 5.52908 63.6347 5.73539L60.6796 13.2589L57.6974 5.74914C57.6293 5.54283 57.5067 5.37778 57.3297 5.254C57.1527 5.14397 56.962 5.0752 56.7714 5.0752C56.4718 5.0752 56.2267 5.18523 56.036 5.40529C55.859 5.6116 55.7637 5.84542 55.7637 6.10675C55.7637 6.25804 55.7909 6.38183 55.8318 6.47811L59.7536 16.381C59.849 16.5461 59.9715 16.6974 60.1213 16.8212C60.2984 16.9587 60.489 17.0137 60.6933 17.0137C60.8839 17.0137 61.0746 16.9449 61.2516 16.8212C61.415 16.6974 61.5376 16.5598 61.6329 16.3673C61.9461 15.5833 62.7495 13.5477 63.5666 11.4983C64.3973 9.40772 65.2416 7.30335 65.5411 6.49186C65.582 6.39558 65.6092 6.25804 65.6092 6.10675C65.6092 5.85918 65.5275 5.63911 65.3505 5.4328C65.1462 5.18523 64.9011 5.0752 64.5879 5.0752Z" fill="url(#paint1_linear_188_38781)"/>
<path d="M60.6664 0C57.8884 0 55.6143 2.28317 55.6143 5.10275C55.6143 5.51537 55.6687 5.91424 55.7504 6.31311L55.7913 6.4644H55.8049C55.7641 6.36812 55.7504 6.24434 55.7504 6.1068C55.7504 5.84547 55.8458 5.61165 56.0228 5.40534C56.2134 5.18528 56.4586 5.07524 56.7581 5.07524C56.9624 5.07524 57.1531 5.13026 57.3165 5.25405C57.4935 5.37783 57.6161 5.54288 57.6841 5.74919L57.725 5.85922C57.6841 5.63916 57.6161 5.25405 57.6161 5.10275C57.6161 3.411 58.9778 2.0356 60.6528 2.0356C62.3278 2.0356 63.6895 3.411 63.6895 5.10275C63.6895 5.30906 63.6623 5.51537 63.6214 5.72168C63.7031 5.52913 63.8257 5.36408 64.0027 5.25405C64.1798 5.14401 64.3704 5.07524 64.5747 5.07524C64.8879 5.07524 65.133 5.18528 65.31 5.40534C65.487 5.61165 65.5688 5.84547 65.5688 6.07929C65.5688 6.23058 65.5415 6.35437 65.5143 6.45065H65.5279L65.5688 6.29935C65.6641 5.90049 65.7049 5.50162 65.7049 5.089C65.7185 2.28317 63.458 0 60.6664 0Z" fill="url(#paint2_linear_188_38781)"/>
</g>
<defs>
<linearGradient id="paint0_linear_188_38781" x1="59.0774" y1="6.35373" x2="62.5799" y2="4.16088" gradientUnits="userSpaceOnUse">
<stop stop-color="#FF6A8F"/>
<stop offset="0.494792" stop-color="#FF6276"/>
<stop offset="1" stop-color="#F53838"/>
</linearGradient>
<linearGradient id="paint1_linear_188_38781" x1="55.7637" y1="6.38353" x2="67.3792" y2="15.218" gradientUnits="userSpaceOnUse">
<stop stop-color="#89E9FF"/>
<stop offset="0.494792" stop-color="#27D8FF"/>
<stop offset="1" stop-color="#05BFE8"/>
</linearGradient>
<linearGradient id="paint2_linear_188_38781" x1="55.6143" y1="0.708428" x2="61.8586" y2="9.26981" gradientUnits="userSpaceOnUse">
<stop stop-color="#FF6A8F"/>
<stop offset="0.494792" stop-color="#FF6276"/>
<stop offset="1" stop-color="#F53838"/>
</linearGradient>
<clipPath id="clip0_188_38781">
<rect width="76" height="17" fill="white"/>
</clipPath>
</defs>
</svg>
