<svg width="79" height="17" viewBox="0 0 79 17" fill="none" xmlns="http://www.w3.org/2000/svg">
<g clip-path="url(#clip0_1608_9294)">
<path d="M7.40315 11.0571C7.41731 11.0434 7.43146 11.0296 7.43146 11.0159C7.5447 10.7821 7.64379 10.562 7.71457 10.3282C7.77119 10.1081 7.82781 9.91556 7.85612 9.73676C7.89858 9.55796 7.91274 9.40666 7.91274 9.28287C7.91274 9.15909 7.92689 9.09032 7.92689 9.06281C7.92689 8.27883 7.74288 7.57737 7.36069 6.9722C6.99265 6.36702 6.46891 5.88563 5.80362 5.55553C5.56298 5.45925 5.3365 5.36297 5.11002 5.30796C4.88353 5.25294 4.68536 5.19792 4.50134 5.17041C4.31733 5.12915 4.16162 5.1154 4.04838 5.10164C3.92098 5.08789 3.83605 5.08789 3.8219 5.08789H1.03333C0.750224 5.08789 0.509586 5.18417 0.297258 5.39048C0.0990862 5.56928 0 5.8031 0 6.07818V15.9948C0 16.2699 0.0990862 16.5037 0.311414 16.7101C0.509586 16.9026 0.764379 17.0126 1.04748 17.0126C1.34474 17.0126 1.58538 16.9164 1.79771 16.7101C1.99588 16.5175 2.10912 16.2699 2.10912 15.9948V13.0515H3.76527L6.01595 16.5313C6.22827 16.8338 6.53969 16.9989 6.92188 16.9989C7.1342 16.9989 7.31822 16.9439 7.47393 16.8476C7.61548 16.7376 7.74288 16.6138 7.82781 16.4625C7.91274 16.3112 7.96936 16.1461 7.96936 15.9948C7.96936 15.816 7.91274 15.6372 7.81365 15.4447L5.97348 12.5563C6.27074 12.3775 6.53969 12.185 6.78033 11.9512C7.00681 11.6898 7.23329 11.3872 7.40315 11.0571ZM5.77531 9.42041C5.747 9.53045 5.71869 9.64048 5.69038 9.77802C5.64791 9.90181 5.60545 10.0256 5.54883 10.1356C5.2091 10.7133 4.62874 11.0021 3.8219 11.0021H2.09496V7.12349H3.8219C3.93514 7.12349 4.04838 7.13724 4.14746 7.151C4.26071 7.17851 4.37395 7.19226 4.50134 7.23352C4.61458 7.26103 4.74198 7.31605 4.86938 7.37106C5.50636 7.68741 5.81777 8.23757 5.81777 9.06281C5.81777 9.07656 5.81777 9.11783 5.80362 9.17284C5.81777 9.24161 5.80362 9.32414 5.77531 9.42041Z" fill="#FCFCFC"/>
<path d="M20.6807 15.6116L16.6041 5.7087C16.505 5.54365 16.3776 5.39236 16.2219 5.26857C15.8538 4.99349 15.4009 5.00724 15.0611 5.26857C14.8913 5.39236 14.7639 5.5299 14.6648 5.72245C14.0137 7.31792 13.3342 8.95465 12.6265 10.6602C11.9187 12.3657 11.2393 14.0024 10.6023 15.5979C10.5598 15.7079 10.5315 15.8317 10.5315 15.983C10.5315 16.2305 10.6306 16.4644 10.8146 16.6707C11.0128 16.8907 11.2676 17.0008 11.579 17.0008C11.7771 17.0008 11.9753 16.932 12.1593 16.7945C12.3292 16.6707 12.4566 16.5194 12.5415 16.3543L13.3059 14.5388H17.9771L18.7415 16.3818C18.8264 16.5331 18.968 16.6707 19.1378 16.8082C19.3219 16.9458 19.52 17.0145 19.7182 17.0145C20.0438 17.0145 20.2986 16.9045 20.4826 16.6982C20.6666 16.4919 20.7515 16.2581 20.7515 16.0105C20.7374 15.8454 20.7232 15.7216 20.6807 15.6116ZM17.1136 12.5032H14.1411L15.6274 8.84462L17.1136 12.5032Z" fill="#FCFCFC"/>
<path d="M31.127 5.37804C30.9147 5.5706 30.8156 5.81817 30.8156 6.09325V12.764L25.6207 5.52934C25.3942 5.2405 25.1111 5.08921 24.7572 5.08921C24.4458 5.08921 24.191 5.19924 23.9928 5.40555C23.7946 5.61186 23.6956 5.84568 23.6956 6.10701V16.0237C23.6956 16.2988 23.7946 16.5326 24.007 16.7389C24.4175 17.1377 25.0828 17.124 25.4933 16.7389C25.7056 16.5463 25.8047 16.2988 25.8047 16.0237V9.32545L30.9996 16.5601C31.2261 16.8489 31.5092 17.0002 31.8631 17.0002C32.1462 17.0002 32.3868 16.9039 32.5992 16.7114C32.8115 16.5188 32.9106 16.2712 32.9106 15.9962V6.0795C32.9106 5.80442 32.7973 5.5706 32.5992 5.36429C32.1745 4.97917 31.5375 4.97917 31.127 5.37804Z" fill="#FCFCFC"/>
<path d="M43.7677 6.84947C43.3855 6.40934 42.9609 6.05173 42.5079 5.81791C42.0691 5.58409 41.6444 5.40529 41.2623 5.29526C40.8801 5.18523 40.5403 5.13021 40.2714 5.1027C40.0024 5.08895 39.875 5.0752 39.8609 5.0752H36.9025C36.6194 5.0752 36.3787 5.17147 36.1664 5.37778C35.9682 5.57034 35.855 5.81791 35.855 6.09299V16.0097C35.855 16.2847 35.9541 16.5186 36.1664 16.7249C36.3646 16.9174 36.6194 17.0275 36.9025 17.0275H39.8609C39.875 17.0275 40.0166 17.0137 40.2714 16.9999C40.5403 16.9862 40.8659 16.9174 41.2481 16.8074C41.6303 16.6974 42.0549 16.5186 42.4938 16.2847C42.9467 16.0372 43.3714 15.6933 43.7536 15.2532C44.1357 14.8131 44.4613 14.2354 44.702 13.5614C44.9567 12.8875 45.0841 12.0485 45.0841 11.0582C45.0841 10.0679 44.9567 9.22892 44.702 8.55497C44.4755 7.85351 44.1499 7.2896 43.7677 6.84947ZM39.875 14.9506H37.9783V7.12455H39.8467C40.0449 7.15206 40.2148 7.16581 40.3705 7.20707C40.512 7.23458 40.6819 7.2896 40.8659 7.34461C41.0499 7.39963 41.2198 7.48215 41.4038 7.59218C41.9134 7.89477 42.2956 8.34866 42.5645 8.91257C42.8335 9.49024 42.975 10.2055 42.975 11.0444C42.975 11.8559 42.8476 12.5574 42.5787 13.1351C42.3239 13.699 41.9417 14.1391 41.4604 14.4417C41.2764 14.5517 41.0782 14.648 40.8942 14.7168C40.7102 14.7855 40.5262 14.8406 40.3846 14.8681C40.2431 14.9093 40.1157 14.9231 40.0166 14.9368C39.9458 14.9506 39.8892 14.9506 39.875 14.9506Z" fill="#FCFCFC"/>
<path d="M54.7237 7.12349C55.0068 7.12349 55.2475 7.02721 55.4598 6.8209C55.6721 6.61459 55.7712 6.36702 55.7712 6.09194C55.7712 5.81686 55.658 5.58304 55.4598 5.37673C55.2475 5.18417 55.0068 5.08789 54.7237 5.08789H49.1324C48.8352 5.08789 48.5945 5.18417 48.3822 5.39048C48.184 5.58304 48.0708 5.83061 48.0708 6.10569V16.0224C48.0708 16.2974 48.1699 16.5313 48.3822 16.7376C48.5804 16.9301 48.8352 17.0402 49.1324 17.0402H54.7237C55.0068 17.0402 55.2475 16.9439 55.4598 16.7513C55.6721 16.5588 55.7712 16.3112 55.7712 16.0361C55.7712 15.7473 55.6721 15.4997 55.4598 15.3071C55.2475 15.1008 55.0068 15.0046 54.7237 15.0046H50.1799V12.0474H53.7046C53.9877 12.0474 54.2283 11.9512 54.4406 11.7449C54.6388 11.5523 54.752 11.3047 54.752 11.0296C54.752 10.7546 54.653 10.5207 54.4406 10.3144C54.2425 10.1219 53.9877 10.0118 53.7046 10.0118H50.1799V7.12349H54.7237Z" fill="#FCFCFC"/>
<path d="M78.6884 5.37736C78.2779 4.97849 77.641 4.97849 77.2163 5.37736C77.004 5.56991 76.9049 5.81749 76.9049 6.09257V12.5157C76.9049 12.5707 76.8907 12.6945 76.82 13.0659C76.7633 13.341 76.6643 13.616 76.5085 13.8911C76.3528 14.1662 76.1264 14.4138 75.8291 14.6338C75.546 14.8401 75.1497 14.9502 74.6542 14.9502C74.3145 14.9502 74.0172 14.8952 73.7766 14.7989C73.536 14.6888 73.3236 14.5651 73.1679 14.4C72.9981 14.235 72.8707 14.0424 72.7574 13.8499C72.6442 13.6435 72.5734 13.451 72.5168 13.2722C72.4602 13.0934 72.4319 12.9283 72.4177 12.7908C72.4036 12.6532 72.3894 12.5707 72.3894 12.5295V6.07881C72.3894 5.80373 72.2903 5.56991 72.078 5.3636C71.6675 4.96474 71.0305 4.96474 70.6058 5.3636C70.3935 5.55616 70.2944 5.80373 70.2944 6.07881V12.5157C70.2944 12.5432 70.2944 12.6257 70.3086 12.7633C70.3086 12.9008 70.3369 13.0659 70.3652 13.2584C70.3935 13.451 70.4501 13.671 70.5068 13.9049C70.5775 14.1524 70.6766 14.4138 70.804 14.6751C71.1721 15.4316 71.6816 16.0092 72.3328 16.4081C72.9839 16.7932 73.7624 16.9995 74.6401 16.9995C75.5177 16.9995 76.2962 16.807 76.9474 16.4081C77.5985 16.023 78.1222 15.4316 78.4903 14.6751C78.6035 14.4138 78.7026 14.1662 78.7734 13.9186C78.8442 13.671 78.8866 13.451 78.9291 13.2584C78.9574 13.0659 78.9715 12.9008 78.9857 12.7633C78.9857 12.6257 78.9999 12.5432 78.9999 12.5157V6.07881C78.9999 5.80373 78.8866 5.56991 78.6884 5.37736Z" fill="#FCFCFC"/>
<path d="M64.5937 5.64437C64.843 4.82094 64.3582 3.95698 63.5108 3.71467C62.6633 3.47235 61.7742 3.94343 61.5248 4.76686C61.2754 5.59029 61.7602 6.45425 62.6077 6.69657C63.4551 6.93888 64.3443 6.4678 64.5937 5.64437Z" fill="url(#paint0_linear_1608_9294)"/>
<path d="M67.1379 5.0752C66.9256 5.0752 66.7274 5.13021 66.5434 5.254C66.3594 5.36403 66.232 5.52908 66.147 5.73539L63.0754 13.2589L59.9754 5.74914C59.9046 5.54283 59.7772 5.37778 59.5932 5.254C59.4092 5.14397 59.211 5.0752 59.0128 5.0752C58.7014 5.0752 58.4466 5.18523 58.2484 5.40529C58.0644 5.6116 57.9653 5.84542 57.9653 6.10675C57.9653 6.25804 57.9936 6.38183 58.0361 6.47811L62.1128 16.381C62.2119 16.5461 62.3393 16.6974 62.495 16.8212C62.679 16.9587 62.8772 17.0137 63.0895 17.0137C63.2877 17.0137 63.4859 16.9449 63.6699 16.8212C63.8397 16.6974 63.9671 16.5598 64.0662 16.3673C64.3918 15.5833 65.2269 13.5477 66.0763 11.4983C66.9397 9.40772 67.8173 7.30335 68.1288 6.49186C68.1712 6.39558 68.1995 6.25804 68.1995 6.10675C68.1995 5.85918 68.1146 5.63911 67.9306 5.4328C67.7183 5.18523 67.4635 5.0752 67.1379 5.0752Z" fill="url(#paint1_linear_1608_9294)"/>
<path d="M63.0614 0C60.1737 0 57.8098 2.28317 57.8098 5.10275C57.8098 5.51537 57.8664 5.91424 57.9514 6.31311L57.9938 6.4644H58.008C57.9655 6.36812 57.9514 6.24434 57.9514 6.1068C57.9514 5.84547 58.0505 5.61165 58.2345 5.40534C58.4326 5.18528 58.6874 5.07524 58.9988 5.07524C59.2112 5.07524 59.4093 5.13026 59.5792 5.25405C59.7632 5.37783 59.8906 5.54288 59.9614 5.74919L60.0039 5.85922C59.9614 5.63916 59.8906 5.25405 59.8906 5.10275C59.8906 3.411 61.3061 2.0356 63.0472 2.0356C64.7883 2.0356 66.2038 3.411 66.2038 5.10275C66.2038 5.30906 66.1755 5.51537 66.1331 5.72168C66.218 5.52913 66.3454 5.36408 66.5294 5.25405C66.7134 5.14401 66.9116 5.07524 67.1239 5.07524C67.4495 5.07524 67.7043 5.18528 67.8883 5.40534C68.0723 5.61165 68.1572 5.84547 68.1572 6.07929C68.1572 6.23058 68.1289 6.35437 68.1006 6.45065H68.1148L68.1572 6.29935C68.2563 5.90049 68.2988 5.50162 68.2988 5.089C68.313 2.28317 65.9632 0 63.0614 0Z" fill="url(#paint2_linear_1608_9294)"/>
</g>
<defs>
<linearGradient id="paint0_linear_1608_9294" x1="61.4096" y1="6.35398" x2="64.9695" y2="4.03711" gradientUnits="userSpaceOnUse">
<stop stop-color="#FF6A8F"/>
<stop offset="0.494792" stop-color="#FF6276"/>
<stop offset="1" stop-color="#F53838"/>
</linearGradient>
<linearGradient id="paint1_linear_1608_9294" x1="57.9653" y1="6.38353" x2="69.6934" y2="15.6557" gradientUnits="userSpaceOnUse">
<stop stop-color="#89E9FF"/>
<stop offset="0.494792" stop-color="#27D8FF"/>
<stop offset="1" stop-color="#05BFE8"/>
</linearGradient>
<linearGradient id="paint2_linear_1608_9294" x1="57.8098" y1="0.708428" x2="63.9766" y2="9.49719" gradientUnits="userSpaceOnUse">
<stop stop-color="#FF6A8F"/>
<stop offset="0.494792" stop-color="#FF6276"/>
<stop offset="1" stop-color="#F53838"/>
</linearGradient>
<clipPath id="clip0_1608_9294">
<rect width="79" height="17" fill="white"/>
</clipPath>
</defs>
</svg>
