<svg width="50" height="50" viewBox="0 0 50 50" fill="none" xmlns="http://www.w3.org/2000/svg">
<rect width="50" height="50" fill="#201C1D"/>
<path d="M18.8683 31.18C17.9083 31.18 17.0143 31.024 16.1863 30.712C15.3703 30.388 14.6563 29.938 14.0443 29.362C13.4443 28.774 12.9763 28.084 12.6403 27.292C12.3043 26.5 12.1363 25.636 12.1363 24.7C12.1363 23.764 12.3043 22.9 12.6403 22.108C12.9763 21.316 13.4503 20.632 14.0623 20.056C14.6743 19.468 15.3883 19.018 16.2043 18.706C17.0203 18.382 17.9143 18.22 18.8863 18.22C19.9183 18.22 20.8603 18.4 21.7123 18.76C22.5643 19.108 23.2843 19.63 23.8723 20.326L22.3603 21.748C21.9043 21.256 21.3943 20.89 20.8303 20.65C20.2663 20.398 19.6543 20.272 18.9943 20.272C18.3343 20.272 17.7283 20.38 17.1763 20.596C16.6363 20.812 16.1623 21.118 15.7543 21.514C15.3583 21.91 15.0463 22.378 14.8183 22.918C14.6023 23.458 14.4943 24.052 14.4943 24.7C14.4943 25.348 14.6023 25.942 14.8183 26.482C15.0463 27.022 15.3583 27.49 15.7543 27.886C16.1623 28.282 16.6363 28.588 17.1763 28.804C17.7283 29.02 18.3343 29.128 18.9943 29.128C19.6543 29.128 20.2663 29.008 20.8303 28.768C21.3943 28.516 21.9043 28.138 22.3603 27.634L23.8723 29.074C23.2843 29.758 22.5643 30.28 21.7123 30.64C20.8603 31 19.9123 31.18 18.8683 31.18ZM26.6544 31V18.4H32.5584C34.0704 18.4 35.2224 18.7 36.0144 19.3C36.8064 19.888 37.2024 20.68 37.2024 21.676C37.2024 22.348 37.0464 22.924 36.7344 23.404C36.4224 23.872 36.0024 24.238 35.4744 24.502C34.9584 24.754 34.3944 24.88 33.7824 24.88L34.1064 24.232C34.8144 24.232 35.4504 24.364 36.0144 24.628C36.5784 24.88 37.0224 25.252 37.3464 25.744C37.6824 26.236 37.8504 26.848 37.8504 27.58C37.8504 28.66 37.4364 29.5 36.6084 30.1C35.7804 30.7 34.5504 31 32.9184 31H26.6544ZM28.9944 29.164H32.7744C33.6504 29.164 34.3224 29.02 34.7904 28.732C35.2584 28.444 35.4924 27.982 35.4924 27.346C35.4924 26.722 35.2584 26.266 34.7904 25.978C34.3224 25.678 33.6504 25.528 32.7744 25.528H28.8144V23.71H32.3064C33.1224 23.71 33.7464 23.566 34.1784 23.278C34.6224 22.99 34.8444 22.558 34.8444 21.982C34.8444 21.394 34.6224 20.956 34.1784 20.668C33.7464 20.38 33.1224 20.236 32.3064 20.236H28.9944V29.164Z" fill="#FCFCFC"/>
</svg>
