<svg width="418" height="349" viewBox="0 0 418 349" fill="none" xmlns="http://www.w3.org/2000/svg">
<g clip-path="url(#clip0_299_62159)">
<path d="M181.647 60.8589C120.477 31.8862 28.6477 52.1051 10.2091 76.9677C-31.7803 133.615 57.9805 299.203 161.053 295.309C264.126 291.415 309.669 121.501 181.647 60.8589Z" fill="#EDEDED"/>
<path d="M92.0465 134.263C95.236 130.57 98.9096 127.316 102.97 124.587L101.426 111.218L122.632 103.834L129.914 115.241C134.784 114.87 139.681 115.141 144.479 116.049L152.926 105.521L173.185 115.169L170.156 128.351C173.886 131.508 177.172 135.146 179.928 139.167L193.43 137.638L200.872 158.636L189.352 165.846C189.726 170.668 189.452 175.518 188.536 180.268L199.168 188.632L189.424 208.693L176.229 205.635C173.04 209.328 169.366 212.583 165.306 215.312L166.85 228.681L145.644 236.036L138.361 224.628C133.492 224.999 128.594 224.728 123.797 223.821L115.35 234.348L95.0904 224.7L98.1344 211.591C94.4045 208.433 91.1178 204.796 88.3617 200.775L74.8604 202.304L67.418 181.292L78.9384 174.081C78.5641 169.259 78.8384 164.41 79.7541 159.66L69.122 151.295L78.8074 131.235L92.0465 134.249V134.263ZM106.786 156.934C104.187 162.286 103.249 168.28 104.091 174.16C104.933 180.039 107.517 185.539 111.515 189.965C115.514 194.39 120.748 197.542 126.556 199.022C132.364 200.502 138.484 200.244 144.144 198.28C149.803 196.316 154.748 192.734 158.351 187.988C161.955 183.242 164.057 177.544 164.39 171.615C164.724 165.686 163.275 159.792 160.226 154.678C157.176 149.565 152.665 145.462 147.26 142.887C143.671 141.178 139.777 140.185 135.801 139.965C131.824 139.746 127.843 140.305 124.085 141.609C120.326 142.913 116.864 144.938 113.896 147.568C110.927 150.197 108.511 153.38 106.786 156.934Z" fill="#DDDDDD"/>
<path d="M145.644 236.757C145.522 236.757 145.402 236.727 145.295 236.669C145.188 236.611 145.098 236.527 145.032 236.425L138.041 225.393C133.376 225.72 128.688 225.463 124.089 224.629L115.918 234.825C115.815 234.953 115.671 235.044 115.509 235.08C115.348 235.117 115.179 235.098 115.029 235.027L94.6683 225.379C94.5203 225.308 94.4009 225.189 94.3295 225.043C94.2581 224.896 94.2389 224.73 94.2751 224.571L97.188 211.88C93.6568 208.843 90.5252 205.379 87.8667 201.569L74.7587 203.011C74.5946 203.03 74.4288 202.993 74.2885 202.907C74.1482 202.82 74.0418 202.689 73.9868 202.535L66.5443 181.523C66.4898 181.368 66.4904 181.199 66.5461 181.044C66.6017 180.889 66.709 180.758 66.8502 180.672L77.992 173.75C77.6647 169.131 77.924 164.489 78.7639 159.934L68.4669 151.843C68.3368 151.742 68.2458 151.599 68.2087 151.439C68.1716 151.279 68.1908 151.111 68.2629 150.964L78.0066 130.903C78.076 130.755 78.1953 130.635 78.344 130.564C78.4927 130.493 78.6617 130.476 78.8222 130.514L91.6389 133.398C94.7067 129.907 98.2053 126.811 102.052 124.183L100.596 111.204C100.577 111.041 100.614 110.877 100.701 110.738C100.788 110.599 100.921 110.494 101.077 110.439L122.341 103.171C122.497 103.117 122.668 103.118 122.824 103.173C122.981 103.228 123.113 103.334 123.2 103.474L130.191 114.506C134.856 114.179 139.544 114.435 144.144 115.271L152.314 105.075C152.417 104.946 152.561 104.856 152.723 104.819C152.884 104.782 153.054 104.801 153.203 104.873L173.462 114.521C173.61 114.592 173.729 114.71 173.801 114.857C173.872 115.003 173.891 115.169 173.855 115.328L170.942 128.005C174.475 131.045 177.607 134.515 180.264 138.33L193.372 136.888C193.536 136.869 193.702 136.906 193.842 136.992C193.982 137.079 194.089 137.21 194.144 137.364L201.586 158.376C201.641 158.531 201.64 158.7 201.584 158.855C201.529 159.01 201.421 159.141 201.28 159.227L190.138 166.15C190.466 170.769 190.206 175.41 189.366 179.965L199.663 188.056C199.793 188.158 199.885 188.3 199.922 188.46C199.959 188.62 199.94 188.788 199.867 188.936L190.124 208.996C190.052 209.142 189.933 209.261 189.785 209.331C189.636 209.402 189.469 209.421 189.308 209.385L176.491 206.501C173.424 209.997 169.926 213.098 166.078 215.731L167.534 228.71C167.554 228.872 167.517 229.037 167.429 229.176C167.342 229.314 167.209 229.42 167.054 229.474L145.833 236.829C145.767 236.814 145.703 236.79 145.644 236.757ZM138.362 223.908C138.484 223.908 138.603 223.938 138.71 223.996C138.817 224.054 138.908 224.138 138.973 224.239L145.877 235.156L166.034 228.191L164.578 215.399C164.563 215.268 164.586 215.135 164.642 215.016C164.699 214.896 164.787 214.794 164.898 214.721C168.904 212.028 172.529 208.818 175.676 205.174C175.762 205.075 175.875 205.001 176 204.961C176.126 204.92 176.261 204.914 176.389 204.943L189.061 207.828L198.294 188.806L188.099 180.802C187.994 180.719 187.914 180.61 187.868 180.485C187.821 180.36 187.811 180.225 187.837 180.095C188.747 175.383 189.016 170.572 188.638 165.789C188.628 165.659 188.654 165.528 188.713 165.411C188.772 165.295 188.862 165.196 188.973 165.126L199.998 158.29L192.949 138.374L180.031 139.816C179.898 139.829 179.765 139.806 179.645 139.75C179.524 139.694 179.421 139.607 179.346 139.499C176.628 135.527 173.385 131.933 169.704 128.812C169.604 128.727 169.53 128.616 169.489 128.491C169.448 128.367 169.442 128.233 169.471 128.106L172.384 115.559L153.174 106.401L145.09 116.496C145.007 116.601 144.896 116.68 144.771 116.726C144.645 116.772 144.508 116.782 144.377 116.756C139.618 115.857 134.759 115.59 129.929 115.963C129.797 115.974 129.665 115.95 129.546 115.891C129.428 115.832 129.329 115.742 129.259 115.631L122.341 104.728L102.227 111.708L103.684 124.5C103.698 124.631 103.676 124.764 103.619 124.884C103.563 125.003 103.474 125.105 103.363 125.178C99.3576 127.871 95.7331 131.082 92.5856 134.725C92.499 134.824 92.3868 134.898 92.2611 134.939C92.1354 134.979 92.0008 134.985 91.8719 134.956L79.2008 132.072L69.9087 151.108L80.1038 159.112C80.209 159.194 80.2892 159.304 80.3355 159.429C80.3817 159.553 80.3923 159.688 80.366 159.819C79.4571 164.531 79.1877 169.342 79.565 174.125C79.575 174.255 79.5492 174.385 79.4902 174.502C79.4312 174.619 79.3413 174.718 79.23 174.788L68.2047 181.624L75.2539 201.54L88.1725 200.098C88.3049 200.085 88.4382 200.108 88.5586 200.164C88.679 200.22 88.7821 200.306 88.8571 200.415C91.577 204.381 94.8196 207.97 98.4988 211.087C98.5988 211.173 98.6733 211.284 98.7143 211.408C98.7554 211.533 98.7614 211.666 98.7318 211.794L95.8189 224.34L115.059 233.469L123.142 223.374C123.225 223.27 123.336 223.191 123.462 223.145C123.588 223.099 123.724 223.088 123.855 223.114C128.614 224.013 133.473 224.28 138.303 223.908H138.362ZM134.08 200.703C128.829 200.691 123.668 199.362 119.076 196.841C114.484 194.32 110.612 190.689 107.82 186.286C105.029 181.883 103.408 176.852 103.11 171.661C102.812 166.471 103.846 161.29 106.116 156.603C108.53 151.662 112.235 147.452 116.848 144.409C121.461 141.366 126.812 139.602 132.346 139.3C137.881 138.998 143.396 140.169 148.318 142.691C153.241 145.213 157.392 148.994 160.339 153.642C163.287 158.29 164.924 163.634 165.08 169.12C165.236 174.606 163.906 180.033 161.227 184.838C158.548 189.643 154.619 193.649 149.848 196.442C145.076 199.235 139.637 200.711 134.094 200.718L134.08 200.703ZM107.441 157.194C104.907 162.417 103.994 168.267 104.817 174.005C105.64 179.742 108.162 185.109 112.065 189.427C115.968 193.745 121.077 196.82 126.744 198.264C132.412 199.707 138.385 199.455 143.908 197.538C149.431 195.621 154.255 192.126 157.772 187.494C161.289 182.862 163.341 177.302 163.667 171.516C163.993 165.73 162.579 159.979 159.605 154.988C156.63 149.998 152.228 145.993 146.955 143.479C139.877 140.118 131.742 139.674 124.334 142.245C116.926 144.817 110.851 150.193 107.441 157.194Z" fill="#727272"/>
<path d="M174.773 170.664C174.58 170.664 174.395 170.588 174.258 170.452C174.121 170.317 174.045 170.134 174.045 169.942C174.033 159.451 169.819 149.392 162.326 141.973C154.834 134.554 144.676 130.381 134.08 130.37C133.887 130.37 133.701 130.294 133.565 130.159C133.428 130.023 133.352 129.84 133.352 129.649C133.352 129.458 133.428 129.274 133.565 129.139C133.701 129.004 133.887 128.928 134.08 128.928C145.062 128.939 155.591 133.264 163.356 140.953C171.122 148.643 175.49 159.068 175.501 169.942C175.501 170.134 175.424 170.317 175.288 170.452C175.151 170.588 174.966 170.664 174.773 170.664Z" fill="#727272"/>
<path d="M335.507 234.766C372.646 208.735 449.882 245.625 404.674 284.765C344.45 336.913 302.009 344.989 288.551 339.322C257.092 326.054 269.21 281.218 335.507 234.766Z" fill="#EDEDED"/>
<path d="M220.462 4.58597C234.007 -8.39337 276.768 10.0084 260.281 29.5784C238.303 55.6524 222.821 59.6905 217.913 56.8639C206.436 50.23 196.27 27.819 220.462 4.58597Z" fill="#EDEDED"/>
<path d="M314.825 32.4642C318.196 30.1502 321.865 28.2926 325.734 26.9408L327.35 15.8074L346.095 14.3652L349.474 25.1093C353.508 25.835 357.427 27.0911 361.125 28.8444L370.228 22.1096L384.53 34.1804L379.258 44.1456C381.596 47.4884 383.472 51.1261 384.836 54.9617L396.08 56.5625L397.536 75.123L386.686 78.4688C385.953 82.4636 384.684 86.3436 382.914 90.006L389.715 99.0194L377.525 113.181L367.461 107.961C364.085 110.276 360.411 112.133 356.537 113.484L354.921 124.618L336.176 126.06L332.856 115.373C328.821 114.647 324.903 113.391 321.204 111.638L312.101 118.258L297.799 106.187L303.071 96.2216C300.733 92.8787 298.857 89.2411 297.493 85.4055L286.249 83.8047L284.793 65.2443L295.658 62.0138C296.392 58.0191 297.66 54.1391 299.43 50.4766L292.629 41.4632L304.819 27.3013L314.883 32.5219L314.825 32.4642ZM321.874 53.909C318.63 57.6945 316.591 62.3476 316.017 67.2799C315.443 72.2122 316.359 77.2024 318.648 81.6196C320.938 86.0368 324.499 89.6826 328.88 92.0963C333.262 94.51 338.268 95.583 343.266 95.1799C348.264 94.7767 353.029 92.9155 356.958 89.8314C360.888 86.7473 363.805 82.5788 365.343 77.8529C366.88 73.127 366.968 68.0559 365.595 63.2806C364.222 58.5053 361.45 54.2403 357.63 51.0247C355.091 48.8881 352.153 47.2678 348.981 46.2564C345.81 45.245 342.469 44.8622 339.148 45.1301C335.828 45.398 332.593 46.3111 329.629 47.8175C326.665 49.3238 324.03 51.3937 321.874 53.909Z" fill="#DDDDDD"/>
<path d="M336.25 126.778C336.094 126.779 335.942 126.731 335.816 126.64C335.69 126.549 335.597 126.421 335.551 126.274L332.303 115.948C328.503 115.247 324.804 114.085 321.292 112.487L312.553 118.962C312.425 119.062 312.266 119.117 312.102 119.117C311.938 119.117 311.779 119.062 311.65 118.962L297.348 106.891C297.223 106.785 297.138 106.641 297.106 106.481C297.074 106.322 297.098 106.156 297.173 106.011L302.242 96.4355C300.069 93.2604 298.303 89.8308 296.984 86.2251L286.177 84.682C286.012 84.6592 285.859 84.5809 285.745 84.4602C285.631 84.3394 285.563 84.1835 285.551 84.0186L284.094 65.4581C284.08 65.2943 284.123 65.1307 284.216 64.9943C284.309 64.8579 284.446 64.7569 284.604 64.7082L295.032 61.4922C295.743 57.6878 296.932 53.9863 298.572 50.4742L292.032 41.8213C291.93 41.694 291.875 41.5365 291.875 41.3743C291.875 41.212 291.93 41.0545 292.032 40.9272L304.223 26.7653C304.329 26.6414 304.475 26.5569 304.636 26.5254C304.798 26.494 304.965 26.5175 305.111 26.5922L314.782 31.6109C317.988 29.4598 321.452 27.711 325.093 26.4048L326.652 15.704C326.675 15.5403 326.754 15.3893 326.876 15.2764C326.998 15.1635 327.155 15.0955 327.322 15.0839L346.066 13.6417C346.231 13.6329 346.394 13.6773 346.53 13.7684C346.667 13.8595 346.77 13.9922 346.824 14.1465L350.071 24.4723C353.875 25.1894 357.573 26.3714 361.082 27.9911L369.821 21.5159C369.949 21.4153 370.108 21.3606 370.272 21.3606C370.436 21.3606 370.595 21.4153 370.724 21.5159L385.026 33.5866C385.151 33.6922 385.237 33.8366 385.268 33.9963C385.3 34.1561 385.276 34.3217 385.201 34.4664L380.132 44.0567C382.305 47.2317 384.071 50.6614 385.39 54.2671L396.153 55.8102C396.319 55.8329 396.471 55.9112 396.585 56.032C396.699 56.1527 396.768 56.3087 396.78 56.4736L398.236 75.034C398.25 75.1978 398.207 75.3615 398.115 75.4979C398.022 75.6343 397.885 75.7352 397.726 75.7839L387.415 78.9855C386.685 82.7518 385.486 86.4139 383.846 89.8881L390.386 98.541C390.487 98.6683 390.543 98.8258 390.543 98.9881C390.543 99.1503 390.487 99.3079 390.386 99.4352L378.195 113.597C378.089 113.721 377.943 113.806 377.782 113.837C377.62 113.868 377.453 113.845 377.307 113.77L367.636 108.751C364.41 110.897 360.927 112.636 357.266 113.929L355.708 124.63C355.685 124.793 355.606 124.944 355.484 125.057C355.362 125.17 355.204 125.238 355.038 125.25L336.293 126.692L336.25 126.778ZM321.205 110.915C321.31 110.892 321.42 110.892 321.525 110.915C325.168 112.641 329.028 113.877 333.002 114.592C333.133 114.615 333.255 114.672 333.355 114.759C333.455 114.845 333.529 114.957 333.57 115.082L336.774 125.278L354.353 123.836L355.897 113.265C355.916 113.135 355.971 113.012 356.056 112.91C356.141 112.809 356.252 112.732 356.378 112.689C360.19 111.359 363.805 109.531 367.126 107.252C367.24 107.181 367.371 107.144 367.505 107.144C367.639 107.144 367.77 107.181 367.884 107.252L377.423 112.213L388.857 98.916L382.405 90.3785C382.324 90.2723 382.274 90.146 382.261 90.0137C382.248 89.8813 382.273 89.748 382.332 89.6285C384.075 86.0211 385.324 82.1993 386.046 78.2644C386.069 78.1349 386.127 78.014 386.214 77.9148C386.301 77.8157 386.414 77.7421 386.541 77.702L396.838 74.5148L395.381 57.1081L384.706 55.5794C384.574 55.5604 384.45 55.506 384.347 55.4221C384.245 55.3382 384.167 55.228 384.123 55.1035C382.78 51.3293 380.934 47.7499 378.632 44.4605C378.563 44.3475 378.526 44.2178 378.526 44.0855C378.526 43.9532 378.563 43.8235 378.632 43.7105L383.643 34.2645L370.214 22.9436L361.577 29.3323C361.469 29.4108 361.342 29.459 361.209 29.4717C361.075 29.4844 360.941 29.4611 360.82 29.4044C357.177 27.6768 353.317 26.44 349.343 25.7269C349.212 25.7043 349.09 25.6466 348.99 25.5602C348.89 25.4738 348.816 25.3619 348.775 25.2366L345.571 15.0406L327.992 16.4828L326.448 27.0537C326.429 27.1842 326.374 27.307 326.289 27.4087C326.204 27.5104 326.093 27.5871 325.967 27.6306C322.156 28.9605 318.541 30.7889 315.219 33.0675C315.105 33.1362 314.974 33.1726 314.84 33.1726C314.706 33.1726 314.575 33.1362 314.461 33.0675L304.922 28.1065L293.489 41.4031L299.941 49.9406C300.021 50.0468 300.071 50.1731 300.084 50.3054C300.097 50.4378 300.072 50.571 300.013 50.6905C298.271 54.2982 297.022 58.1199 296.299 62.0547C296.277 62.1842 296.218 62.3051 296.131 62.4042C296.044 62.5034 295.931 62.577 295.804 62.6171L285.463 65.8331L286.92 83.2398L297.596 84.7685C297.727 84.7875 297.851 84.8419 297.954 84.9258C298.057 85.0098 298.134 85.1199 298.178 85.2444C299.521 89.0185 301.368 92.5979 303.669 95.8875C303.739 96.0005 303.775 96.1302 303.775 96.2624C303.775 96.3947 303.739 96.5244 303.669 96.6374L298.659 106.083L312.087 117.404L320.709 111.016C320.849 110.904 321.026 110.848 321.205 110.857V110.915ZM341.143 96.0894C336.164 96.0815 331.291 94.6625 327.1 92.0002C322.909 89.3379 319.575 85.5435 317.492 81.0652C315.409 76.5869 314.664 71.6118 315.346 66.7277C316.027 61.8436 318.105 57.2546 321.336 53.5027C324.118 50.2701 327.662 47.7668 331.655 46.2144C335.648 44.662 339.965 44.1086 344.226 44.603C348.486 45.0975 352.557 46.6246 356.079 49.0491C359.601 51.4736 362.465 54.7207 364.417 58.5028C366.369 62.2849 367.348 66.4852 367.269 70.7318C367.191 74.9784 366.055 79.1402 363.964 82.8485C361.873 86.5569 358.89 89.6974 355.281 91.9919C351.671 94.2864 347.546 95.664 343.27 96.0029C342.551 96.0221 341.838 96.0317 341.129 96.0317L341.143 96.0894ZM322.428 54.368C319.269 58.0388 317.279 62.5549 316.712 67.3452C316.144 72.1355 317.024 76.9848 319.24 81.28C321.455 85.5752 324.908 89.1234 329.16 91.4759C333.412 93.8283 338.273 94.8794 343.129 94.4963C347.985 94.1131 352.616 92.3128 356.439 89.3232C360.261 86.3335 363.102 82.2887 364.603 77.7002C366.104 73.1117 366.197 68.1855 364.87 63.5447C363.543 58.9039 360.857 54.7569 357.15 51.6279C354.697 49.5322 351.848 47.9394 348.769 46.9419C345.689 45.9443 342.441 45.5619 339.211 45.8168C335.981 46.0717 332.835 46.9587 329.954 48.4266C327.073 49.8945 324.515 51.914 322.428 54.368Z" fill="#727272"/>
<path d="M396.081 179.186C396.081 179.186 394.304 171.471 390.852 172.927C390.852 172.927 388.507 164.664 384.633 166.755C384.633 166.755 383.104 160.078 379.754 162.27C376.404 164.462 371.539 165.774 366.646 176.071C366.646 176.071 365.51 183.671 365.51 185.085C365.51 189.93 362.597 195.598 360.631 200.386C355.111 213.365 347.202 234.103 341.027 242.468L337.56 238.141L338.886 236.815C338.886 236.815 321.088 205.39 301.674 184.45C286.425 168.01 264.461 163.222 264.461 163.222L262.16 172.452L224.657 171.846V162.962C224.657 162.962 178.677 178.263 167.972 196.406C153.495 220.922 155.592 271.397 155.592 271.397L159.044 270.532C159.044 270.532 164.404 300.154 169.953 311.633L167.724 348.365H308.475L305.562 256.615L311.534 264.086L312.743 262.874C312.743 262.874 340.59 294.227 346.43 291.083C362.335 282.531 376.812 210.842 382.594 203.962C388.376 197.083 392.323 192.642 396.241 187.983C400.159 183.325 399.154 180.715 396.081 179.186Z" fill="white"/>
<path d="M341.55 103.835C341.357 103.835 341.172 103.759 341.036 103.623C340.899 103.488 340.822 103.305 340.822 103.113C340.822 102.922 340.899 102.739 341.036 102.604C341.172 102.468 341.357 102.392 341.55 102.392C350.123 102.29 358.305 98.8227 364.299 92.7525C370.293 86.6824 373.609 78.5052 373.519 70.0162C373.517 69.9215 373.534 69.8273 373.569 69.7391C373.604 69.6509 373.656 69.5703 373.722 69.502C373.789 69.4337 373.868 69.379 373.955 69.341C374.043 69.3031 374.137 69.2825 374.233 69.2807C374.33 69.2746 374.427 69.2886 374.517 69.3216C374.608 69.3546 374.691 69.4059 374.761 69.4724C374.831 69.5388 374.886 69.6189 374.923 69.7075C374.96 69.7962 374.978 69.8915 374.976 69.9873C375.069 78.8602 371.604 87.4072 365.34 93.7528C359.076 100.098 350.526 103.724 341.565 103.835H341.55Z" fill="#727272"/>
<path d="M225.458 147.893C225.458 147.893 224.555 171.198 225.458 173.202C226.754 176 248.615 190.508 262.16 172.452C263.966 170.044 264.884 158.117 264.884 158.117" fill="white"/>
<path d="M226.129 148.846L225.75 165.171C225.75 165.171 249.213 176.045 262.962 159.114C262.962 159.114 251.529 163.541 240.693 159.316C234.989 157.162 229.963 153.55 226.129 148.846Z" fill="#B5B5B5"/>
<path d="M226.332 123.823C226.332 123.823 231.531 103.229 226.332 94.2879C222.21 87.1925 260.558 108.075 279.39 98.1817C281.094 105.623 289.207 148.657 263.835 158.579C240.532 167.693 224.934 150.243 220.142 139.153C219.443 137.524 218.176 133.572 218.176 133.572" fill="white"/>
<path d="M249.591 119.698C251.063 119.698 252.256 118.517 252.256 117.059C252.256 115.602 251.063 114.42 249.591 114.42C248.119 114.42 246.926 115.602 246.926 117.059C246.926 118.517 248.119 119.698 249.591 119.698Z" fill="#727272"/>
<path d="M226.112 123.839C224.117 118.921 218.83 108.062 212.014 110.6C203.275 113.859 201.382 126.348 218.204 133.559" fill="white"/>
<path d="M258.023 141.977C255.805 142.039 253.626 141.388 251.812 140.122C249.998 138.856 248.647 137.043 247.959 134.954C247.906 134.78 247.921 134.592 248.001 134.429C248.082 134.265 248.222 134.138 248.393 134.072C248.564 134.006 248.755 134.007 248.925 134.075C249.096 134.142 249.235 134.271 249.314 134.435C250.013 136.566 251.497 138.358 253.469 139.456C255.441 140.554 257.758 140.877 259.96 140.362C260.056 140.34 260.155 140.336 260.252 140.351C260.349 140.366 260.443 140.4 260.526 140.451C260.61 140.502 260.683 140.569 260.741 140.648C260.799 140.726 260.84 140.816 260.863 140.91C260.886 141.005 260.89 141.103 260.875 141.199C260.859 141.296 260.825 141.388 260.774 141.471C260.722 141.554 260.655 141.626 260.575 141.683C260.496 141.741 260.406 141.782 260.31 141.804C259.556 141.943 258.79 142.001 258.023 141.977Z" fill="#727272"/>
<path d="M212.525 114.869C212.332 114.827 212.13 114.862 211.963 114.968C211.797 115.073 211.679 115.24 211.637 115.431C211.594 115.622 211.63 115.823 211.737 115.988C211.843 116.153 212.011 116.269 212.205 116.311C213.564 116.698 214.832 117.35 215.933 118.229C214.732 118.373 213.614 118.911 212.758 119.758C212.027 120.543 211.626 121.574 211.637 122.642C211.651 122.823 211.734 122.992 211.869 123.115C212.004 123.238 212.181 123.306 212.365 123.305C212.461 123.298 212.554 123.272 212.639 123.229C212.725 123.186 212.801 123.126 212.863 123.054C212.926 122.982 212.973 122.898 213.002 122.807C213.032 122.717 213.043 122.621 213.035 122.527C213.033 121.838 213.293 121.174 213.763 120.666C214.717 119.827 215.969 119.396 217.244 119.469C218.34 120.745 219.082 122.28 219.399 123.926C219.433 124.088 219.522 124.235 219.652 124.34C219.782 124.445 219.945 124.502 220.113 124.502H220.259C220.352 124.483 220.441 124.446 220.521 124.393C220.6 124.34 220.668 124.272 220.721 124.193C220.773 124.114 220.81 124.026 220.828 123.933C220.846 123.84 220.846 123.744 220.827 123.652C220.402 121.569 219.401 119.645 217.934 118.094C216.468 116.543 214.595 115.426 212.525 114.869Z" fill="#727272"/>
<path d="M260.952 132.879C259.657 132.888 258.407 132.409 257.456 131.538C257.326 131.407 257.252 131.231 257.248 131.048C257.244 130.864 257.312 130.686 257.436 130.549C257.561 130.413 257.734 130.329 257.919 130.314C258.104 130.3 258.287 130.356 258.432 130.471C259.241 131.125 260.263 131.464 261.306 131.424C262.35 131.384 263.342 130.969 264.098 130.255C266.661 127.918 264.884 123.549 264.87 123.505C264.817 123.334 264.831 123.149 264.908 122.987C264.985 122.825 265.121 122.697 265.288 122.629C265.456 122.56 265.643 122.556 265.813 122.617C265.983 122.678 266.125 122.799 266.21 122.957C266.297 123.174 268.409 128.293 265.088 131.322C263.943 132.315 262.475 132.868 260.952 132.879Z" fill="#727272"/>
<path d="M271.976 119.698C273.448 119.698 274.641 118.517 274.641 117.059C274.641 115.602 273.448 114.42 271.976 114.42C270.504 114.42 269.311 115.602 269.311 117.059C269.311 118.517 270.504 119.698 271.976 119.698Z" fill="#727272"/>
<path d="M205.462 71.4311C205.269 71.4674 205.069 71.4263 204.906 71.3167C204.744 71.2072 204.632 71.0382 204.595 70.847C204.558 70.6558 204.6 70.4579 204.711 70.297C204.821 70.1361 204.992 70.0253 205.185 69.9889C211.171 67.5228 213.385 70.0899 213.487 70.1908C213.61 70.3381 213.67 70.5279 213.652 70.7186C213.634 70.9093 213.541 71.0851 213.392 71.2075C213.243 71.3299 213.052 71.3888 212.859 71.3712C212.666 71.3537 212.489 71.261 212.365 71.1138C212.365 71.1138 210.603 69.3111 205.738 71.3157C205.655 71.3724 205.561 71.4117 205.462 71.4311Z" fill="#727272"/>
<path d="M212.917 71.4287C212.766 71.4276 212.618 71.3797 212.496 71.2919C212.373 71.204 212.281 71.0804 212.233 70.9384C210.849 66.9724 205.344 65.5159 205.285 65.5015C205.092 65.4536 204.926 65.3318 204.824 65.1628C204.721 64.9938 204.691 64.7913 204.739 64.6001C204.787 64.4089 204.911 64.2445 205.081 64.143C205.252 64.0416 205.456 64.0115 205.649 64.0593C205.912 64.0593 211.97 65.7178 213.616 70.4192C213.648 70.5091 213.662 70.6044 213.657 70.6997C213.651 70.7949 213.627 70.8882 213.585 70.974C213.543 71.0598 213.484 71.1366 213.412 71.1998C213.34 71.263 213.256 71.3114 213.165 71.3422L212.917 71.4287Z" fill="#727272"/>
<path d="M399.474 181.957C399.287 181.244 398.942 180.581 398.463 180.018C397.984 179.454 397.384 179.003 396.707 178.698C396.387 177.443 395.251 173.463 392.964 172.338C392.462 172.083 391.892 171.987 391.333 172.064C390.808 170.506 389.381 166.915 387.08 165.949C386.463 165.689 385.777 165.638 385.128 165.805C384.721 164.478 383.745 161.998 382.012 161.305C381.574 161.141 381.101 161.089 380.637 161.154C380.174 161.22 379.734 161.401 379.361 161.68C378.793 162.055 378.181 162.402 377.555 162.762C374.263 164.637 370.171 166.988 365.903 175.741C365.894 175.808 365.894 175.876 365.903 175.943C365.903 176.261 364.753 183.616 364.753 185.072C364.753 189.038 362.699 193.725 360.893 197.878C360.558 198.628 360.238 199.321 359.932 200.099C358.912 202.493 357.82 205.147 356.669 207.93C351.834 219.669 345.863 234.163 340.969 241.244L338.508 238.143L339.381 237.263C339.494 237.152 339.566 237.007 339.587 236.85C339.608 236.694 339.577 236.535 339.498 236.398C339.323 236.081 321.423 204.671 302.184 183.904C288.391 169.035 268.904 163.541 265.205 162.618C265.423 160.83 265.554 159.301 265.627 158.537C275.662 153.85 281.342 143.423 282.493 127.458C283.028 117.599 282.22 107.713 280.089 98.0672V97.8509C284.648 95.2118 287.969 90.6402 289.061 83.2131C291.828 64.595 261.957 46.8854 226.609 52.4088C204.092 55.9276 212.947 70.7529 212.947 70.7529C212.947 70.7529 197.888 75.6274 201.441 90.5392C203.946 101.052 208.083 106.042 210.311 110.643C208.69 111.463 207.321 112.698 206.345 114.22C205.369 115.742 204.823 117.494 204.762 119.296C204.616 125.064 209.306 130.516 217.637 134.179C217.943 135.145 218.919 138.13 219.516 139.529C220.875 142.624 222.633 145.533 224.745 148.182C224.657 150.475 224.439 156.691 224.366 162.416C221.628 163.324 177.993 178.179 167.375 196.148C152.956 220.578 154.879 271.024 154.893 271.529C154.901 271.715 154.981 271.891 155.117 272.02C155.252 272.149 155.433 272.221 155.622 272.221H155.796L158.491 271.543C159.773 278.552 164.229 301.468 169.239 311.794L167.026 348.439C167.02 348.537 167.034 348.635 167.068 348.728C167.102 348.82 167.155 348.905 167.223 348.977C167.291 349.048 167.373 349.105 167.465 349.144C167.556 349.183 167.654 349.203 167.754 349.203H308.476C308.574 349.203 308.671 349.184 308.761 349.146C308.851 349.107 308.933 349.052 309.001 348.982C309.069 348.912 309.122 348.829 309.157 348.738C309.192 348.647 309.208 348.55 309.204 348.453L306.422 258.881L311.039 264.65C311.102 264.729 311.181 264.795 311.272 264.842C311.362 264.889 311.461 264.917 311.563 264.924C311.661 264.924 311.758 264.906 311.848 264.868C311.938 264.831 312.019 264.777 312.088 264.708L312.728 264.059C318.103 270.072 338.318 292.123 345.571 292.123C345.996 292.135 346.417 292.041 346.795 291.849C357.47 286.08 367.316 253.329 374.467 229.375C378.108 217.261 381.24 206.805 383.206 204.556C386.381 200.791 389.032 197.749 391.362 195.008C393.314 192.744 395.09 190.682 396.853 188.591C399.067 185.937 399.853 183.803 399.474 181.957ZM220.841 138.88C220.157 137.294 218.919 133.4 218.904 133.357C218.885 133.311 218.86 133.267 218.831 133.227V133.126L218.715 133.039L218.613 132.967C210.661 129.549 206.175 124.574 206.306 119.31C206.385 117.527 207.01 115.809 208.097 114.385C209.184 112.961 210.683 111.897 212.394 111.335C218.613 109.028 223.681 119.541 225.502 124.17C225.588 124.307 225.71 124.419 225.856 124.493C226.001 124.566 226.163 124.6 226.326 124.59C226.489 124.579 226.646 124.525 226.78 124.434C226.915 124.342 227.022 124.216 227.089 124.069C227.308 123.218 232.303 103.086 227.017 94.0004C226.939 93.873 226.875 93.7376 226.827 93.5966C227.861 93.3226 232.464 94.6782 236.556 95.8752C247.989 99.2642 266.952 104.874 278.939 99.3075C280.89 108.534 281.615 117.974 281.094 127.386C279.929 143.553 274.045 153.821 263.617 157.902C241.843 166.411 226.114 151.182 220.841 138.88ZM264.098 159.258C263.748 163.094 262.845 170.391 261.607 172.035C256.786 178.481 250.436 181.351 242.761 180.544C234.022 179.635 226.74 174.227 226.143 172.9C225.546 171.574 225.735 160.469 226.143 149.826C231.969 156.46 240.532 161.882 251.135 161.882C255.582 161.843 259.981 160.967 264.098 159.301V159.258ZM159.904 271.125L178.24 266.539L191.625 263.193L193.81 281.783C193.823 281.891 193.86 281.995 193.92 282.087C193.979 282.178 194.059 282.256 194.153 282.313C194.247 282.37 194.352 282.405 194.462 282.415C194.572 282.426 194.682 282.412 194.785 282.374C198.791 280.932 205.549 278.466 213.384 275.668C224.541 271.673 237.197 267.145 245.178 264.131C248.994 262.689 255.694 259.069 258.286 256.026C259.889 254.18 260.733 247.964 260.835 243.046C260.835 242.037 260.835 241.085 260.835 240.162C260.835 236.946 260.835 233.629 261.724 233.557C264.185 233.37 265.714 237.884 266.18 240.422C266.819 244.107 267 247.855 266.719 251.584C266.719 252.305 266.632 252.868 267.316 253.026C267.465 253.053 267.618 253.031 267.752 252.964C267.886 252.896 267.994 252.786 268.059 252.651C269.603 252.002 277.235 248.945 282.624 248.916C286.367 248.916 286.614 249.81 286.862 250.603C287.401 252.348 283.949 253.92 283.949 253.935C283.756 253.965 283.583 254.071 283.468 254.227C283.354 254.384 283.306 254.58 283.337 254.771C283.368 254.962 283.475 255.134 283.633 255.247C283.791 255.361 283.989 255.407 284.182 255.377C288.187 255.694 288.551 256.92 288.959 258.261C289.644 260.511 285.726 262.588 285.682 262.588C285.545 262.656 285.433 262.765 285.362 262.9C285.291 263.035 285.265 263.188 285.288 263.339C285.311 263.489 285.381 263.628 285.488 263.737C285.595 263.845 285.735 263.918 285.886 263.943C288.799 264.462 289.032 265.227 289.309 266.193L289.396 266.51C290.212 269.149 286.789 270.563 286.643 270.62C286.508 270.673 286.391 270.766 286.309 270.885C286.227 271.005 286.183 271.146 286.183 271.291C286.183 271.436 286.227 271.577 286.309 271.696C286.391 271.816 286.508 271.908 286.643 271.962C287.265 272.144 287.808 272.527 288.185 273.049C288.563 273.572 288.753 274.204 288.726 274.846C288.726 276.288 287.43 278.48 284.138 279.461C280.369 280.381 276.546 281.07 272.691 281.523C267.022 282.198 261.406 283.258 255.883 284.696C253.451 285.431 247.669 288.128 239.673 291.906C219.865 301.179 186.688 316.697 173.827 315.615C172.851 315.529 171.759 314.173 170.638 311.779C170.62 311.628 170.554 311.486 170.448 311.375C166.647 302.852 162.307 284.234 159.904 271.125ZM311.68 263.02L297.363 245.166C297.238 245.035 297.067 244.955 296.885 244.942C296.703 244.929 296.523 244.985 296.38 245.097C296.237 245.209 296.142 245.371 296.114 245.549C296.086 245.728 296.126 245.91 296.227 246.061L304.966 256.906L307.791 347.674H168.526L170.565 314.087C171.628 315.731 172.691 316.74 173.769 316.827C174.235 316.827 174.716 316.827 175.225 316.827C189.251 316.827 219.865 302.506 240.358 292.93C248.004 289.354 254.034 286.527 256.379 285.835C261.834 284.418 267.382 283.372 272.982 282.706C276.906 282.245 280.798 281.542 284.634 280.6C287.94 279.605 290.154 277.269 290.255 274.658C290.294 273.954 290.154 273.252 289.848 272.615C289.543 271.978 289.082 271.426 288.508 271.01C289.437 270.529 290.175 269.752 290.603 268.805C291.031 267.858 291.124 266.795 290.867 265.789L290.78 265.501C290.638 264.788 290.285 264.134 289.766 263.62C289.248 263.106 288.586 262.757 287.867 262.616C289.323 261.578 291.056 259.732 290.372 257.526C290.174 256.59 289.68 255.741 288.963 255.101C288.246 254.46 287.342 254.062 286.381 253.964C287.078 253.579 287.637 252.989 287.979 252.276C288.321 251.562 288.429 250.761 288.289 249.983C287.765 248.253 286.629 247.315 282.653 247.272C277.555 247.272 270.826 249.796 268.278 250.82C268.508 247.204 268.308 243.573 267.681 240.004C267.52 239.138 266.006 231.653 261.665 231.971C259.51 232.158 259.481 235.115 259.452 240.004C259.452 240.883 259.452 241.835 259.452 242.888C259.321 249.291 258.228 253.92 257.267 255.031C254.762 257.915 248.354 261.347 244.683 262.732C236.717 265.746 224.075 270.274 212.918 274.269C205.636 276.879 199.257 279.158 195.179 280.672L193.081 262.818L196.184 262.04C196.353 261.999 196.502 261.899 196.604 261.759C196.705 261.619 196.752 261.447 196.737 261.275L194.742 241.085C194.72 240.895 194.624 240.721 194.474 240.6C194.325 240.479 194.133 240.42 193.941 240.436C193.845 240.445 193.752 240.473 193.667 240.518C193.582 240.563 193.507 240.624 193.446 240.697C193.385 240.771 193.339 240.856 193.312 240.947C193.284 241.039 193.275 241.135 193.285 241.229L195.164 260.785L192.062 261.564L158.884 269.87L156.306 270.519C156.117 263.669 155.461 219.107 168.613 196.811C178.415 180.198 219.006 165.718 224.322 163.887C224.322 168.574 224.395 172.641 224.803 173.52C225.749 175.583 233.673 181.063 242.586 182C243.433 182.088 244.283 182.131 245.135 182.13C248.608 182.129 252.028 181.289 255.099 179.683C258.17 178.077 260.799 175.754 262.758 172.915C263.792 171.473 264.52 167.593 265.001 164.118C268.933 165.127 287.721 170.535 301.091 184.942C318.933 204.181 335.638 232.692 337.939 236.701L337.007 237.638L314.593 260.021L311.68 263.02ZM395.76 187.553C393.998 189.658 392.221 191.706 390.284 193.97C387.925 196.71 385.289 199.739 382.113 203.532C380.016 206.027 376.987 216.107 373.156 228.87C366.049 252.565 356.291 285.027 346.154 290.479C342.353 292.541 324.496 274.889 313.806 262.934L319.501 257.165L337.488 239.138L340.139 242.484C338.112 245.74 336.554 249.258 335.507 252.94C335.468 253.125 335.504 253.318 335.608 253.477C335.711 253.637 335.874 253.749 336.061 253.79H336.206C336.374 253.791 336.537 253.733 336.667 253.628C336.797 253.523 336.886 253.376 336.92 253.214C337.99 249.536 339.568 246.022 341.61 242.772C346.707 235.85 352.97 220.635 358.024 208.406C359.174 205.623 360.267 202.969 361.272 200.575C361.578 199.854 361.898 199.133 362.218 198.383C364.083 194.057 366.195 189.269 366.195 185.014C366.195 183.918 366.981 178.395 367.301 176.217C371.307 167.911 375.166 165.704 378.268 163.93C378.924 163.555 379.55 163.195 380.147 162.805C380.324 162.653 380.539 162.551 380.769 162.508C381 162.464 381.237 162.483 381.458 162.56C382.638 163.022 383.585 165.444 383.919 166.887C383.944 166.996 383.994 167.099 384.065 167.186C384.137 167.273 384.227 167.342 384.331 167.388C384.434 167.435 384.547 167.456 384.66 167.452C384.773 167.447 384.883 167.417 384.983 167.362C385.2 167.234 385.445 167.156 385.697 167.136C385.95 167.116 386.204 167.154 386.439 167.247C388.274 168.011 389.687 171.732 390.08 173.102C390.108 173.203 390.158 173.296 390.226 173.376C390.294 173.455 390.378 173.52 390.473 173.564C390.568 173.605 390.669 173.626 390.772 173.626C390.875 173.626 390.977 173.605 391.071 173.564C391.251 173.473 391.451 173.425 391.653 173.425C391.856 173.425 392.055 173.473 392.236 173.564C393.852 174.371 394.988 177.977 395.294 179.332C395.317 179.437 395.362 179.535 395.428 179.62C395.493 179.704 395.577 179.774 395.673 179.823C396.217 180.024 396.707 180.347 397.104 180.768C397.501 181.188 397.794 181.694 397.96 182.245C398.338 183.616 397.61 185.404 395.731 187.567L395.76 187.553Z" fill="#727272"/>
<path d="M284.822 67.5654L269.442 54.9466L268.524 55.3504L269.355 54.2399C241.682 33.7037 209.16 56.9223 209.16 56.9223C209.16 56.9223 200.028 69.6132 200.931 75.8721C201.295 78.4103 210.587 77.1124 222.035 75.3097L198.848 85.2605C198.565 90.2812 198.898 95.3174 199.838 100.259C199.838 100.259 194.537 105.927 200.843 107.772C203.756 108.638 230.176 88.7361 259.931 84.5539C259.931 84.5539 302.416 77.5739 303.887 75.6414C305.358 73.7089 284.822 67.5654 284.822 67.5654Z" fill="#B5B5B5"/>
<path d="M208.52 68.9497C213.603 66.8586 226.493 62.1716 229.799 63.4984C233.105 64.8251 234.838 70.4062 229.318 73.0021C223.799 75.598 202.068 84.8133 198.733 85.2748C195.398 85.7363 193.606 77.9487 197.277 75.1798C200.743 72.6405 204.521 70.5471 208.52 68.9497Z" fill="#B5B5B5"/>
<path d="M205.621 59.5751C205.621 59.5751 221.642 49.1196 234.036 51.9462C246.431 54.7728 255.33 59.3444 258.024 58.9694C260.718 58.5945 272.588 55.0901 269.457 52.797C262.899 47.7566 255.109 44.5295 246.88 43.4451C238.651 42.3607 230.279 43.4579 222.618 46.6246C210.092 51.6577 205.621 59.5751 205.621 59.5751Z" fill="#B5B5B5"/>
<path d="M249.941 80.8322C249.941 80.8322 279.493 68.2999 284.809 67.5645L249.941 80.8322Z" fill="#B5B5B5"/>
<path d="M209.203 57.6855C205.304 62.0345 202.45 67.2018 200.857 72.7993L209.203 57.6855Z" fill="#B5B5B5"/>
<path d="M304.558 75.0636C303.786 72.7417 290.867 68.6316 285.172 66.9154L270.258 54.7149C270.435 54.5072 270.569 54.2671 270.652 54.0082C270.732 53.6546 270.696 53.2849 270.549 52.9529C270.403 52.6208 270.153 52.3438 269.836 52.1622C263.17 47.0892 255.272 43.8438 246.937 42.7527C238.602 41.6616 230.124 42.7631 222.356 45.9466C209.728 51.023 205.17 58.9259 204.98 59.2144C204.903 59.3551 204.875 59.5175 204.9 59.6758C204.926 59.8342 205.005 59.9795 205.123 60.0887C205.242 60.1979 205.394 60.2649 205.556 60.2789C205.717 60.2929 205.878 60.2533 206.015 60.1662L206.364 59.9499C203.628 63.6781 201.559 67.844 200.247 72.2658C199.084 72.9637 197.961 73.7244 196.883 74.5444C194.348 76.4913 194.057 80.5293 195.251 83.3127C195.457 83.9445 195.817 84.516 196.3 84.9765C196.783 85.437 197.373 85.7721 198.019 85.9518C197.81 90.674 198.133 95.4044 198.98 100.056C198.281 100.892 196.46 103.344 197.072 105.565C197.345 106.306 197.81 106.964 198.421 107.47C199.032 107.976 199.768 108.314 200.553 108.449C200.693 108.47 200.835 108.47 200.975 108.449C202.242 108.449 204.587 107.209 210.093 104.123C221.132 98.0803 239.6 87.9852 259.961 85.1154C269.996 83.4713 302.854 77.9046 304.383 75.9288C304.472 75.8049 304.533 75.6638 304.564 75.5147C304.594 75.3656 304.592 75.2119 304.558 75.0636ZM222.837 47.2878C244.29 38.6349 260.893 47.3599 268.962 53.3592C269.021 53.3841 269.072 53.4238 269.11 53.4745C269.149 53.5251 269.173 53.5848 269.181 53.6477C268.787 55.0898 260.995 57.8011 257.864 58.2481C256.728 58.4068 253.888 57.3972 250.276 56.1282C245 54.1828 239.611 52.5503 234.139 51.2393C232.585 50.8943 230.997 50.7249 229.405 50.7345C221.307 50.7345 212.816 54.6716 208.33 57.1088C212.334 52.7691 217.3 49.4074 222.837 47.2878ZM196.62 82.7646C195.674 80.5293 195.849 77.198 197.8 75.6981C201.2 73.2195 204.905 71.1793 208.826 69.6267C214.651 67.2615 224.133 63.9879 228.225 63.9879C228.68 63.9689 229.134 64.0324 229.565 64.1753C230.323 64.5142 230.971 65.0552 231.437 65.7377C231.902 66.4202 232.167 67.2174 232.201 68.0403C232.183 68.9925 231.872 69.9166 231.31 70.6896C230.748 71.4625 229.962 72.0475 229.056 72.3667C222.866 75.251 201.791 84.1491 198.718 84.5817C197.538 84.7115 196.795 83.2261 196.62 82.7646ZM259.787 83.8463C239.178 86.7306 220.55 96.9265 209.437 103.012C205.505 105.161 201.791 107.209 201.019 107.094C200.476 107.015 199.961 106.801 199.525 106.47C199.09 106.139 198.746 105.704 198.528 105.204C198.091 103.633 199.694 101.469 200.349 100.777C200.429 100.691 200.487 100.587 200.517 100.474C200.548 100.361 200.55 100.242 200.524 100.128C199.639 95.4275 199.307 90.6414 199.533 85.8653C204.34 84.6683 224.293 76.174 229.682 73.6503C230.842 73.2127 231.841 72.4393 232.55 71.4309C233.26 70.4225 233.646 69.2258 233.658 67.997C233.62 66.8936 233.267 65.8234 232.641 64.9099C232.015 63.9963 231.14 63.2768 230.119 62.8342C225.749 61.1324 209 67.997 208.272 68.2999C206.187 69.151 204.149 70.1138 202.17 71.1842C203.762 66.3635 206.334 61.9168 209.729 58.1183C209.731 58.0847 209.731 58.051 209.729 58.0174C215.161 55.1331 225.429 50.8066 233.804 52.6382C239.236 53.9364 244.586 55.5544 249.824 57.4838C253.917 58.9259 256.612 59.8778 258.097 59.6759C259.583 59.474 266.108 57.8299 269.152 55.6955L283.192 67.2327C275.385 69.3238 250.757 79.7505 249.693 80.212C249.523 80.2914 249.39 80.433 249.323 80.6071C249.256 80.7812 249.259 80.9743 249.333 81.146C249.406 81.3176 249.544 81.4544 249.717 81.5276C249.89 81.6009 250.085 81.6049 250.261 81.5388C250.553 81.409 279.288 69.2517 284.808 68.3432C292.775 70.7371 301.616 73.982 303.043 75.352C299.81 76.8663 275.123 81.3081 259.757 83.8463H259.787Z" fill="#727272"/>
<path d="M395.499 218.227L391.785 208.276L400.523 204.368L404.893 213.656C406.232 211.778 407.011 209.565 407.14 207.27C407.269 204.974 406.742 202.689 405.621 200.676C402.577 194.908 395.761 194.735 395.761 194.735L379.609 157.455C379.609 157.455 384.065 150.417 381.196 145.024C380.155 143.209 378.724 141.643 377.006 140.435C375.287 139.226 373.322 138.405 371.249 138.029L375.021 147.995L366.282 151.903L361.913 142.615C360.573 144.493 359.794 146.706 359.666 149.001C359.537 151.297 360.063 153.582 361.185 155.595C364.229 161.363 371.045 161.536 371.045 161.536L387.197 198.816C387.197 198.816 382.376 204.931 385.609 211.247C388.493 216.973 395.499 218.227 395.499 218.227Z" fill="#B5B5B5"/>
<path d="M395.498 218.961H395.367C395.061 218.961 387.968 217.518 384.91 211.577C381.851 205.635 385.303 200.169 386.366 198.727L370.549 162.226C368.491 162.063 366.504 161.405 364.76 160.309C363.017 159.213 361.569 157.713 360.544 155.939C359.366 153.792 358.818 151.362 358.962 148.923C359.106 146.484 359.936 144.133 361.359 142.137C361.437 142.043 361.537 141.969 361.651 141.923C361.765 141.877 361.889 141.861 362.011 141.875C362.133 141.89 362.25 141.934 362.35 142.005C362.45 142.076 362.53 142.171 362.583 142.281L366.69 150.934L374.22 147.589L370.68 138.258C370.636 138.14 370.623 138.013 370.644 137.889C370.664 137.765 370.717 137.649 370.797 137.551C370.877 137.455 370.981 137.381 371.098 137.336C371.215 137.29 371.342 137.275 371.467 137.292C373.657 137.678 375.734 138.541 377.548 139.817C379.361 141.094 380.866 142.753 381.953 144.675C384.662 149.752 381.414 155.996 380.497 157.496L396.328 194.04C398.387 194.204 400.374 194.862 402.117 195.958C403.861 197.053 405.308 198.553 406.334 200.328C407.512 202.475 408.06 204.905 407.916 207.344C407.772 209.783 406.941 212.133 405.519 214.129C405.44 214.223 405.339 214.296 405.224 214.341C405.11 214.386 404.986 214.403 404.863 214.389C404.742 214.374 404.626 214.33 404.527 214.259C404.428 214.188 404.348 214.094 404.295 213.985L400.188 205.332L392.658 208.678L396.197 218.009C396.235 218.118 396.245 218.234 396.227 218.348C396.21 218.462 396.165 218.57 396.096 218.664C396.028 218.757 395.938 218.832 395.834 218.884C395.73 218.936 395.615 218.962 395.498 218.961ZM361.752 144.041C360.791 145.755 360.286 147.683 360.286 149.644C360.286 151.604 360.791 153.532 361.752 155.246C364.563 160.539 370.928 160.799 370.986 160.799C371.123 160.804 371.256 160.847 371.37 160.923C371.483 161 371.572 161.107 371.627 161.231L387.779 198.511C387.83 198.628 387.849 198.756 387.834 198.883C387.818 199.01 387.769 199.13 387.692 199.232C387.692 199.232 383.206 205.073 386.235 210.899C388.01 213.957 390.921 216.208 394.348 217.172L391.071 208.519C391.006 208.349 391.009 208.16 391.079 207.991C391.15 207.823 391.282 207.687 391.449 207.611L400.188 203.703C400.362 203.624 400.56 203.616 400.74 203.68C400.92 203.745 401.067 203.877 401.149 204.049L405.009 212.168C405.97 210.454 406.475 208.526 406.475 206.565C406.475 204.605 405.97 202.676 405.009 200.963C402.198 195.67 395.833 195.41 395.775 195.41C395.638 195.405 395.505 195.362 395.392 195.285C395.278 195.209 395.189 195.102 395.134 194.978L378.982 157.698C378.929 157.596 378.901 157.482 378.901 157.366C378.901 157.251 378.929 157.137 378.982 157.035C378.982 157.035 383.177 150.271 380.541 145.324C379.672 143.794 378.507 142.448 377.113 141.364C375.718 140.28 374.121 139.479 372.414 139.008L375.705 147.661C375.77 147.831 375.767 148.02 375.696 148.189C375.626 148.357 375.494 148.493 375.327 148.569L366.588 152.477C366.414 152.556 366.215 152.564 366.035 152.5C365.856 152.435 365.709 152.303 365.627 152.131L361.752 144.041Z" fill="#727272"/>
<path d="M384.647 166.77C384.647 166.77 379.127 175.654 376.156 172.712C373.184 169.77 381.399 161.333 381.399 161.333C381.923 160.897 382.591 160.666 383.275 160.685C383.96 160.703 384.614 160.97 385.113 161.434C386.831 163.15 384.647 166.77 384.647 166.77Z" fill="white"/>
<path d="M390.851 172.941C390.851 172.941 380.438 182.604 378.573 179.907C376.709 177.21 384.953 166.61 384.953 166.61C384.953 166.61 388.332 163.567 391.026 166.61C393.72 169.653 390.851 172.927 390.851 172.927C390.851 172.927 380.525 182.777 381.792 185.719C383.598 189.886 396.357 179.128 396.357 179.128C396.357 179.128 398.614 175.263 396.357 173.013C394.099 170.764 390.851 172.941 390.851 172.941Z" fill="white"/>
<path d="M396.08 179.188C396.08 179.188 385.317 187.841 386.045 190.423C386.919 193.552 395.25 189.197 395.978 188.418C397.333 186.976 399.692 184.092 399.546 181.337C399.587 180.919 399.509 180.497 399.321 180.12C399.133 179.743 398.843 179.426 398.483 179.202C398.124 178.979 397.708 178.86 397.284 178.857C396.859 178.855 396.443 178.969 396.08 179.188Z" fill="white"/>
<path d="M398.746 178.524C398.386 178.334 397.989 178.221 397.581 178.192C398.026 177.28 398.195 176.26 398.068 175.254C397.942 174.249 397.525 173.301 396.868 172.525C396.301 171.978 395.598 171.59 394.829 171.403C394.061 171.215 393.256 171.234 392.498 171.457C392.854 170.571 392.951 169.604 392.779 168.665C392.606 167.727 392.171 166.856 391.522 166.15C391.146 165.688 390.678 165.307 390.147 165.032C389.616 164.756 389.033 164.592 388.435 164.55C387.647 164.512 386.862 164.665 386.148 164.997C386.431 164.332 386.526 163.604 386.423 162.891C386.321 162.177 386.024 161.504 385.566 160.944C384.934 160.334 384.091 159.985 383.209 159.969C382.327 159.953 381.471 160.271 380.818 160.858C379.929 161.781 372.21 169.9 375.589 173.246C375.836 173.5 376.132 173.703 376.46 173.842C376.788 173.981 377.14 174.053 377.497 174.053H377.832C378.421 173.966 378.986 173.759 379.492 173.448C378.036 176.202 376.958 178.971 377.919 180.37C378.072 180.591 378.273 180.776 378.508 180.911C378.742 181.046 379.004 181.127 379.274 181.149C381.009 181.016 382.664 180.367 384.022 179.288C381.983 181.899 380.424 184.567 381.109 186.066C381.246 186.397 381.462 186.689 381.738 186.917C382.015 187.146 382.344 187.304 382.696 187.379C382.924 187.404 383.153 187.404 383.381 187.379C384.877 187.242 386.325 186.779 387.619 186.023C386.061 187.826 385.027 189.513 385.318 190.595C385.424 190.984 385.639 191.335 385.938 191.608C386.237 191.881 386.607 192.065 387.007 192.138C387.313 192.207 387.626 192.241 387.94 192.239C391.056 192.239 395.906 189.513 396.489 188.879C398.295 186.932 400.407 184.033 400.247 181.278C400.254 180.731 400.12 180.19 399.858 179.708C399.595 179.226 399.213 178.819 398.746 178.524ZM377.715 172.582C377.523 172.609 377.327 172.589 377.144 172.523C376.961 172.458 376.797 172.35 376.667 172.207C374.875 170.433 378.939 164.91 381.852 161.91C382.27 161.589 382.779 161.408 383.308 161.391C383.555 161.394 383.798 161.446 384.024 161.545C384.249 161.644 384.452 161.788 384.619 161.968C385.697 163.035 384.619 165.53 384.036 166.41C383.046 168.025 379.885 172.323 377.715 172.568V172.582ZM379.478 179.663C379.418 179.663 379.358 179.648 379.305 179.62C379.252 179.593 379.206 179.553 379.172 179.505C378.21 178.062 381.721 171.962 385.434 167.145C386.224 166.475 387.208 166.071 388.245 165.992H388.42C388.824 166.024 389.216 166.14 389.572 166.331C389.929 166.522 390.24 166.785 390.488 167.102C391.102 167.863 391.425 168.813 391.401 169.787C391.377 170.76 391.008 171.694 390.357 172.424C387.211 175.337 381.502 179.923 379.492 179.649L379.478 179.663ZM383.031 185.937C382.901 185.915 382.778 185.859 382.676 185.776C382.574 185.692 382.495 185.584 382.449 185.461C381.793 183.946 386.439 178.178 391.187 173.577C391.552 173.361 394.1 171.933 395.732 173.577C397.363 175.221 396.168 177.702 395.732 178.538H395.6L395.484 178.61C394.799 179.158 393.707 180.053 392.484 181.134C389.046 183.773 384.808 186.326 383.046 185.922L383.031 185.937ZM395.426 187.927C394.872 188.475 389.498 191.316 387.328 190.811C387.188 190.793 387.056 190.734 386.95 190.641C386.843 190.549 386.767 190.427 386.731 190.292C386.439 189.268 389.644 185.749 393.576 182.302C395.222 181.077 396.489 180.038 396.824 179.75C397.218 179.639 397.639 179.68 398.004 179.865C398.258 180.047 398.464 180.288 398.601 180.567C398.738 180.847 398.803 181.155 398.79 181.466C398.95 183.759 396.751 186.499 395.44 187.927H395.426Z" fill="#727272"/>
<path d="M366.616 176.087C367.173 174.277 367.323 172.368 367.056 170.495C366.79 168.622 366.113 166.829 365.073 165.242C361.519 159.834 368.422 157.223 371.161 161.189C373.899 165.155 374.7 175.74 374.7 175.74" fill="white"/>
<path d="M366.617 176.809C366.5 176.809 366.385 176.781 366.281 176.727C366.178 176.674 366.088 176.596 366.021 176.502C365.954 176.407 365.911 176.298 365.896 176.183C365.88 176.068 365.893 175.951 365.933 175.842C366.442 174.139 366.575 172.347 366.324 170.588C366.072 168.829 365.442 167.143 364.476 165.646C362.466 162.575 363.515 160.31 365.044 159.301C366.135 158.618 367.453 158.387 368.714 158.657C369.975 158.926 371.079 159.676 371.788 160.743C374.598 164.824 375.429 175.165 375.458 175.655C375.465 175.75 375.454 175.845 375.425 175.935C375.395 176.026 375.348 176.109 375.286 176.182C375.16 176.328 374.981 176.418 374.788 176.434C374.595 176.449 374.403 176.388 374.256 176.263C374.108 176.139 374.017 175.962 374.001 175.77C374.001 175.669 373.186 165.329 370.579 161.565C370.083 160.816 369.314 160.284 368.433 160.08C367.552 159.876 366.625 160.015 365.845 160.469C364.534 161.334 364.476 162.964 365.7 164.796C366.813 166.481 367.536 168.39 367.815 170.385C368.095 172.379 367.924 174.411 367.316 176.333C367.265 176.474 367.169 176.597 367.044 176.682C366.919 176.767 366.769 176.812 366.617 176.809Z" fill="#727272"/>
<path d="M284.881 212.861C284.993 212.49 285.029 212.1 284.986 211.715C284.943 211.33 284.822 210.957 284.63 210.619C284.439 210.281 284.18 209.985 283.87 209.748C283.56 209.512 283.206 209.339 282.827 209.241C282.064 209.019 281.244 209.102 280.542 209.471C279.839 209.84 279.311 210.467 279.069 211.217C278.95 211.589 278.907 211.981 278.945 212.37C278.983 212.758 279.1 213.135 279.289 213.478C279.479 213.82 279.736 214.121 280.046 214.362C280.356 214.603 280.713 214.779 281.094 214.88C281.866 215.109 282.699 215.025 283.409 214.646C284.119 214.268 284.648 213.626 284.881 212.861Z" fill="url(#paint0_linear_299_62159)"/>
<path d="M289.687 211.793C289.288 211.788 288.897 211.903 288.566 212.125C288.224 212.338 287.963 212.658 287.823 213.033L281.997 227.152L276.172 213.062C276.039 212.683 275.783 212.358 275.443 212.139C275.116 211.933 274.739 211.819 274.351 211.808C274.077 211.798 273.804 211.848 273.552 211.955C273.301 212.063 273.076 212.224 272.895 212.428C272.555 212.783 272.363 213.251 272.356 213.74C272.351 213.977 272.396 214.213 272.487 214.432L280.191 233.022C280.383 233.337 280.629 233.615 280.92 233.844C281.242 234.085 281.637 234.212 282.041 234.204C282.433 234.195 282.814 234.069 283.133 233.844C283.447 233.624 283.702 233.332 283.876 232.993C284.488 231.551 286.076 227.7 287.678 223.85C289.28 219.999 290.969 215.975 291.552 214.447C291.643 214.217 291.688 213.972 291.683 213.726C291.664 213.212 291.447 212.724 291.075 212.365C290.704 212.005 290.207 211.8 289.687 211.793Z" fill="url(#paint1_linear_299_62159)"/>
<path d="M281.982 202.262C279.383 202.232 276.878 203.222 275.016 205.017C273.154 206.812 272.087 209.265 272.049 211.838C272.055 212.605 272.143 213.369 272.311 214.117L272.398 214.405C272.318 214.189 272.284 213.958 272.296 213.728C272.303 213.239 272.496 212.77 272.835 212.415C273.016 212.211 273.241 212.05 273.493 211.943C273.745 211.835 274.018 211.785 274.292 211.795C274.691 211.793 275.08 211.915 275.406 212.142C275.733 212.369 275.979 212.692 276.112 213.064L276.2 213.266C276.096 212.79 276.023 212.309 275.981 211.824C275.963 210.988 276.125 210.157 276.456 209.387C276.786 208.617 277.278 207.925 277.898 207.358C278.519 206.79 279.254 206.359 280.055 206.093C280.856 205.827 281.705 205.733 282.546 205.816C283.386 205.9 284.199 206.159 284.932 206.576C285.664 206.994 286.298 207.56 286.793 208.238C287.287 208.917 287.631 209.691 287.801 210.51C287.971 211.33 287.963 212.176 287.778 212.992C287.927 212.629 288.187 212.322 288.521 212.112C288.857 211.902 289.245 211.787 289.643 211.781C289.917 211.765 290.192 211.813 290.445 211.921C290.697 212.029 290.921 212.193 291.099 212.401C291.423 212.746 291.605 213.199 291.609 213.67C291.609 213.904 291.575 214.137 291.507 214.362L291.594 214.074C291.776 213.328 291.864 212.562 291.857 211.795C291.822 209.235 290.763 206.793 288.911 205.006C287.06 203.218 284.567 202.232 281.982 202.262Z" fill="url(#paint2_linear_299_62159)"/>
</g>
<defs>
<linearGradient id="paint0_linear_299_62159" x1="278.793" y1="214.087" x2="285.482" y2="209.686" gradientUnits="userSpaceOnUse">
<stop stop-color="#FF6A8F"/>
<stop offset="0.49" stop-color="#FF6276"/>
<stop offset="1" stop-color="#F53838"/>
</linearGradient>
<linearGradient id="paint1_linear_299_62159" x1="273.244" y1="213.12" x2="295.287" y2="230.68" gradientUnits="userSpaceOnUse">
<stop stop-color="#89E9FF"/>
<stop offset="0.49" stop-color="#27D8FF"/>
<stop offset="1" stop-color="#05BFE8"/>
</linearGradient>
<linearGradient id="paint2_linear_299_62159" x1="5398.59" y1="-68744.2" x2="5473.93" y2="-68919" gradientUnits="userSpaceOnUse">
<stop stop-color="#FF6A8F"/>
<stop offset="0.49" stop-color="#FF6276"/>
<stop offset="1" stop-color="#F53838"/>
</linearGradient>
<clipPath id="clip0_299_62159">
<rect width="418" height="349" fill="white"/>
</clipPath>
</defs>
</svg>
