<svg width="377" height="304" viewBox="0 0 377 304" fill="none" xmlns="http://www.w3.org/2000/svg">
<path d="M298.167 270.297C296.366 269.326 252.822 246.589 142.491 258.464C127.074 260.122 115.501 262.011 108.087 264.059C104.138 265.114 94.8922 267.711 95.5662 274.298C96.0085 278.668 100.452 281.687 110.878 284.61C120.163 287.058 129.592 288.916 139.111 290.173C162.015 293.467 177.243 295.356 195.461 293.773C230.707 290.722 253.759 291.662 263.173 293.414C256.054 295.06 241.964 295.652 228.475 294.849C227.921 294.824 227.369 294.909 226.848 295.098C226.328 295.287 225.849 295.577 225.44 295.952C225.032 296.326 224.701 296.777 224.466 297.28C224.231 297.783 224.098 298.327 224.073 298.882C224.048 299.436 224.132 299.99 224.321 300.512C224.509 301.034 224.799 301.513 225.172 301.923C225.546 302.332 225.996 302.664 226.498 302.9C226.999 303.135 227.542 303.269 228.095 303.294C231.118 303.473 235.846 303.684 241.259 303.684C253.232 303.684 268.565 302.629 273.599 297.573C274.55 296.732 275.206 295.608 275.472 294.365C275.737 293.122 275.597 291.826 275.073 290.669C274.02 288.505 272.156 284.473 247.841 283.418C230.087 282.887 212.317 283.539 194.65 285.37C185.004 286.31 163.279 284.969 143.049 282.204C122.82 279.438 110.709 276.25 105.781 273.97C105.744 273.957 105.712 273.933 105.689 273.901C105.666 273.869 105.654 273.83 105.654 273.791C105.654 273.752 105.666 273.713 105.689 273.681C105.712 273.649 105.744 273.624 105.781 273.612C109.688 272.007 119.471 269.389 143.418 266.856C199.547 260.808 237.594 264.112 259.624 267.912C283.35 272.028 294.091 277.644 294.197 277.707C295.164 278.121 296.252 278.158 297.245 277.809C298.238 277.46 299.065 276.751 299.563 275.822C300.06 274.893 300.193 273.81 299.935 272.788C299.677 271.765 299.046 270.877 298.167 270.297ZM298.946 275.522C298.549 276.261 297.876 276.811 297.074 277.053C296.273 277.294 295.408 277.207 294.671 276.81C294.565 276.757 283.771 271.078 259.782 266.909C237.668 263.067 199.536 259.763 143.281 265.853C116.175 268.767 107.182 271.733 104.222 273.242C104.136 273.311 104.064 273.398 104.012 273.495V273.569C103.999 273.628 103.999 273.69 104.012 273.749C104.065 273.917 104.152 274.072 104.268 274.205C104.384 274.337 104.526 274.444 104.686 274.519C109.161 276.873 121.324 280.314 142.923 283.259C163.279 286.035 185.098 287.376 194.818 286.426C212.437 284.601 230.157 283.953 247.862 284.484C271.535 285.539 273.388 289.445 274.188 291.134C274.613 292.095 274.719 293.166 274.492 294.192C274.264 295.218 273.715 296.144 272.925 296.834C268.144 301.626 253.106 302.629 241.333 302.629C235.951 302.629 231.244 302.418 228.232 302.249C227.489 302.219 226.779 301.933 226.222 301.439C225.666 300.944 225.297 300.272 225.178 299.536C225.113 299.072 225.15 298.6 225.289 298.153C225.427 297.706 225.663 297.295 225.979 296.95C226.273 296.62 226.633 296.355 227.036 296.174C227.439 295.992 227.875 295.897 228.317 295.894H228.485C242.47 296.718 257.118 296.053 264.11 294.279C264.315 294.235 264.498 294.121 264.629 293.958C264.76 293.795 264.831 293.592 264.831 293.382C264.831 293.173 264.76 292.969 264.629 292.806C264.498 292.643 264.315 292.53 264.11 292.485C254.633 290.543 231.592 289.582 195.492 292.707C177.39 294.279 162.215 292.4 139.374 289.118C129.902 287.865 120.518 286.014 111.278 283.576C101.337 280.758 97.1142 278.024 96.7246 274.171C96.1454 268.471 104.791 266.075 108.487 265.062C115.859 263.024 127.369 261.156 142.723 259.499C252.621 247.677 295.913 270.223 297.672 271.226C298.404 271.626 298.949 272.3 299.188 273.1C299.426 273.901 299.34 274.764 298.946 275.501V275.522Z" fill="#727272"/>
<path d="M217.428 53.6425C265.079 30.4203 355.633 35.8353 369.986 55.7537C402.684 101.143 313.742 244.635 233.466 241.531C153.19 238.428 117.723 102.24 217.428 53.6425Z" fill="#EDEDED"/>
<path d="M203.58 274.159C244.647 274.159 277.938 240.79 277.938 199.627C277.938 158.463 244.647 125.094 203.58 125.094C162.514 125.094 129.223 158.463 129.223 199.627C129.223 240.79 162.514 274.159 203.58 274.159Z" fill="#EDEDED"/>
<path d="M203.579 274.688C188.769 274.688 174.291 270.285 161.976 262.038C149.661 253.79 140.063 242.067 134.396 228.351C128.728 214.636 127.245 199.544 130.134 184.983C133.024 170.423 140.156 157.049 150.628 146.551C161.101 136.054 174.444 128.905 188.97 126.009C203.496 123.112 218.553 124.599 232.236 130.28C245.919 135.961 257.615 145.582 265.843 157.926C274.071 170.269 278.463 184.781 278.463 199.627C278.441 219.527 270.544 238.606 256.506 252.678C242.467 266.75 223.433 274.665 203.579 274.688ZM203.579 125.622C188.977 125.622 174.703 129.962 162.561 138.094C150.42 146.226 140.957 157.784 135.368 171.307C129.78 184.829 128.318 199.709 131.167 214.065C134.016 228.42 141.048 241.607 151.373 251.956C161.698 262.306 174.854 269.355 189.176 272.21C203.497 275.066 218.342 273.6 231.833 267.999C245.324 262.397 256.855 252.912 264.968 240.742C273.08 228.572 277.41 214.264 277.41 199.627C277.391 180.005 269.606 161.192 255.765 147.315C241.923 133.439 223.156 125.634 203.579 125.611V125.622Z" fill="#727272"/>
<path d="M254.844 222.373C254.844 222.373 254.739 248.498 263.595 232.559C267.723 225.17 268.639 203.89 268.639 203.89C268.639 203.89 270.64 199.499 261.057 201.927C251.474 204.355 254.844 222.373 254.844 222.373Z" fill="#B5B5B5"/>
<path d="M223.746 215.83C204.961 215.812 186.349 212.23 168.892 205.274C142.418 194.719 126.937 180.3 126.285 179.688C125.607 179.009 125.219 178.093 125.204 177.133C125.188 176.172 125.546 175.244 126.202 174.544C126.858 173.844 127.76 173.428 128.717 173.383C129.674 173.338 130.611 173.669 131.329 174.304C131.476 174.442 146.63 188.523 171.883 198.508C205.581 211.84 240.332 211.956 275.21 198.867C276.117 198.557 277.108 198.613 277.974 199.023C278.841 199.434 279.513 200.166 279.85 201.065C280.187 201.964 280.161 202.959 279.779 203.839C279.396 204.72 278.687 205.416 277.801 205.781C260.534 212.37 242.222 215.775 223.746 215.83Z" fill="#EDEDED"/>
<path d="M223.746 216.39C204.891 216.378 186.211 212.771 168.702 205.76C142.091 195.205 126.579 180.681 125.926 180.068C125.32 179.496 124.896 178.756 124.709 177.943C124.522 177.129 124.58 176.278 124.875 175.498C125.17 174.717 125.69 174.042 126.368 173.557C127.046 173.072 127.852 172.8 128.685 172.774C129.798 172.751 130.877 173.159 131.697 173.914C131.844 174.052 146.903 188.059 172.082 198.013C205.665 211.292 240.3 211.408 275.03 198.372C275.549 198.172 276.103 198.077 276.658 198.093C277.214 198.108 277.761 198.234 278.268 198.463C278.775 198.691 279.232 199.018 279.612 199.424C279.993 199.831 280.289 200.308 280.484 200.83C280.68 201.352 280.77 201.907 280.75 202.464C280.73 203.021 280.601 203.568 280.369 204.075C280.137 204.581 279.807 205.036 279.399 205.415C278.99 205.793 278.512 206.086 277.99 206.278C260.662 212.889 242.286 216.314 223.746 216.39ZM128.811 173.83H128.717C128.09 173.843 127.481 174.042 126.967 174.403C126.454 174.763 126.059 175.269 125.833 175.855C125.607 176.442 125.56 177.082 125.699 177.695C125.837 178.308 126.155 178.866 126.61 179.298C127.253 179.899 142.628 194.265 169.049 204.768C186.434 211.73 204.982 215.312 223.704 215.324C242.114 215.249 260.361 211.848 277.568 205.286C278.353 204.99 278.989 204.394 279.335 203.629C279.682 202.864 279.711 201.992 279.416 201.206C279.122 200.419 278.527 199.782 277.764 199.435C277.001 199.087 276.131 199.058 275.346 199.353C240.363 212.484 205.475 212.368 171.65 198.994C146.292 188.967 131.086 174.822 130.928 174.717C130.363 174.154 129.607 173.826 128.811 173.798V173.83Z" fill="#727272"/>
<path d="M178.064 207.205C178.064 207.205 175.706 193.377 176.495 192.353C179.844 187.994 188.89 176.52 191.607 176.414C204.455 175.781 233.73 174.884 238.427 185.038C244.355 197.842 237.774 169.205 237.774 169.205C237.774 169.205 207.803 163.083 197.978 164.888C194.608 165.51 180.213 173.554 176.769 178.04C172.915 183.054 170.514 195.615 172.094 202.318C172.426 203.671 173.188 204.879 174.265 205.761C175.342 206.642 176.675 207.149 178.064 207.205Z" fill="#B5B5B5"/>
<path d="M160.436 175.762C164.849 174.97 187.426 169.154 171.02 161.248C163.364 157.564 140.354 164.351 140.354 164.351C140.354 164.351 132.846 159.38 135.847 168.827C138.848 178.274 154.149 176.891 160.436 175.762Z" fill="#B5B5B5"/>
<path d="M265.375 240.498H265.091C212.637 236.476 179.076 218.225 160.152 203.617C139.459 187.646 131.351 172.678 131.014 172.045C130.586 171.184 130.51 170.191 130.801 169.275C131.093 168.359 131.729 167.593 132.574 167.14C133.42 166.686 134.409 166.581 135.331 166.847C136.252 167.112 137.034 167.727 137.511 168.562C137.585 168.699 145.409 183.012 164.996 198.033C183.099 211.913 215.249 229.256 265.649 233.13C266.58 233.226 267.439 233.674 268.052 234.382C268.666 235.09 268.988 236.005 268.953 236.942C268.918 237.879 268.529 238.768 267.865 239.428C267.2 240.089 266.31 240.471 265.375 240.498Z" fill="white"/>
<path d="M265.374 241.025H265.047C212.467 236.993 178.811 218.69 159.824 204.081C139.005 187.984 130.886 172.921 130.58 172.288C130.101 171.305 130.021 170.175 130.356 169.135C130.692 168.095 131.417 167.225 132.378 166.71C133.34 166.194 134.464 166.073 135.513 166.371C136.562 166.669 137.456 167.363 138.004 168.308C138.078 168.445 145.86 182.664 165.384 197.61C183.424 211.438 215.49 228.739 265.753 232.591C266.865 232.678 267.898 233.203 268.625 234.052C269.352 234.901 269.712 236.004 269.628 237.12C269.548 238.191 269.063 239.192 268.273 239.917C267.482 240.643 266.445 241.039 265.374 241.025ZM134.256 167.136C133.711 167.138 133.176 167.28 132.702 167.55C132.229 167.82 131.833 168.208 131.553 168.677C131.274 169.145 131.119 169.678 131.106 170.224C131.092 170.769 131.219 171.31 131.475 171.791C131.812 172.414 139.9 187.287 160.477 203.194C179.338 217.75 212.815 235.916 265.131 239.959C265.754 240.007 266.377 239.869 266.921 239.562C267.465 239.256 267.906 238.794 268.189 238.236C268.472 237.678 268.584 237.049 268.51 236.428C268.436 235.806 268.18 235.221 267.775 234.745C267.235 234.134 266.48 233.756 265.668 233.689C215.121 229.815 182.897 212.409 164.742 198.486C145.007 183.36 137.183 168.994 137.109 168.846C136.839 168.324 136.429 167.887 135.925 167.585C135.421 167.283 134.843 167.127 134.256 167.136Z" fill="#727272"/>
<path d="M201.664 215.829C142.471 215.829 125.516 188.385 124.79 187.192C124.343 186.355 124.234 185.378 124.487 184.463C124.74 183.548 125.334 182.766 126.147 182.279C126.96 181.791 127.928 181.636 128.852 181.845C129.776 182.055 130.584 182.612 131.108 183.403C131.361 183.814 149.526 212.051 214.08 208.05C249.884 205.833 264.08 192.481 269.682 181.661C274.242 172.858 273.325 165.448 272.578 163.717C271.839 163.176 271.327 162.378 271.142 161.48C270.957 160.581 271.113 159.646 271.578 158.856C272.043 158.066 272.784 157.478 273.658 157.206C274.532 156.933 275.476 156.997 276.306 157.383C280.518 159.188 281.192 167.137 280.055 173.755C278.085 185.176 267.755 212.093 214.532 215.397C210.032 215.692 205.743 215.836 201.664 215.829Z" fill="white"/>
<path d="M201.663 216.389C142.123 216.389 125.021 188.67 124.326 187.488C123.753 186.526 123.585 185.376 123.859 184.29C124.132 183.204 124.825 182.272 125.784 181.698C126.744 181.124 127.891 180.956 128.974 181.23C130.058 181.504 130.988 182.198 131.56 183.16C131.729 183.434 149.884 211.523 214.047 207.554C249.61 205.348 263.679 192.143 269.218 181.45C273.778 172.657 272.714 165.617 272.145 164.065C271.59 163.594 271.166 162.988 270.914 162.304C270.662 161.62 270.59 160.883 270.707 160.163C270.824 159.444 271.124 158.767 271.579 158.198C272.034 157.63 272.628 157.189 273.304 156.919C274.336 156.491 275.495 156.491 276.526 156.919C280.991 158.829 281.792 167.052 280.581 173.871C278.59 185.419 268.165 212.631 214.574 215.945C210.172 216.22 205.834 216.389 201.663 216.389ZM127.948 182.168C127.392 182.17 126.845 182.319 126.365 182.601C125.884 182.882 125.486 183.286 125.212 183.772C124.937 184.257 124.795 184.807 124.8 185.365C124.806 185.923 124.958 186.469 125.242 186.949C125.926 188.11 142.723 215.333 201.674 215.333C205.823 215.333 210.098 215.196 214.5 214.921C267.343 211.649 277.59 185.018 279.538 173.755C280.686 167.126 279.865 159.568 276.105 157.922C275.723 157.758 275.313 157.671 274.898 157.666C274.483 157.661 274.071 157.738 273.686 157.893C273.3 158.048 272.949 158.278 272.652 158.569C272.356 158.86 272.119 159.207 271.956 159.589C271.682 160.23 271.626 160.943 271.797 161.619C271.968 162.294 272.357 162.895 272.904 163.326L273.009 163.41L273.062 163.537C274.009 165.722 274.578 173.396 270.155 181.946C264.49 192.882 250.147 206.382 214.121 208.62C149.336 212.631 130.855 184.015 130.676 183.719C130.398 183.238 129.999 182.838 129.518 182.56C129.038 182.282 128.493 182.136 127.938 182.136L127.948 182.168Z" fill="#727272"/>
<path d="M253.4 256.596C252.869 256.596 252.345 256.481 251.862 256.258C251.03 255.868 231.138 246.568 208.328 225.784C187.267 206.605 159.771 173.65 148.303 125.507C148.077 124.553 148.238 123.549 148.75 122.715C149.263 121.88 150.085 121.284 151.036 121.057C151.987 120.831 152.989 120.992 153.821 121.505C154.654 122.019 155.248 122.843 155.475 123.797C176.536 212.368 254.148 249.144 254.927 249.503C255.715 249.839 256.363 250.44 256.757 251.203C257.151 251.965 257.268 252.842 257.087 253.682C256.907 254.521 256.44 255.272 255.767 255.804C255.094 256.336 254.257 256.616 253.4 256.596Z" fill="white"/>
<path d="M253.402 257.121C252.794 257.12 252.194 256.987 251.643 256.731C250.801 256.34 230.834 246.988 207.972 226.172C186.911 206.951 159.289 173.901 147.821 125.662C147.683 125.12 147.655 124.556 147.737 124.003C147.819 123.45 148.01 122.918 148.299 122.44C148.588 121.961 148.969 121.545 149.419 121.215C149.87 120.885 150.382 120.648 150.924 120.518C151.467 120.388 152.03 120.367 152.581 120.457C153.132 120.547 153.659 120.746 154.133 121.042C154.606 121.338 155.016 121.725 155.339 122.181C155.662 122.637 155.891 123.153 156.014 123.699C177.012 212.017 254.392 248.687 255.171 249.046C256.054 249.443 256.775 250.133 257.21 251C257.646 251.866 257.77 252.857 257.563 253.805C257.355 254.753 256.828 255.6 256.07 256.204C255.312 256.808 254.37 257.132 253.402 257.121ZM151.928 121.525C151.449 121.523 150.976 121.63 150.545 121.838C150.113 122.046 149.735 122.349 149.437 122.725C149.14 123.102 148.932 123.541 148.829 124.009C148.726 124.478 148.73 124.964 148.842 125.43C160.247 173.405 187.679 206.275 208.678 225.402C231.424 246.112 251.243 255.401 252.085 255.781C252.498 255.973 252.947 256.074 253.402 256.076C254.125 256.08 254.827 255.836 255.392 255.383C255.956 254.93 256.349 254.298 256.504 253.59C256.66 252.882 256.568 252.142 256.245 251.494C255.922 250.846 255.387 250.328 254.729 250.028C253.949 249.669 176.106 212.777 154.992 123.963C154.829 123.271 154.438 122.653 153.882 122.211C153.326 121.769 152.637 121.527 151.928 121.525Z" fill="#727272"/>
<path d="M276.368 179.527C276.368 179.527 315.732 133.958 280.58 133.462C248.282 133.008 230.664 89.0234 255.938 89.0234C281.212 89.0234 313.131 112.182 311.298 138.635C309.982 157.635 297.271 181.912 275.083 190.937" fill="#B5B5B5"/>
<path d="M275.041 191.477C274.901 191.504 274.757 191.474 274.639 191.394C274.522 191.313 274.441 191.19 274.414 191.05C274.388 190.91 274.418 190.765 274.498 190.647C274.578 190.529 274.701 190.448 274.841 190.422C296.66 181.534 309.403 157.615 310.729 138.573C311.603 125.969 304.801 115.815 298.946 109.524C287.815 97.5645 270.513 89.5211 255.896 89.5211C248.64 89.5211 244.449 93.3845 244.407 100.129C244.312 113.123 259.455 132.609 280.559 132.904C288.12 133.01 292.911 135.206 294.796 139.438C300.494 152.179 277.758 178.726 276.789 179.845C276.698 179.951 276.569 180.017 276.43 180.028C276.29 180.039 276.153 179.994 276.047 179.903C275.94 179.812 275.875 179.683 275.864 179.543C275.853 179.403 275.898 179.265 275.989 179.159C276.22 178.884 299.261 151.999 293.838 139.871C292.132 136.05 287.657 134.066 280.548 133.96C275.498 133.831 270.524 132.701 265.911 130.636C261.299 128.571 257.14 125.611 253.674 121.927C247.261 115.329 243.312 106.969 243.354 100.119C243.354 92.73 247.977 88.5078 255.896 88.5078C270.786 88.5078 288.394 96.6778 299.714 108.838C305.717 115.287 312.678 125.727 311.783 138.689C310.445 158.058 297.461 182.399 275.241 191.467C275.176 191.483 275.108 191.487 275.041 191.477Z" fill="#727272"/>
<path d="M144.861 120.902C144.861 120.902 179.802 103.443 213.774 115.804C247.747 128.164 273.273 152.484 276.043 175.052C278.812 197.62 265.122 205.009 265.122 205.009C265.122 205.009 263.343 219.291 261.837 224.537C258.182 237.203 244.893 237.573 247.883 230.743C251.348 222.827 254.728 212.936 254.728 211.881C254.728 210.825 234.983 194.063 234.067 179.939C233.151 165.816 190.975 170.745 190.975 170.745C190.975 170.745 173.989 190.474 172.199 196.596C171.725 198.222 179.918 206.508 175.221 209.125C166.934 213.749 155.213 206.729 158.372 195.91C161.531 185.091 175.221 164.117 175.221 164.117" fill="white"/>
<path d="M250.695 235.693C250.107 235.731 249.519 235.637 248.972 235.418C248.425 235.199 247.935 234.86 247.536 234.426C247.147 233.853 246.927 233.182 246.901 232.489C246.875 231.797 247.044 231.111 247.388 230.51C250.853 222.604 254.012 213.241 254.18 211.953C253.959 211.605 252.938 210.55 251.864 209.441C246.598 203.973 234.256 191.159 233.519 179.97C233.453 179.076 233.198 178.206 232.771 177.418C232.345 176.631 231.756 175.942 231.044 175.4C222.293 168.095 193.913 170.956 191.228 171.251C189.627 173.13 174.379 191.096 172.694 196.753C173.046 197.78 173.55 198.748 174.189 199.625C175.748 202.137 177.675 205.261 177.074 207.594C176.96 208.024 176.756 208.424 176.477 208.77C176.197 209.116 175.848 209.398 175.453 209.6C173.272 210.766 170.798 211.266 168.336 211.037C165.875 210.808 163.534 209.861 161.605 208.312C159.774 206.858 158.433 204.876 157.762 202.633C157.092 200.39 157.124 197.995 157.856 195.772C161.015 185.005 174.2 164.696 174.758 163.831C174.796 163.772 174.845 163.722 174.902 163.683C174.96 163.644 175.024 163.616 175.092 163.602C175.16 163.588 175.23 163.587 175.298 163.6C175.366 163.613 175.432 163.639 175.49 163.678C175.548 163.716 175.598 163.765 175.637 163.822C175.676 163.88 175.703 163.945 175.718 164.013C175.732 164.081 175.732 164.151 175.719 164.219C175.707 164.288 175.68 164.353 175.642 164.411C175.505 164.622 161.952 185.448 158.867 196.078C158.179 198.099 158.136 200.284 158.743 202.331C159.351 204.378 160.579 206.184 162.258 207.499C164.02 208.909 166.154 209.773 168.399 209.985C170.643 210.197 172.901 209.747 174.895 208.692C175.164 208.559 175.403 208.369 175.593 208.136C175.784 207.903 175.923 207.632 176 207.341C176.495 205.451 174.61 202.411 173.241 200.195C172.041 198.252 171.419 197.197 171.63 196.479C173.431 190.325 189.817 171.241 190.522 170.428C190.608 170.328 190.728 170.264 190.859 170.248C192.133 170.101 222.199 166.691 231.676 174.618C232.494 175.249 233.17 176.045 233.662 176.954C234.154 177.863 234.449 178.865 234.53 179.896C235.236 190.705 247.388 203.319 252.58 208.702C254.865 211.077 255.202 211.447 255.202 211.869C255.202 213.062 251.727 223.132 248.315 230.943C248.052 231.368 247.912 231.857 247.912 232.357C247.912 232.857 248.052 233.347 248.315 233.772C248.936 234.553 250.316 234.827 251.916 234.511C255.076 233.877 259.414 230.837 261.278 224.388C262.763 219.237 264.532 205.082 264.553 204.945C264.563 204.861 264.594 204.78 264.641 204.711C264.689 204.641 264.753 204.583 264.827 204.543C264.964 204.47 278.169 197.028 275.484 175.115C272.746 152.8 247.283 128.67 213.563 116.299C180.213 104.118 145.419 121.197 145.114 121.366C144.991 121.417 144.853 121.42 144.729 121.373C144.604 121.327 144.501 121.236 144.441 121.117C144.381 120.998 144.369 120.86 144.405 120.732C144.442 120.604 144.526 120.495 144.64 120.426C144.987 120.247 180.181 102.967 213.964 115.307C248.041 127.752 273.789 152.251 276.569 174.977C278.011 186.831 274.852 194.442 272.041 198.78C270.384 201.398 268.186 203.63 265.596 205.325C265.343 207.341 263.732 219.775 262.321 224.673C260.33 231.576 255.602 234.848 252.159 235.545C251.677 235.642 251.186 235.692 250.695 235.693Z" fill="#727272"/>
<path d="M157.339 259.434C156.362 259.434 155.424 259.044 154.733 258.352C154.042 257.659 153.654 256.719 153.654 255.739C153.654 254.759 154.042 253.82 154.733 253.127C155.424 252.434 156.362 252.045 157.339 252.045C168.765 252.045 194.197 236.011 207.887 210.878C215.88 196.332 222.198 174.029 207.287 150.521C195.208 131.521 182.16 120.47 168.512 117.662C155.76 115.034 147.198 120.765 147.114 120.829C146.715 121.123 146.261 121.335 145.779 121.45C145.297 121.565 144.797 121.581 144.308 121.498C143.819 121.414 143.353 121.233 142.936 120.965C142.518 120.697 142.16 120.347 141.88 119.936C141.601 119.526 141.408 119.063 141.311 118.576C141.214 118.089 141.217 117.587 141.318 117.101C141.419 116.615 141.617 116.154 141.9 115.746C142.183 115.338 142.545 114.992 142.965 114.727C143.418 114.421 154.233 107.191 169.997 110.431C185.762 113.672 200.305 125.811 213.5 146.563C230.349 173.121 223.293 198.137 214.363 214.446C207.34 226.968 197.819 237.905 186.394 246.577C175.684 254.747 165.09 259.434 157.339 259.434Z" fill="white"/>
<path d="M157.34 259.962C156.223 259.962 155.151 259.517 154.361 258.725C153.571 257.933 153.128 256.859 153.128 255.74C153.128 254.62 153.571 253.546 154.361 252.754C155.151 251.962 156.223 251.517 157.34 251.517C168.639 251.517 193.776 235.589 207.435 210.625C215.333 196.185 221.64 174.092 206.834 150.807C194.819 131.944 181.908 120.956 168.408 118.222C156.045 115.667 147.746 121.072 147.399 121.304C146.475 121.894 145.359 122.101 144.286 121.88C143.213 121.659 142.269 121.027 141.652 120.12C141.036 119.212 140.796 118.1 140.985 117.019C141.173 115.937 141.774 114.972 142.66 114.327C143.123 114.01 154.086 106.663 170.103 109.957C185.899 113.218 200.642 125.452 213.943 146.321C230.971 173.09 223.82 198.307 214.827 214.742C207.768 227.312 198.205 238.293 186.731 247C175.863 255.233 165.196 259.962 157.34 259.962ZM161.847 116.406C164.122 116.408 166.391 116.642 168.618 117.103C182.414 119.942 195.566 131.078 207.729 150.195C222.809 173.913 216.396 196.407 208.361 211.09C194.524 236.423 168.903 252.531 157.34 252.531C156.502 252.531 155.698 252.864 155.106 253.458C154.513 254.052 154.181 254.857 154.181 255.697C154.181 256.537 154.513 257.343 155.106 257.936C155.698 258.53 156.502 258.864 157.34 258.864C164.964 258.864 175.453 254.22 186.099 246.123C197.459 237.489 206.923 226.602 213.9 214.14C222.757 197.958 229.802 173.132 213.058 146.796C199.947 126.17 185.425 114.073 169.882 110.907C154.339 107.74 143.692 114.812 143.25 115.129C142.904 115.363 142.608 115.663 142.378 116.013C142.148 116.362 141.989 116.753 141.909 117.163C141.83 117.574 141.832 117.996 141.916 118.406C142 118.816 142.163 119.205 142.397 119.552C142.63 119.898 142.93 120.195 143.278 120.426C143.626 120.656 144.017 120.816 144.426 120.895C144.836 120.975 145.257 120.972 145.666 120.889C146.075 120.805 146.463 120.641 146.809 120.407C151.365 117.728 156.566 116.355 161.847 116.438V116.406Z" fill="#727272"/>
<path d="M174.916 228.085C166.928 228.078 159.005 226.648 151.517 223.862C141.125 220.026 131.7 213.951 123.905 206.066C123.246 205.342 122.901 204.385 122.945 203.407C122.99 202.428 123.42 201.507 124.142 200.846C124.864 200.185 125.818 199.839 126.795 199.884C127.772 199.928 128.691 200.36 129.35 201.083C136.442 208.14 144.969 213.58 154.35 217.033C174.79 224.506 195.662 220.822 216.376 206.097C240.596 188.881 253.77 171.443 254.444 155.684C254.624 151.415 253.882 147.156 252.268 143.201C250.654 139.246 248.206 135.687 245.093 132.768C244.352 132.137 243.889 131.238 243.807 130.266C243.724 129.295 244.028 128.33 244.652 127.582C245.275 126.835 246.169 126.364 247.137 126.274C248.105 126.183 249.07 126.48 249.821 127.1C253.775 130.736 256.895 135.189 258.966 140.151C261.037 145.113 262.009 150.467 261.816 155.842C261.1 174.272 247.241 193.209 220.64 212.125C203.718 224.137 188.111 228.085 174.916 228.085Z" fill="#EDEDED"/>
<path d="M174.916 228.61C166.869 228.617 158.885 227.187 151.338 224.388C140.864 220.522 131.366 214.396 123.516 206.444C123.131 206.036 122.832 205.556 122.635 205.031C122.438 204.506 122.347 203.948 122.368 203.387C122.389 202.827 122.521 202.276 122.756 201.768C122.992 201.259 123.326 200.802 123.739 200.425C124.152 200.047 124.637 199.755 125.164 199.567C125.691 199.379 126.25 199.298 126.808 199.328C127.367 199.359 127.914 199.501 128.417 199.746C128.92 199.991 129.37 200.333 129.739 200.754C136.788 207.741 145.243 213.139 154.539 216.588C174.811 223.977 195.514 220.335 216.081 205.726C240.175 188.605 253.254 171.315 253.928 155.724C254.111 151.534 253.387 147.354 251.805 143.472C250.224 139.589 247.822 136.095 244.766 133.23C243.92 132.508 243.392 131.48 243.299 130.369C243.206 129.259 243.555 128.156 244.269 127.302C244.983 126.448 246.005 125.912 247.113 125.811C248.22 125.709 249.322 126.05 250.179 126.76C254.194 130.449 257.362 134.966 259.466 140.002C261.569 145.037 262.558 150.469 262.363 155.925C261.637 174.524 247.704 193.598 220.967 212.619C205.961 223.28 190.428 228.684 174.948 228.684L174.916 228.61ZM126.622 200.385C126.015 200.39 125.422 200.571 124.914 200.905C124.406 201.24 124.006 201.714 123.76 202.271C123.514 202.828 123.434 203.444 123.529 204.046C123.624 204.647 123.89 205.209 124.295 205.663C132.022 213.487 141.369 219.515 151.675 223.322C159.087 226.094 166.931 227.524 174.842 227.544C190.154 227.544 205.434 222.203 220.261 211.711C246.725 192.901 260.51 174.102 261.215 155.84C261.408 150.547 260.452 145.274 258.414 140.386C256.376 135.499 253.304 131.112 249.41 127.53C248.766 127.013 247.944 126.77 247.123 126.852C246.301 126.934 245.544 127.336 245.014 127.971C244.484 128.605 244.223 129.423 244.287 130.248C244.351 131.073 244.735 131.841 245.356 132.386C248.532 135.356 251.029 138.98 252.676 143.008C254.322 147.037 255.08 151.375 254.897 155.724C254.212 171.653 240.965 189.228 216.607 206.539C195.746 221.317 174.716 225.064 154.097 217.538C144.628 214.073 136.025 208.584 128.886 201.451C128.609 201.139 128.272 200.885 127.896 200.704C127.52 200.522 127.112 200.418 126.696 200.395H126.548L126.622 200.385Z" fill="#727272"/>
<path d="M190.89 236.35C187.678 236.35 184.572 236.224 181.623 236.013C163.589 234.739 145.954 230.085 129.633 222.29C128.803 221.817 128.189 221.04 127.919 220.122C127.65 219.203 127.746 218.216 128.189 217.368C128.631 216.52 129.384 215.877 130.29 215.574C131.196 215.272 132.183 215.333 133.045 215.746C148.568 223.064 165.303 227.455 182.413 228.698C219.649 231.315 250.947 217.773 275.42 188.47C276.071 187.825 276.938 187.446 277.852 187.406C278.766 187.366 279.663 187.668 280.367 188.254C281.071 188.84 281.532 189.668 281.661 190.576C281.79 191.484 281.578 192.408 281.065 193.168C252.031 228.001 217.459 236.35 190.89 236.35Z" fill="white"/>
<path d="M190.89 236.878C187.826 236.878 184.688 236.762 181.592 236.541C163.482 235.253 145.774 230.566 129.391 222.723C128.901 222.466 128.466 222.115 128.111 221.689C127.756 221.264 127.488 220.772 127.323 220.243C127.158 219.714 127.098 219.157 127.148 218.604C127.197 218.052 127.355 217.515 127.611 217.023C127.868 216.532 128.218 216.096 128.643 215.74C129.067 215.385 129.558 215.117 130.086 214.951C130.614 214.785 131.169 214.726 131.72 214.775C132.271 214.825 132.807 214.982 133.298 215.24C148.758 222.518 165.42 226.89 182.455 228.138C219.523 230.756 250.663 217.277 275.02 188.101C275.375 187.676 275.81 187.324 276.3 187.067C276.79 186.81 277.326 186.652 277.877 186.603C278.428 186.553 278.983 186.613 279.511 186.779C280.039 186.944 280.53 187.213 280.954 187.568C281.379 187.924 281.729 188.36 281.986 188.851C282.242 189.342 282.4 189.879 282.449 190.432C282.498 190.984 282.439 191.541 282.274 192.07C282.108 192.599 281.841 193.091 281.486 193.516C251.547 229.352 215.701 236.878 190.89 236.878ZM131.349 215.767C130.642 215.767 129.955 216.004 129.398 216.441C128.842 216.878 128.447 217.49 128.278 218.179C128.11 218.867 128.176 219.593 128.468 220.239C128.759 220.885 129.259 221.414 129.886 221.742C146.136 229.527 163.7 234.182 181.665 235.464C184.74 235.686 187.847 235.802 190.89 235.802C215.479 235.802 251.01 228.35 280.675 192.82C281.191 192.173 281.434 191.35 281.352 190.526C281.27 189.703 280.869 188.944 280.236 188.413C279.603 187.881 278.787 187.62 277.964 187.684C277.14 187.748 276.375 188.133 275.831 188.756C251.242 218.206 219.808 231.801 182.392 229.173C165.21 227.913 148.405 223.501 132.813 216.158C132.357 215.924 131.851 215.804 131.339 215.81L131.349 215.767Z" fill="#727272"/>
<path d="M201.727 224.833C193.542 224.814 185.378 224.004 177.348 222.416C159.685 218.946 142.779 212.351 127.422 202.941C126.605 202.402 126.035 201.56 125.838 200.6C125.64 199.64 125.831 198.641 126.369 197.822C126.907 197.003 127.747 196.432 128.705 196.234C129.662 196.036 130.659 196.227 131.476 196.766C146.133 205.639 162.224 211.876 179.023 215.196C215.406 222.258 247.167 213.191 273.399 188.258C274.115 187.624 275.049 187.293 276.004 187.336C276.958 187.378 277.859 187.791 278.516 188.486C279.173 189.182 279.535 190.106 279.525 191.064C279.516 192.022 279.135 192.939 278.464 193.621C252.969 217.824 225.252 224.833 201.727 224.833Z" fill="white"/>
<path d="M201.727 225.351C193.507 225.331 185.308 224.518 177.243 222.923C159.499 219.448 142.514 212.832 127.085 203.385C126.173 202.76 125.541 201.801 125.328 200.715C125.114 199.628 125.335 198.5 125.943 197.575C126.55 196.65 127.497 196.002 128.577 195.77C129.658 195.537 130.786 195.74 131.719 196.334C146.325 205.176 162.363 211.385 179.107 214.679C215.312 221.709 246.914 212.684 273.02 187.879C273.832 187.11 274.915 186.696 276.032 186.728C276.864 186.752 277.67 187.022 278.349 187.505C279.028 187.987 279.549 188.661 279.847 189.44C280.144 190.219 280.205 191.069 280.02 191.883C279.836 192.697 279.416 193.437 278.812 194.012C256.95 214.806 230.981 225.351 201.727 225.351ZM129.413 196.693C128.734 196.692 128.073 196.911 127.528 197.317C126.983 197.722 126.582 198.293 126.386 198.944C126.19 199.596 126.209 200.293 126.439 200.933C126.669 201.573 127.099 202.122 127.664 202.498C142.977 211.871 159.834 218.434 177.443 221.878C185.442 223.46 193.574 224.266 201.727 224.285C230.708 224.285 256.403 213.835 278.085 193.231C278.541 192.799 278.859 192.241 278.997 191.628C279.135 191.015 279.089 190.375 278.863 189.788C278.637 189.202 278.242 188.696 277.729 188.335C277.215 187.975 276.606 187.775 275.979 187.763C275.563 187.746 275.148 187.814 274.759 187.963C274.369 188.111 274.014 188.338 273.715 188.628C247.388 213.677 215.438 222.797 178.875 215.703C162.001 212.377 145.838 206.115 131.119 197.199C130.61 196.87 130.018 196.694 129.413 196.693Z" fill="#727272"/>
<path d="M148.546 251.315C147.569 251.331 146.625 250.958 145.922 250.277C145.219 249.596 144.814 248.663 144.797 247.683C144.781 246.704 145.153 245.757 145.832 245.053C146.512 244.348 147.442 243.942 148.42 243.926C191.291 242.437 223.441 226.361 243.965 196.162C253.175 182.669 259.344 167.328 262.047 151.206C262.16 150.226 262.656 149.331 263.428 148.719C264.199 148.106 265.181 147.825 266.159 147.939C267.136 148.052 268.029 148.55 268.64 149.323C269.251 150.096 269.531 151.081 269.418 152.061C269.302 153.042 266.427 176.338 250.115 200.321C235.046 222.487 205.223 249.351 148.736 251.315H148.61H148.546Z" fill="white"/>
<path d="M148.546 251.847C147.993 251.857 147.444 251.757 146.929 251.554C146.414 251.351 145.944 251.048 145.546 250.663C144.743 249.885 144.28 248.819 144.26 247.699C144.241 246.579 144.666 245.497 145.442 244.692C146.218 243.886 147.282 243.422 148.399 243.403C191.091 241.925 223.093 225.923 243.523 195.903C252.688 182.481 258.826 167.219 261.51 151.179C261.574 150.628 261.746 150.095 262.016 149.611C262.285 149.126 262.648 148.7 263.082 148.356C263.516 148.012 264.014 147.757 264.546 147.605C265.078 147.454 265.635 147.409 266.185 147.474C266.735 147.538 267.267 147.711 267.75 147.981C268.233 148.252 268.658 148.615 269.002 149.05C269.345 149.485 269.599 149.984 269.75 150.518C269.901 151.051 269.946 151.61 269.881 152.161C269.766 153.142 266.859 176.576 250.484 200.653C235.341 222.936 205.391 249.905 148.683 251.879H148.536L148.546 251.847ZM265.711 148.466C264.934 148.461 264.181 148.743 263.598 149.259C263.015 149.776 262.643 150.489 262.552 151.263C259.848 167.474 253.648 182.899 244.387 196.462C223.757 226.82 191.47 242.97 148.431 244.458C147.593 244.472 146.795 244.819 146.212 245.423C145.629 246.027 145.31 246.838 145.324 247.678C145.338 248.518 145.684 249.318 146.287 249.902C146.889 250.485 147.698 250.806 148.536 250.792H148.652C204.907 248.839 234.604 222.112 249.61 200.03C265.838 176.153 268.713 152.984 268.828 152.002C268.877 151.589 268.844 151.171 268.731 150.77C268.618 150.37 268.427 149.996 268.17 149.67C267.913 149.343 267.594 149.071 267.232 148.868C266.87 148.665 266.471 148.536 266.059 148.487L265.711 148.466Z" fill="#727272"/>
<path d="M160.067 235.506C144.608 235.506 134.793 232.592 134.204 232.423C133.31 232.109 132.571 231.462 132.141 230.616C131.71 229.77 131.621 228.79 131.892 227.881C132.163 226.971 132.773 226.2 133.596 225.729C134.418 225.258 135.39 225.123 136.31 225.351C136.489 225.404 154.781 230.756 180.402 226.407C204.012 222.364 238.9 208.958 271.103 168.056C271.403 167.674 271.775 167.356 272.198 167.119C272.621 166.882 273.086 166.731 273.567 166.674C274.048 166.617 274.536 166.656 275.002 166.788C275.468 166.92 275.904 167.143 276.284 167.443C276.664 167.744 276.982 168.117 277.218 168.541C277.455 168.965 277.606 169.431 277.663 169.913C277.719 170.395 277.681 170.884 277.549 171.351C277.417 171.819 277.195 172.255 276.895 172.637C243.123 215.545 206.244 229.563 181.244 233.764C174.245 234.93 167.162 235.513 160.067 235.506Z" fill="white"/>
<path d="M160.067 236.031C144.481 236.031 134.466 233.054 134.045 232.928C132.976 232.604 132.078 231.868 131.55 230.881C131.021 229.895 130.906 228.738 131.228 227.666C131.551 226.593 132.285 225.694 133.27 225.164C134.254 224.635 135.408 224.519 136.478 224.842C136.657 224.895 154.728 230.236 180.328 225.845C203.843 221.813 238.605 208.46 270.702 167.684C271.401 166.805 272.419 166.24 273.533 166.113C274.646 165.986 275.765 166.308 276.642 167.008C277.519 167.708 278.082 168.728 278.209 169.845C278.335 170.961 278.014 172.082 277.316 172.961C243.438 216.007 206.423 230.067 181.339 234.279C174.308 235.451 167.193 236.037 160.067 236.031ZM135.267 225.718C134.51 225.719 133.778 225.992 133.205 226.488C132.633 226.984 132.256 227.67 132.145 228.421C132.034 229.171 132.196 229.937 132.601 230.578C133.005 231.219 133.626 231.693 134.351 231.914C134.761 232.041 144.639 234.975 160.067 234.975C167.124 234.964 174.169 234.367 181.128 233.191C206.023 228.969 242.775 215.036 276.452 172.254C276.709 171.928 276.9 171.554 277.013 171.154C277.126 170.753 277.159 170.335 277.111 169.921C277.062 169.508 276.933 169.109 276.731 168.746C276.528 168.383 276.257 168.063 275.931 167.805C275.605 167.547 275.232 167.356 274.833 167.243C274.433 167.13 274.016 167.096 273.604 167.145C273.191 167.193 272.793 167.323 272.431 167.526C272.068 167.729 271.749 168.001 271.492 168.328C239.195 209.357 204.169 222.815 180.475 226.869C154.875 231.249 136.32 225.887 136.141 225.813C135.869 225.745 135.589 225.713 135.309 225.718H135.267Z" fill="#727272"/>
<path d="M217.712 279.819C161.973 279.819 152.59 274.309 150.758 268.915C150.385 267.739 150.375 266.477 150.728 265.295C151.081 264.112 151.782 263.064 152.738 262.286C153.435 261.69 154.324 261.368 155.24 261.379C156.156 261.391 157.037 261.736 157.719 262.349C158.323 262.918 158.718 263.675 158.84 264.496C158.962 265.318 158.805 266.157 158.393 266.878C161.131 268.482 172.462 272.43 217.702 272.43C237.942 272.43 245.082 267.944 247.577 265.273C248.632 264.305 249.261 262.958 249.326 261.526C249.322 261.572 249.322 261.618 249.326 261.663C250.275 261.514 251.247 261.657 252.114 262.072C252.98 262.487 253.702 263.155 254.183 263.989C254.663 264.823 254.881 265.783 254.808 266.743C254.734 267.703 254.372 268.619 253.769 269.369L253.411 269.812C247.778 276.452 235.751 279.819 217.712 279.819Z" fill="#EDEDED"/>
<path d="M217.713 280.345C161.794 280.345 152.243 274.93 150.316 269.082C149.904 267.807 149.885 266.438 150.26 265.152C150.636 263.866 151.389 262.723 152.422 261.873C153.218 261.192 154.235 260.825 155.281 260.84C156.328 260.856 157.333 261.253 158.109 261.957C158.741 262.539 159.18 263.301 159.369 264.141C159.557 264.98 159.485 265.857 159.162 266.654C162.616 268.407 174.905 271.932 217.776 271.932C237.784 271.932 244.85 267.552 247.262 264.944C248.216 264.08 248.795 262.875 248.873 261.588C248.864 261.449 248.91 261.313 249.001 261.208C249.091 261.104 249.22 261.039 249.357 261.028C249.478 261.018 249.597 261.051 249.694 261.123C250.691 261.02 251.697 261.211 252.587 261.672C253.478 262.133 254.214 262.845 254.707 263.72C255.255 264.646 255.507 265.717 255.43 266.791C255.352 267.864 254.95 268.888 254.275 269.726L253.896 270.18C248.073 276.914 235.889 280.345 217.713 280.345ZM155.244 261.904C154.472 261.917 153.728 262.197 153.138 262.696C152.262 263.405 151.62 264.363 151.295 265.444C150.97 266.525 150.977 267.678 151.316 268.755C152.369 271.922 154.886 279.31 217.765 279.31C235.667 279.31 247.525 276.007 253.085 269.483L253.433 269.061C253.974 268.39 254.298 267.57 254.36 266.709C254.422 265.848 254.22 264.989 253.78 264.248C253.397 263.558 252.824 262.992 252.13 262.618C251.435 262.244 250.649 262.077 249.863 262.137C249.616 263.465 248.974 264.686 248.02 265.641C245.493 268.375 238.195 272.967 217.755 272.967C172.62 272.967 161.057 269.029 158.182 267.34C158.063 267.27 157.976 267.155 157.94 267.021C157.905 266.886 157.924 266.743 157.993 266.623C158.347 266.004 158.482 265.284 158.377 264.58C158.272 263.875 157.932 263.226 157.414 262.738C156.829 262.182 156.05 261.878 155.244 261.894V261.904ZM157.466 268.491C157.361 268.49 157.258 268.456 157.171 268.396C157.084 268.335 157.018 268.249 156.981 268.15C156.943 268.051 156.936 267.943 156.961 267.84C156.986 267.737 157.041 267.644 157.119 267.573C157.229 267.483 157.369 267.439 157.511 267.451C157.652 267.463 157.783 267.529 157.877 267.636C157.922 267.687 157.956 267.747 157.977 267.812C157.998 267.877 158.006 267.946 158 268.014C157.994 268.082 157.975 268.148 157.943 268.208C157.911 268.268 157.867 268.321 157.814 268.364C157.717 268.446 157.593 268.491 157.466 268.491Z" fill="#727272"/>
<path d="M199.873 275.755C185.54 275.755 172.493 274.699 167.133 273.644C164.763 273.19 157.571 271.807 156.36 266.529C155.307 261.927 164.037 264.577 163.805 264.872C165.274 265.649 166.867 266.164 168.512 266.392C174.989 267.638 193.544 268.926 211.53 268.092C236.13 266.962 243.775 262.55 244.418 260.122C244.668 259.175 245.283 258.365 246.128 257.872C246.973 257.379 247.979 257.243 248.925 257.494C249.87 257.744 250.678 258.361 251.169 259.208C251.661 260.056 251.797 261.064 251.547 262.012C250.778 264.925 248.44 273.792 211.867 275.481C207.865 275.671 203.822 275.755 199.873 275.755Z" fill="#EDEDED"/>
<path d="M199.873 276.283C185.499 276.283 172.493 275.228 167.039 274.172C164.585 273.697 157.14 272.262 155.855 266.657C155.657 266.11 155.669 265.508 155.889 264.97C156.109 264.431 156.521 263.994 157.045 263.743C159.151 262.688 163.69 263.902 164.216 264.503C165.605 265.195 167.094 265.662 168.629 265.886C175.095 267.132 193.597 268.409 211.52 267.585C235.867 266.467 243.365 262.139 243.923 260.007C244.033 259.441 244.256 258.903 244.581 258.427C244.905 257.951 245.323 257.546 245.81 257.238C246.296 256.93 246.84 256.726 247.408 256.637C247.977 256.548 248.557 256.576 249.114 256.721C249.671 256.865 250.193 257.122 250.646 257.476C251.1 257.83 251.477 258.274 251.753 258.78C252.03 259.285 252.2 259.842 252.253 260.417C252.307 260.991 252.242 261.57 252.064 262.118C251.274 265.126 248.904 274.278 211.899 275.977C208.077 276.188 204.022 276.283 199.873 276.283ZM159.204 264.398C158.541 264.353 157.88 264.5 157.298 264.82C157.058 265.001 156.887 265.259 156.813 265.55C156.738 265.842 156.764 266.15 156.887 266.424C158.014 271.364 164.964 272.694 167.239 273.138C172.63 274.193 185.562 275.249 199.884 275.249C204.022 275.249 208.056 275.164 211.868 274.985C248.051 273.317 250.316 264.735 251.063 261.907C251.18 261.501 251.215 261.076 251.165 260.657C251.116 260.238 250.984 259.833 250.776 259.466C250.568 259.099 250.289 258.777 249.956 258.52C249.622 258.262 249.241 258.074 248.834 257.967C248.427 257.859 248.002 257.834 247.585 257.893C247.168 257.952 246.768 258.094 246.406 258.311C246.045 258.527 245.731 258.814 245.481 259.154C245.232 259.495 245.053 259.881 244.955 260.292C244.113 263.458 234.867 267.585 211.584 268.652C193.576 269.485 174.958 268.198 168.408 266.942C166.695 266.702 165.037 266.163 163.511 265.348C163.458 265.314 163.411 265.271 163.374 265.221C162.038 264.707 160.624 264.428 159.193 264.398H159.204Z" fill="#727272"/>
<path d="M199.821 275.882C198.972 275.885 198.148 275.595 197.488 275.061C196.828 274.526 196.373 273.779 196.198 272.947C196.023 272.114 196.141 271.247 196.53 270.491C196.92 269.736 197.558 269.138 198.336 268.799C198.42 268.799 213.511 260.798 212.542 217.953C211.542 173.746 160.815 137.266 160.31 136.897C159.591 136.307 159.121 135.466 158.994 134.543C158.867 133.621 159.092 132.684 159.624 131.921C160.157 131.158 160.957 130.624 161.865 130.427C162.773 130.23 163.722 130.384 164.522 130.859C174.431 138.233 183.528 146.644 191.66 155.949C209.667 176.459 219.419 197.834 219.871 217.784C220.324 237.734 217.544 253.43 211.605 264.292C206.908 272.894 201.822 275.322 201.253 275.565C200.802 275.766 200.315 275.874 199.821 275.882Z" fill="#EDEDED"/>
<path d="M199.82 276.408C198.854 276.407 197.917 276.073 197.167 275.463C196.418 274.852 195.9 274.002 195.701 273.054C195.503 272.107 195.635 271.12 196.076 270.258C196.517 269.397 197.24 268.713 198.124 268.323C198.24 268.259 212.962 260.015 212.014 217.973C211.024 174.093 160.508 137.75 160.003 137.339C159.11 136.685 158.509 135.705 158.331 134.611C158.152 133.516 158.41 132.396 159.049 131.491C159.688 130.586 160.656 129.969 161.745 129.773C162.834 129.578 163.956 129.819 164.868 130.446C174.811 137.841 183.941 146.277 192.101 155.61C210.192 176.215 219.986 197.706 220.439 217.783C220.892 237.859 218.09 253.608 212.109 264.554C207.328 273.305 202.084 275.806 201.505 276.06C200.973 276.291 200.399 276.409 199.82 276.408ZM162.436 130.741C161.764 130.74 161.109 130.952 160.567 131.348C160.024 131.745 159.621 132.304 159.417 132.945C159.213 133.586 159.218 134.276 159.431 134.914C159.644 135.552 160.055 136.106 160.603 136.494C161.119 136.864 212.056 173.555 213.067 217.962C214.036 260.659 199.209 268.956 198.577 269.294C197.907 269.58 197.356 270.09 197.017 270.736C196.679 271.383 196.574 272.127 196.72 272.843C196.866 273.558 197.255 274.201 197.82 274.662C198.385 275.123 199.091 275.375 199.82 275.374C200.255 275.374 200.685 275.284 201.083 275.11C201.631 274.867 206.57 272.513 211.182 264.058C217.069 253.281 219.828 237.669 219.375 217.814C218.922 197.959 209.213 176.721 191.3 156.307C183.204 147.034 174.146 138.651 164.278 131.301C163.74 130.919 163.095 130.716 162.436 130.72V130.741Z" fill="#727272"/>
<path d="M203.938 275.986C202.96 276.033 202.004 275.688 201.281 275.027C200.557 274.367 200.124 273.446 200.078 272.466C200.032 271.486 200.376 270.528 201.035 269.803C201.693 269.077 202.613 268.644 203.59 268.597C206.834 268.115 209.933 266.928 212.671 265.12C215.408 263.311 217.718 260.924 219.439 258.126C225.315 248.236 223.988 232.244 215.616 211.872C192.933 156.666 139.521 150.006 138.984 149.942C138.5 149.889 138.031 149.741 137.605 149.506C137.178 149.271 136.801 148.954 136.497 148.573C135.882 147.804 135.596 146.821 135.704 145.842C135.757 145.356 135.905 144.887 136.14 144.459C136.374 144.031 136.69 143.654 137.07 143.348C137.837 142.732 138.818 142.446 139.795 142.554C140.395 142.617 154.622 144.274 171.966 153.289C194.907 165.2 212.815 184.975 222.43 209.011C231.907 232.022 232.96 249.84 225.694 261.979C218.238 274.445 204.864 275.912 204.296 275.965L203.938 275.986Z" fill="white"/>
<path d="M203.939 276.556C203.386 276.582 202.833 276.499 202.312 276.311C201.79 276.123 201.311 275.834 200.902 275.461C200.492 275.087 200.16 274.637 199.924 274.134C199.688 273.632 199.553 273.088 199.526 272.534C199.5 271.98 199.583 271.425 199.77 270.903C199.958 270.381 200.246 269.9 200.619 269.49C200.991 269.079 201.441 268.746 201.942 268.509C202.443 268.273 202.985 268.138 203.539 268.111C206.701 267.641 209.723 266.482 212.392 264.717C215.061 262.952 217.312 260.623 218.987 257.893C224.769 248.151 223.442 232.317 215.133 212.103C192.576 157.215 139.459 150.565 138.933 150.501C138.379 150.44 137.844 150.271 137.356 150.002C136.868 149.734 136.438 149.371 136.09 148.936C135.387 148.057 135.061 146.934 135.184 145.815C135.244 145.26 135.414 144.723 135.682 144.234C135.949 143.745 136.311 143.314 136.745 142.965C137.622 142.26 138.742 141.934 139.859 142.057C140.46 142.12 154.781 143.788 172.21 152.845C195.252 164.802 213.245 184.654 222.915 208.789C232.393 232.011 233.52 249.956 226.148 262.232C218.545 274.898 204.929 276.355 204.349 276.408L203.939 276.556ZM139.396 143.123C138.558 143.077 137.736 143.366 137.111 143.927C136.486 144.488 136.109 145.275 136.063 146.115C136.017 146.955 136.306 147.779 136.865 148.406C137.425 149.032 138.211 149.41 139.048 149.456C139.585 149.52 193.313 156.212 216.102 211.734C224.526 232.265 225.843 248.425 219.882 258.463C218.117 261.326 215.75 263.767 212.945 265.616C210.14 267.465 206.965 268.677 203.644 269.167C203.229 269.206 202.826 269.327 202.458 269.523C202.09 269.719 201.763 269.985 201.498 270.307C201.232 270.629 201.033 271 200.91 271.4C200.788 271.799 200.745 272.218 200.785 272.634C200.824 273.05 200.945 273.454 201.14 273.823C201.335 274.192 201.601 274.519 201.922 274.785C202.244 275.051 202.614 275.252 203.012 275.374C203.411 275.497 203.829 275.54 204.244 275.5C204.802 275.447 217.934 274.043 225.242 261.778C232.435 249.787 231.329 232.127 221.946 209.275C212.379 185.352 194.556 165.67 171.725 153.816C154.465 144.843 140.333 143.207 139.743 143.144L139.396 143.123Z" fill="#727272"/>
<path d="M268.345 240.666C268.096 240.691 267.846 240.691 267.597 240.666C266.544 240.55 242.576 237.626 213.891 224.622C187.322 212.557 151.759 189.187 133.352 146.352C132.965 145.452 132.95 144.435 133.312 143.525C133.673 142.614 134.381 141.885 135.279 141.497C136.177 141.109 137.191 141.095 138.1 141.457C139.008 141.819 139.736 142.528 140.123 143.428C157.593 184.015 191.418 206.276 216.723 217.803C233.159 225.353 250.56 230.582 268.429 233.341C269.315 233.468 270.124 233.913 270.706 234.594C271.288 235.274 271.603 236.144 271.593 237.041C271.583 237.937 271.247 238.799 270.65 239.466C270.052 240.133 269.233 240.56 268.345 240.666Z" fill="white"/>
<path d="M268.039 241.226H267.544C266.491 241.11 242.397 238.155 213.711 225.129C187.058 213.032 151.412 189.588 132.909 146.585C132.466 145.556 132.45 144.393 132.862 143.352C133.275 142.311 134.084 141.477 135.11 141.033C136.136 140.589 137.297 140.572 138.335 140.986C139.374 141.4 140.206 142.21 140.649 143.239C158.035 183.667 191.755 205.833 216.934 217.318C233.333 224.855 250.7 230.067 268.534 232.803C269.651 232.82 270.716 233.281 271.494 234.084C272.272 234.888 272.7 235.969 272.683 237.088C272.667 238.208 272.207 239.276 271.405 240.055C270.603 240.835 269.525 241.264 268.408 241.247H268.06L268.039 241.226ZM136.763 141.719C136.24 141.72 135.725 141.851 135.265 142.1C134.805 142.35 134.413 142.71 134.126 143.148C133.839 143.587 133.665 144.09 133.62 144.612C133.575 145.135 133.66 145.66 133.867 146.142C152.233 188.828 187.658 212.114 214.133 224.137C242.681 237.099 266.649 240.023 267.66 240.139C268.498 240.237 269.34 239.997 270.002 239.473C270.664 238.948 271.09 238.182 271.188 237.342C271.286 236.502 271.047 235.658 270.523 234.994C270 234.331 269.235 233.904 268.397 233.806C250.472 231.048 233.017 225.804 216.534 218.226C191.144 206.615 157.203 184.332 139.659 143.587C139.409 143.028 139.002 142.555 138.488 142.223C137.974 141.891 137.375 141.716 136.763 141.719Z" fill="#727272"/>
<path d="M213.236 108.722C205.043 100.51 195.165 105.017 191.121 108.532C190.73 108.87 190.415 109.288 190.197 109.758C189.979 110.227 189.863 110.738 189.857 111.256C193.217 111.185 196.576 111.418 199.893 111.952C201.298 111.442 202.821 111.358 204.273 111.711C205.724 112.064 207.04 112.838 208.055 113.937C217.627 123.532 248.071 169.67 222.103 220.02C196.45 269.758 175.251 262.19 175.104 262.126C174.206 261.738 173.191 261.724 172.283 262.086C171.374 262.449 170.647 263.158 170.26 264.058C169.873 264.958 169.859 265.975 170.22 266.886C170.581 267.796 171.289 268.526 172.187 268.913C174.251 269.677 176.443 270.035 178.642 269.969C188.341 269.969 207.749 263.931 228.653 223.398C256.654 169.121 223.619 119.162 213.236 108.722Z" fill="white"/>
<path d="M178.612 270.561C176.339 270.62 174.076 270.24 171.946 269.442C171.438 269.222 170.978 268.904 170.592 268.506C170.206 268.108 169.903 267.638 169.698 267.123C169.494 266.607 169.393 266.056 169.401 265.501C169.409 264.947 169.526 264.399 169.745 263.89C169.964 263.38 170.281 262.919 170.678 262.533C171.075 262.146 171.544 261.842 172.059 261.637C172.573 261.432 173.123 261.331 173.676 261.339C174.23 261.347 174.776 261.464 175.284 261.684C175.463 261.747 196.409 268.65 221.619 219.82C247.451 169.755 217.186 123.891 207.666 114.349C206.721 113.318 205.493 112.591 204.135 112.26C202.778 111.929 201.353 112.01 200.042 112.491H199.916H199.779C196.496 111.966 193.172 111.736 189.848 111.805H189.311V111.267C189.313 110.667 189.443 110.074 189.692 109.528C189.94 108.982 190.303 108.495 190.754 108.1C194.966 104.469 205.149 99.8352 213.616 108.311C224.052 118.772 257.276 169.016 229.107 223.631C208.066 264.47 188.437 270.561 178.612 270.561ZM173.61 262.401C172.881 262.4 172.175 262.652 171.61 263.113C171.045 263.574 170.657 264.217 170.51 264.932C170.364 265.648 170.469 266.392 170.807 267.039C171.146 267.685 171.697 268.195 172.367 268.481C174.362 269.232 176.482 269.59 178.612 269.537C188.195 269.537 207.382 263.52 228.106 223.251C255.992 169.196 223.136 119.511 212.816 109.166C204.897 101.239 195.335 105.588 191.386 109.008C190.838 109.466 190.465 110.1 190.333 110.802C193.488 110.76 196.641 110.99 199.758 111.489C201.236 110.978 202.83 110.905 204.349 111.28C205.867 111.654 207.246 112.46 208.319 113.6C217.955 123.258 248.589 169.671 222.472 220.306C196.777 270.107 175.705 262.992 174.821 262.665C174.438 262.5 174.027 262.41 173.61 262.401Z" fill="#727272"/>
<path d="M165.848 118.316C165.848 118.316 135.309 119.371 122.672 129.663C110.035 139.955 129.254 142.33 129.254 142.33C129.254 142.33 125.968 173.11 152.695 173.11C179.422 173.11 184.024 149.761 183.371 141.844C182.719 133.927 188.226 114.801 183.435 114.801C178.643 114.801 165.848 118.316 165.848 118.316Z" fill="white"/>
<path d="M152.695 173.597C145.323 173.597 139.489 171.275 135.382 166.694C127.958 158.408 128.485 145.583 128.695 142.775C126.642 142.458 119.155 141.033 118.007 137.001C117.354 134.731 118.818 132.124 122.356 129.243C134.824 119.088 163.826 117.853 165.785 117.779C166.838 117.484 178.737 114.211 183.434 114.211C183.722 114.205 184.008 114.263 184.27 114.382C184.532 114.501 184.765 114.677 184.951 114.898C186.667 116.871 185.814 123.141 184.951 129.781C184.34 134.225 183.708 138.827 183.95 141.74C184.277 150.081 181.38 158.225 175.862 164.477C170.26 170.525 162.478 173.597 152.695 173.597ZM183.424 115.278C178.748 115.278 166.122 118.782 165.995 118.824H165.869C165.563 118.824 135.33 119.996 123.009 130.055C119.85 132.641 118.491 134.879 119.007 136.705C119.934 139.946 126.768 141.476 129.317 141.793C129.455 141.809 129.581 141.879 129.668 141.988C129.754 142.096 129.795 142.235 129.78 142.374C129.78 142.521 128.295 157.225 136.162 165.986C140.058 170.335 145.639 172.531 152.695 172.531C162.173 172.531 169.702 169.575 175.052 163.749C180.366 157.721 183.157 149.873 182.844 141.835C182.592 138.795 183.234 134.14 183.897 129.644C184.698 123.817 185.603 117.209 184.192 115.594C184.098 115.481 183.978 115.394 183.842 115.338C183.706 115.283 183.559 115.262 183.413 115.278H183.424Z" fill="#727272"/>
<path d="M145.325 158.134C145.209 158.135 145.096 158.098 145.003 158.029C144.911 157.959 144.844 157.861 144.812 157.749C144.781 157.637 144.788 157.518 144.831 157.41C144.874 157.303 144.951 157.212 145.051 157.153C146.234 156.464 147.579 156.102 148.947 156.102C150.316 156.102 151.66 156.464 152.844 157.153C152.962 157.227 153.047 157.345 153.078 157.482C153.11 157.619 153.086 157.762 153.012 157.881C152.938 158 152.82 158.085 152.684 158.116C152.547 158.148 152.404 158.124 152.285 158.05C151.266 157.47 150.114 157.165 148.942 157.165C147.77 157.165 146.618 157.47 145.598 158.05C145.517 158.103 145.422 158.132 145.325 158.134Z" fill="#727272"/>
<path d="M155.37 166.597C154.756 166.598 154.146 166.509 153.558 166.333C151.701 165.692 150.111 164.448 149.041 162.798C148.825 163.346 148.502 163.844 148.089 164.263C147.676 164.682 147.183 165.013 146.64 165.236C144.26 166.133 141.574 164.465 141.469 164.402C141.35 164.328 141.266 164.209 141.234 164.073C141.203 163.936 141.227 163.793 141.301 163.674C141.375 163.555 141.493 163.47 141.629 163.438C141.765 163.407 141.908 163.431 142.027 163.505C142.027 163.505 144.386 164.972 146.239 164.244C146.786 163.974 147.261 163.58 147.627 163.092C147.993 162.604 148.239 162.037 148.346 161.436C148.375 161.335 148.433 161.244 148.514 161.177C148.595 161.109 148.694 161.067 148.798 161.056C148.903 161.048 149.007 161.071 149.099 161.122C149.191 161.172 149.266 161.249 149.314 161.341C150.278 163.163 151.868 164.573 153.79 165.31C154.657 165.534 155.562 165.571 156.444 165.418C157.326 165.265 158.166 164.926 158.908 164.423C158.967 164.386 159.034 164.362 159.103 164.351C159.172 164.34 159.242 164.343 159.31 164.36C159.378 164.377 159.442 164.407 159.498 164.448C159.554 164.49 159.602 164.543 159.637 164.603C159.673 164.663 159.696 164.73 159.706 164.799C159.715 164.869 159.711 164.939 159.693 165.007C159.675 165.075 159.644 165.138 159.602 165.194C159.559 165.25 159.506 165.296 159.445 165.331C158.222 166.107 156.816 166.544 155.37 166.597Z" fill="#727272"/>
<path d="M158.74 149.591C159.67 149.591 160.424 148.674 160.424 147.544C160.424 146.413 159.67 145.496 158.74 145.496C157.809 145.496 157.055 146.413 157.055 147.544C157.055 148.674 157.809 149.591 158.74 149.591Z" fill="#727272"/>
<path d="M140.185 152.032C141.115 152.032 141.87 151.116 141.87 149.985C141.87 148.854 141.115 147.938 140.185 147.938C139.254 147.938 138.5 148.854 138.5 149.985C138.5 151.116 139.254 152.032 140.185 152.032Z" fill="#727272"/>
<path d="M139.111 161.332C139.045 161.344 138.977 161.344 138.911 161.332C138.847 161.332 132.139 158.503 126.179 159.654C126.039 159.68 125.895 159.65 125.777 159.57C125.66 159.49 125.579 159.366 125.552 159.226C125.526 159.086 125.556 158.941 125.636 158.824C125.716 158.706 125.839 158.625 125.979 158.598C132.297 157.395 139.026 160.223 139.311 160.35C139.407 160.405 139.483 160.49 139.528 160.591C139.574 160.692 139.586 160.805 139.564 160.913C139.542 161.022 139.486 161.121 139.405 161.196C139.324 161.271 139.221 161.318 139.111 161.332Z" fill="#727272"/>
<path d="M162.805 159.611C162.699 159.61 162.597 159.576 162.51 159.516C162.423 159.455 162.357 159.369 162.319 159.27C162.282 159.171 162.275 159.063 162.3 158.96C162.324 158.857 162.379 158.764 162.458 158.693C165.582 156.074 169.376 154.385 173.41 153.817C173.478 153.808 173.548 153.813 173.615 153.832C173.681 153.851 173.743 153.882 173.797 153.926C173.851 153.969 173.896 154.023 173.929 154.084C173.962 154.145 173.982 154.212 173.989 154.281C174.004 154.42 173.963 154.558 173.876 154.667C173.79 154.776 173.663 154.846 173.525 154.862C169.712 155.425 166.125 157.024 163.153 159.484C163.056 159.568 162.933 159.613 162.805 159.611Z" fill="#727272"/>
<path d="M163.721 161.331C163.581 161.36 163.436 161.333 163.316 161.255C163.197 161.177 163.113 161.054 163.084 160.914C163.054 160.774 163.082 160.628 163.16 160.509C163.238 160.389 163.36 160.305 163.5 160.276C163.826 160.128 171.672 156.645 176.137 158.555C176.203 158.581 176.263 158.619 176.315 158.668C176.366 158.717 176.406 158.776 176.434 158.841C176.462 158.907 176.476 158.977 176.477 159.048C176.477 159.119 176.462 159.189 176.435 159.255C176.407 159.32 176.367 159.379 176.316 159.429C176.265 159.478 176.204 159.516 176.138 159.542C176.072 159.567 176.001 159.579 175.93 159.576C175.86 159.574 175.79 159.557 175.726 159.526C171.661 157.795 163.984 161.204 163.9 161.236C163.847 161.279 163.786 161.312 163.721 161.331Z" fill="#727272"/>
<path d="M164.773 163.441C164.704 163.447 164.634 163.44 164.568 163.419C164.502 163.398 164.44 163.365 164.387 163.32C164.279 163.23 164.212 163.101 164.199 162.961C164.187 162.821 164.23 162.682 164.32 162.574C164.41 162.466 164.539 162.398 164.679 162.386C166.321 162.101 171.766 161.256 173.04 162.533C173.139 162.633 173.195 162.768 173.195 162.908C173.195 163.049 173.139 163.183 173.04 163.283C172.941 163.382 172.806 163.438 172.666 163.438C172.526 163.438 172.391 163.382 172.292 163.283C171.681 162.671 167.954 162.882 164.858 163.431H164.763L164.773 163.441Z" fill="#727272"/>
<path d="M128.97 163.442C128.851 163.442 128.735 163.402 128.641 163.328C128.548 163.254 128.482 163.15 128.455 163.033C128.428 162.917 128.441 162.794 128.493 162.686C128.544 162.579 128.631 162.491 128.738 162.439C131.761 160.93 138.395 162.08 138.679 162.133C138.749 162.145 138.815 162.17 138.874 162.208C138.934 162.245 138.985 162.294 139.026 162.351C139.066 162.408 139.095 162.473 139.111 162.542C139.126 162.61 139.128 162.681 139.116 162.751C139.105 162.82 139.079 162.886 139.042 162.946C139.005 163.005 138.956 163.057 138.899 163.097C138.842 163.138 138.777 163.167 138.709 163.183C138.64 163.198 138.57 163.2 138.5 163.189C138.437 163.189 131.929 162.049 129.223 163.41C129.143 163.442 129.056 163.453 128.97 163.442Z" fill="#727272"/>
<path d="M131.476 167.137C131.357 167.137 131.241 167.097 131.147 167.023C131.053 166.949 130.988 166.845 130.961 166.728C130.934 166.612 130.947 166.489 130.999 166.381C131.05 166.273 131.137 166.186 131.244 166.134C133.94 164.783 138.869 164.382 139.069 164.361C139.138 164.356 139.207 164.364 139.273 164.385C139.339 164.406 139.4 164.441 139.453 164.486C139.506 164.531 139.55 164.586 139.581 164.648C139.613 164.71 139.632 164.777 139.637 164.847C139.643 164.916 139.635 164.986 139.613 165.052C139.592 165.118 139.558 165.179 139.513 165.232C139.468 165.285 139.413 165.328 139.351 165.36C139.289 165.392 139.222 165.411 139.153 165.416C139.153 165.416 134.224 165.818 131.708 167.073C131.636 167.113 131.557 167.134 131.476 167.137Z" fill="#727272"/>
<path d="M137.193 123.289C137.193 123.289 131.401 130.805 131.928 132.916C131.928 132.916 120.534 133.222 120.534 135.512C120.534 137.803 129.948 140.115 129.948 140.115L129.632 142.025C129.632 142.025 117.806 140.22 118.859 135.428C120.597 127.649 137.193 123.289 137.193 123.289Z" fill="#B5B5B5"/>
<path d="M178.223 134.415C178.16 134.427 178.096 134.427 178.033 134.415C177.904 134.365 177.799 134.266 177.742 134.14C177.685 134.013 177.68 133.869 177.728 133.739C179.76 128.292 182.561 119.5 181.94 117.6C181.924 117.555 181.897 117.516 181.862 117.485C181.828 117.453 181.785 117.431 181.74 117.42C179.971 116.723 172.41 120.165 168.05 122.508C167.989 122.546 167.92 122.572 167.849 122.582C167.778 122.593 167.705 122.589 167.635 122.57C167.565 122.552 167.5 122.519 167.444 122.474C167.387 122.429 167.34 122.373 167.306 122.309C167.272 122.245 167.252 122.175 167.246 122.103C167.24 122.031 167.249 121.958 167.272 121.89C167.296 121.821 167.333 121.758 167.381 121.705C167.43 121.652 167.489 121.609 167.555 121.579C168.745 120.935 179.297 115.309 182.109 116.438C182.297 116.506 182.468 116.615 182.608 116.757C182.748 116.9 182.855 117.072 182.919 117.262C183.878 120.122 179.234 132.683 178.707 134.151C178.659 134.235 178.588 134.305 178.502 134.351C178.417 134.398 178.32 134.42 178.223 134.415Z" fill="#727272"/>
<path d="M129.527 140.745H129.411C128.611 140.566 121.534 138.908 120.239 136.65C120.122 136.461 120.046 136.249 120.017 136.029C119.988 135.809 120.006 135.585 120.071 135.372C120.934 132.638 129.843 132.417 131.654 132.406C131.794 132.406 131.928 132.462 132.027 132.561C132.125 132.66 132.181 132.794 132.181 132.934C132.181 133.074 132.125 133.208 132.027 133.307C131.928 133.406 131.794 133.462 131.654 133.462C127.547 133.462 121.555 134.211 121.124 135.689C121.103 135.762 121.099 135.839 121.111 135.914C121.124 135.989 121.153 136.06 121.197 136.122C122.008 137.526 126.831 139.067 129.685 139.711C129.808 139.746 129.913 139.826 129.982 139.934C130.051 140.042 130.078 140.171 130.059 140.297C130.039 140.424 129.975 140.539 129.877 140.621C129.779 140.704 129.655 140.748 129.527 140.745Z" fill="#727272"/>
<path d="M123.493 257.389C122.685 257.362 121.906 257.08 121.267 256.583C120.628 256.087 120.162 255.401 119.934 254.623C118.407 250.169 125.315 249.345 126.484 247.097C127.242 245.662 127.221 243.751 126.484 241.429L126.4 241.175C114.721 206.733 118.839 170.453 138.637 133.213C147.282 116.968 159.161 106.824 173.946 103.088C201.737 96.0472 229.464 114.203 230.633 114.984C231.419 115.537 231.959 116.377 232.136 117.323C232.314 118.269 232.116 119.248 231.585 120.05C231.054 120.852 230.231 121.415 229.292 121.618C228.353 121.821 227.372 121.649 226.558 121.138C226.294 120.969 200.305 104.006 175.715 110.255C163.078 113.422 152.769 122.362 145.176 136.644C126.379 171.963 122.419 206.31 133.413 238.748L133.498 239.012C134.982 243.382 134.825 247.277 133.034 250.623C131.16 253.856 128.105 256.233 124.515 257.252C124.183 257.345 123.839 257.391 123.493 257.389Z" fill="white"/>
<path d="M123.494 257.915C122.569 257.888 121.676 257.567 120.946 256.997C120.215 256.428 119.684 255.64 119.429 254.748C118.292 251.455 121.156 249.893 123.452 248.647C124.436 248.243 125.309 247.61 126 246.8C126.685 245.491 126.653 243.728 125.916 241.522L125.832 241.269C114.111 206.678 118.239 170.209 138.1 132.885C146.82 116.502 158.814 106.274 173.736 102.495C201.748 95.4017 229.665 113.684 230.844 114.465C231.306 114.771 231.702 115.166 232.011 115.626C232.32 116.086 232.536 116.602 232.646 117.146C232.756 117.689 232.758 118.249 232.652 118.793C232.547 119.338 232.335 119.856 232.029 120.318C231.723 120.78 231.33 121.178 230.871 121.488C230.412 121.798 229.897 122.014 229.355 122.124C228.813 122.234 228.254 122.236 227.711 122.13C227.168 122.024 226.651 121.812 226.19 121.506C225.937 121.337 200.105 104.511 175.769 110.697C163.258 113.863 153.086 122.677 145.535 136.864C126.811 172.046 122.862 206.256 133.804 238.556L133.888 238.81C135.415 243.327 135.246 247.37 133.393 250.822C131.449 254.183 128.277 256.655 124.547 257.715C124.206 257.826 123.852 257.893 123.494 257.915ZM187.258 101.988C182.793 101.972 178.343 102.511 174.01 103.593C159.383 107.298 147.62 117.315 139.038 133.454C119.313 170.515 115.207 206.689 126.832 240.995L126.917 241.248C127.749 243.718 127.759 245.766 126.917 247.338C126.146 248.356 125.117 249.147 123.936 249.629C121.293 251.065 119.619 252.173 120.409 254.453C120.641 255.257 121.169 255.942 121.887 256.37C122.605 256.797 123.458 256.934 124.273 256.754C127.715 255.783 130.648 253.513 132.456 250.421C134.172 247.254 134.309 243.475 132.877 239.253L132.793 239C121.746 206.415 125.716 171.93 144.587 136.473C152.285 122.023 162.679 113.04 175.495 109.778C200.284 103.445 226.495 120.556 226.758 120.735C227.457 121.2 228.311 121.367 229.132 121.201C229.954 121.035 230.676 120.548 231.139 119.848C231.603 119.149 231.77 118.293 231.604 117.469C231.438 116.646 230.953 115.922 230.255 115.457C229.307 114.761 209.783 101.988 187.268 101.988H187.258Z" fill="#727272"/>
<path d="M108.762 79.6083C108.653 79.6083 108.548 79.5748 108.459 79.5125C108.371 79.4502 108.303 79.362 108.267 79.26L106.803 75.3017C106.771 75.2156 106.762 75.1225 106.776 75.0318C106.791 74.9411 106.829 74.8558 106.887 74.7844C107.782 73.7289 108.625 72.5889 109.393 71.4594C109.432 71.4019 109.482 71.3526 109.54 71.3143C109.597 71.276 109.662 71.2495 109.73 71.2363C109.798 71.223 109.868 71.2233 109.936 71.2372C110.003 71.251 110.068 71.2781 110.125 71.3169C110.183 71.3558 110.232 71.4055 110.27 71.4634C110.308 71.5213 110.335 71.5861 110.348 71.6542C110.361 71.7224 110.361 71.7924 110.347 71.8604C110.333 71.9284 110.306 71.993 110.267 72.0505C109.53 73.1061 108.741 74.1617 107.898 75.2172L109.257 78.8906C109.287 78.9708 109.298 79.0574 109.288 79.1428C109.278 79.2282 109.247 79.3099 109.198 79.3806C109.15 79.4514 109.084 79.5091 109.008 79.5488C108.932 79.5885 108.847 79.6089 108.762 79.6083Z" fill="#727272"/>
<path d="M113.384 92.0965C113.276 92.0964 113.17 92.063 113.082 92.0007C112.993 91.9383 112.926 91.8502 112.889 91.7482L110.572 85.4993C110.548 85.4341 110.537 85.3648 110.539 85.2954C110.542 85.2259 110.558 85.1576 110.587 85.0944C110.645 84.9667 110.752 84.8674 110.883 84.8184C111.014 84.7694 111.159 84.7747 111.287 84.8331C111.414 84.8915 111.513 84.9982 111.562 85.1298L113.879 91.3682C113.912 91.4489 113.925 91.5367 113.916 91.6236C113.907 91.7104 113.876 91.7937 113.827 91.8659C113.778 91.9381 113.712 91.9969 113.635 92.0372C113.557 92.0774 113.471 92.0978 113.384 92.0965Z" fill="#727272"/>
<path d="M117.165 102.283H117.017L112.974 101.112C112.904 101.092 112.84 101.06 112.783 101.015C112.727 100.971 112.68 100.916 112.644 100.853C112.609 100.79 112.587 100.721 112.578 100.65C112.57 100.578 112.575 100.506 112.594 100.436C112.614 100.367 112.647 100.302 112.691 100.246C112.735 100.189 112.79 100.142 112.853 100.107C112.916 100.071 112.984 100.049 113.056 100.04C113.127 100.031 113.199 100.037 113.268 100.056L116.312 100.932L115.259 97.9562C115.21 97.8246 115.215 97.679 115.273 97.5513C115.332 97.4237 115.438 97.3244 115.569 97.2755C115.701 97.2265 115.846 97.2318 115.973 97.2901C116.101 97.3485 116.2 97.4552 116.249 97.5868L117.712 101.545C117.751 101.63 117.765 101.724 117.755 101.817C117.745 101.911 117.71 101.999 117.654 102.075C117.599 102.15 117.524 102.209 117.438 102.246C117.352 102.282 117.258 102.295 117.165 102.283Z" fill="#727272"/>
<path d="M105.16 98.8111H105.012L97.0511 96.5099C96.982 96.4905 96.9173 96.4577 96.8609 96.4132C96.8044 96.3688 96.7572 96.3136 96.722 96.2509C96.6868 96.1881 96.6643 96.1191 96.6557 96.0476C96.6471 95.9762 96.6527 95.9037 96.672 95.8344C96.6914 95.7651 96.7242 95.7003 96.7685 95.6437C96.8129 95.5871 96.8679 95.5398 96.9305 95.5045C96.9931 95.4692 97.062 95.4466 97.1333 95.438C97.2046 95.4294 97.2769 95.435 97.346 95.4544L105.307 97.7555C105.447 97.7751 105.573 97.8495 105.658 97.9623C105.743 98.0752 105.78 98.2172 105.76 98.3572C105.74 98.4971 105.666 98.6236 105.554 98.7087C105.441 98.7938 105.299 98.8307 105.16 98.8111ZM89.2373 94.2088H89.0899L81.0865 91.8866C81.0174 91.8672 80.9528 91.8343 80.8963 91.7899C80.8398 91.7454 80.7926 91.6903 80.7574 91.6275C80.7222 91.5648 80.6997 91.4957 80.6911 91.4243C80.6825 91.3528 80.6881 91.2804 80.7074 91.2111C80.7268 91.1418 80.7596 91.0769 80.8039 91.0203C80.8483 90.9637 80.9033 90.9164 80.9659 90.8811C81.0285 90.8459 81.0974 90.8233 81.1687 90.8147C81.24 90.8061 81.3123 90.8117 81.3814 90.8311L89.3426 93.1322C89.4851 93.1462 89.6161 93.2163 89.707 93.3272C89.7978 93.438 89.841 93.5805 89.8271 93.7233C89.8131 93.8661 89.7431 93.9974 89.6325 94.0885C89.5219 94.1796 89.3798 94.2228 89.2373 94.2088ZM66.3857 93.7022H64.8692C64.7296 93.7022 64.5957 93.6466 64.4969 93.5476C64.3982 93.4486 64.3427 93.3144 64.3427 93.1744C64.3427 93.0344 64.3982 92.9002 64.4969 92.8012C64.5957 92.7022 64.7296 92.6466 64.8692 92.6466C67.6054 92.7128 70.3429 92.5894 73.0621 92.2772C73.2018 92.2618 73.3418 92.3026 73.4514 92.3907C73.561 92.4788 73.6312 92.6069 73.6466 92.7469C73.662 92.8869 73.6212 93.0272 73.5333 93.1371C73.4454 93.247 73.3176 93.3173 73.178 93.3327C70.9087 93.5861 68.6268 93.7094 66.3435 93.7022H66.3857ZM56.6447 92.8999H56.55C53.7993 92.4406 51.0857 91.7809 48.4308 90.9261C48.2911 90.8827 48.1744 90.7855 48.1063 90.6558C48.0381 90.5261 48.0242 90.3746 48.0675 90.2347C48.1107 90.0947 48.2077 89.9777 48.3371 89.9094C48.4665 89.8411 48.6176 89.8271 48.7572 89.8705C51.3606 90.7102 54.0213 91.3593 56.7185 91.8127C56.789 91.8176 56.8579 91.8363 56.9212 91.8678C56.9845 91.8994 57.041 91.9431 57.0874 91.9965C57.1339 92.0499 57.1694 92.112 57.1919 92.1792C57.2144 92.2463 57.2235 92.3173 57.2187 92.388C57.2138 92.4587 57.1951 92.5277 57.1637 92.5912C57.1322 92.6547 57.0886 92.7113 57.0353 92.7578C56.982 92.8044 56.9201 92.84 56.8531 92.8626C56.7861 92.8851 56.7153 92.8942 56.6447 92.8894V92.8999ZM40.9434 87.8016C40.8632 87.8019 40.784 87.7839 40.7118 87.7488C38.2155 86.4943 35.8243 85.0399 33.5614 83.3999C33.5054 83.359 33.458 83.3075 33.4218 83.2482C33.3857 83.189 33.3616 83.1232 33.3508 83.0546C33.34 82.9859 33.3429 82.9159 33.3591 82.8484C33.3754 82.7808 33.4048 82.7172 33.4456 82.6611C33.4863 82.6049 33.5378 82.5574 33.5969 82.5212C33.656 82.485 33.7217 82.4608 33.7901 82.45C33.8586 82.4392 33.9285 82.442 33.9958 82.4583C34.0632 82.4746 34.1267 82.5041 34.1827 82.5449C36.3999 84.139 38.7418 85.5509 41.1856 86.7672C41.3225 86.7994 41.441 86.8847 41.515 87.0045C41.5891 87.1243 41.6127 87.2686 41.5805 87.4058C41.5484 87.5429 41.4632 87.6617 41.3438 87.736C41.2243 87.8102 41.0803 87.8338 40.9434 87.8016ZM27.6115 78.1116C27.541 78.112 27.4711 78.0982 27.4059 78.071C27.3408 78.0438 27.2818 78.0038 27.2324 77.9533C25.2719 75.9423 23.5087 73.7472 21.9671 71.3983C21.9003 71.2809 21.8809 71.1423 21.913 71.011C21.9452 70.8798 22.0263 70.7659 22.1397 70.6928C22.2531 70.6197 22.3902 70.5931 22.5226 70.6183C22.6551 70.6435 22.7728 70.7186 22.8516 70.8283C24.3429 73.1188 26.0496 75.2608 27.9485 77.225C28.016 77.2971 28.0619 77.3868 28.081 77.4839C28.1001 77.5809 28.0916 77.6814 28.0565 77.7738C28.0213 77.8663 27.961 77.947 27.8823 78.0067C27.8036 78.0664 27.7098 78.1028 27.6115 78.1116ZM113.806 64.8961C113.739 64.9091 113.671 64.9091 113.605 64.8961C113.541 64.8705 113.482 64.8324 113.433 64.784C113.383 64.7357 113.343 64.678 113.316 64.6143C113.289 64.5506 113.274 64.482 113.273 64.4127C113.272 64.3433 113.285 64.2744 113.311 64.2099C114.336 61.6787 115.077 59.0413 115.522 56.3461C115.532 56.2777 115.556 56.2122 115.592 56.1532C115.628 56.0942 115.675 56.043 115.731 56.0027C115.787 55.9624 115.85 55.9337 115.918 55.9183C115.985 55.9029 116.054 55.9012 116.122 55.9133C116.259 55.9366 116.38 56.0128 116.461 56.1254C116.542 56.238 116.575 56.3779 116.554 56.5149C116.097 59.2863 115.334 61.9981 114.279 64.6005C114.231 64.6799 114.163 64.7451 114.082 64.7896C114 64.834 113.909 64.8562 113.816 64.8538L113.806 64.8961ZM18.6815 64.2627C18.5745 64.2635 18.4699 64.2316 18.3814 64.1712C18.293 64.1109 18.225 64.025 18.1865 63.9249C17.1858 61.3024 16.4794 58.5764 16.0804 55.7972C16.0699 55.7285 16.0731 55.6585 16.0896 55.5911C16.1062 55.5237 16.1359 55.4602 16.177 55.4043C16.2181 55.3485 16.2698 55.3012 16.3291 55.2654C16.3884 55.2296 16.4542 55.2058 16.5227 55.1955C16.6605 55.1771 16.8001 55.2131 16.9121 55.2957C17.024 55.3784 17.0996 55.5014 17.1229 55.6388C17.5304 58.3409 18.2368 60.9891 19.2291 63.5344C19.2529 63.6157 19.2568 63.7015 19.2406 63.7847C19.2243 63.8678 19.1883 63.9458 19.1357 64.012C19.083 64.0783 19.0152 64.1309 18.9379 64.1653C18.8607 64.1998 18.7764 64.2151 18.692 64.2099L18.6815 64.2627ZM116.47 48.5561C116.335 48.5563 116.206 48.5051 116.108 48.4128C116.01 48.3206 115.951 48.1944 115.943 48.0599C115.771 45.3375 115.294 42.643 114.522 40.0272C114.483 39.8872 114.5 39.7374 114.572 39.6107C114.643 39.484 114.761 39.3908 114.901 39.3516C115.04 39.3124 115.19 39.3304 115.316 39.4017C115.443 39.473 115.536 39.5916 115.575 39.7316C116.37 42.423 116.861 45.1954 117.038 47.9966C117.043 48.0659 117.033 48.1354 117.011 48.2011C116.988 48.2668 116.953 48.3274 116.907 48.3793C116.861 48.4313 116.805 48.4737 116.743 48.504C116.68 48.5343 116.613 48.552 116.544 48.5561H116.47ZM16.3436 47.8805C16.2744 47.8752 16.2069 47.8562 16.1451 47.8246C16.0832 47.793 16.0282 47.7495 15.9831 47.6965C15.9381 47.6435 15.904 47.5822 15.8827 47.5159C15.8615 47.4497 15.8535 47.3799 15.8592 47.3105C16.0871 44.5108 16.6276 41.7456 17.4704 39.0666C17.4908 38.9998 17.5242 38.9378 17.5687 38.8841C17.6132 38.8303 17.6679 38.786 17.7296 38.7536C17.7913 38.7212 17.8588 38.7014 17.9282 38.6953C17.9976 38.6893 18.0675 38.6971 18.1339 38.7183C18.2005 38.7387 18.2624 38.7722 18.316 38.8168C18.3696 38.8614 18.4138 38.9162 18.4462 38.978C18.4785 39.0399 18.4982 39.1076 18.5043 39.1771C18.5103 39.2467 18.5026 39.3168 18.4814 39.3833C17.6362 41.9977 17.0886 44.6995 16.8491 47.4372C16.8389 47.5661 16.7817 47.6868 16.6886 47.7764C16.5954 47.8659 16.4726 47.918 16.3436 47.9227V47.8805ZM111.836 32.7649C111.742 32.7652 111.649 32.7398 111.567 32.6915C111.485 32.6432 111.418 32.5738 111.373 32.4905C110.054 30.0978 108.502 27.8419 106.739 25.7561C106.686 25.705 106.643 25.643 106.615 25.5743C106.586 25.5056 106.573 25.4317 106.575 25.3574C106.577 25.2831 106.595 25.2101 106.627 25.1431C106.659 25.0762 106.705 25.0168 106.762 24.9689C106.819 24.921 106.885 24.8857 106.956 24.8652C107.028 24.8448 107.102 24.8396 107.176 24.8502C107.249 24.8607 107.32 24.8867 107.382 24.9264C107.445 24.9661 107.499 25.0186 107.54 25.0805C109.347 27.2218 110.938 29.5378 112.289 31.9944C112.341 32.0748 112.369 32.1678 112.372 32.2633C112.375 32.3588 112.352 32.4534 112.306 32.5368C112.259 32.6203 112.191 32.6895 112.108 32.7371C112.026 32.7847 111.932 32.8089 111.836 32.8072V32.7649ZM21.272 32.1738C21.1799 32.1733 21.0895 32.1485 21.0099 32.1019C20.9303 32.0554 20.8642 31.9887 20.8184 31.9086C20.7726 31.8284 20.7485 31.7376 20.7487 31.6453C20.7488 31.5529 20.7731 31.4622 20.8192 31.3822C22.2134 28.9512 23.843 26.6637 25.6844 24.5527C25.729 24.4972 25.7843 24.4514 25.8471 24.4179C25.9098 24.3844 25.9787 24.364 26.0495 24.3579C26.1203 24.3519 26.1916 24.3602 26.2591 24.3825C26.3266 24.4048 26.389 24.4405 26.4423 24.4876C26.4957 24.5346 26.539 24.592 26.5696 24.6563C26.6002 24.7206 26.6176 24.7905 26.6205 24.8617C26.6235 24.9328 26.6121 25.0039 26.5869 25.0705C26.5618 25.1372 26.5234 25.198 26.4742 25.2494C24.6807 27.3086 23.0935 29.5395 21.7354 31.9099C21.6935 32.0007 21.6267 32.0777 21.5428 32.1319C21.4589 32.1861 21.3613 32.2153 21.2615 32.2161L21.272 32.1738ZM101.306 20.1194C101.183 20.1211 101.064 20.0801 100.969 20.0033C98.8552 18.2632 96.6008 16.7026 94.2289 15.3377C94.1074 15.2677 94.0186 15.1522 93.9821 15.0166C93.9456 14.881 93.9643 14.7364 94.0341 14.6147C94.1039 14.4929 94.2191 14.4039 94.3544 14.3673C94.4897 14.3307 94.6339 14.3494 94.7554 14.4194C97.1751 15.8128 99.4752 17.4051 101.632 19.1799C101.752 19.2371 101.846 19.3376 101.895 19.4614C101.944 19.5851 101.945 19.723 101.897 19.8472C101.849 19.9714 101.756 20.0728 101.637 20.1312C101.517 20.1895 101.38 20.2003 101.253 20.1616L101.306 20.1194ZM32.0871 19.6866C31.9783 19.686 31.8724 19.6516 31.7839 19.5882C31.6954 19.5248 31.6287 19.4354 31.5929 19.3324C31.5571 19.2295 31.554 19.1179 31.5841 19.0131C31.6141 18.9083 31.6758 18.8154 31.7606 18.7472C33.942 17.0034 36.2631 15.4429 38.7004 14.0816C38.8211 14.0219 38.9601 14.0109 39.0888 14.0507C39.2174 14.0906 39.326 14.1784 39.392 14.296C39.4581 14.4136 39.4767 14.5521 39.4441 14.683C39.4114 14.814 39.3299 14.9274 39.2164 14.9999C36.8271 16.3331 34.5518 17.8618 32.4135 19.5705C32.3651 19.6229 32.3064 19.6649 32.2413 19.6939C32.1761 19.723 32.1057 19.7384 32.0344 19.7394L32.0871 19.6866ZM87.0154 11.8438C86.9527 11.8553 86.8885 11.8553 86.8258 11.8438C84.2718 10.87 81.6496 10.0868 78.9804 9.5005C78.9113 9.48525 78.8458 9.4565 78.7877 9.41589C78.7297 9.37528 78.6802 9.3236 78.642 9.26381C78.6039 9.20402 78.5779 9.13729 78.5655 9.06742C78.5531 8.99755 78.5545 8.92592 78.5697 8.85661C78.5849 8.7873 78.6136 8.72167 78.6541 8.66348C78.6946 8.60528 78.7462 8.55565 78.8058 8.51742C78.8655 8.4792 78.9321 8.45312 79.0018 8.44068C79.0715 8.42825 79.1429 8.4297 79.2121 8.44494C81.9354 9.04824 84.6105 9.85266 87.2154 10.8516C87.3537 10.8838 87.4735 10.9697 87.5486 11.0905C87.6236 11.2112 87.6477 11.3569 87.6156 11.4955C87.5835 11.6341 87.4978 11.7542 87.3773 11.8294C87.2568 11.9046 87.1115 11.9288 86.9732 11.8966L87.0154 11.8438ZM46.4299 11.6116C46.3608 11.6234 46.29 11.6214 46.2216 11.6058C46.1532 11.5901 46.0886 11.5611 46.0314 11.5205C45.9742 11.4798 45.9255 11.4282 45.8882 11.3687C45.8509 11.3092 45.8256 11.2429 45.8139 11.1736C45.8021 11.1042 45.8041 11.0333 45.8197 10.9648C45.8353 10.8962 45.8642 10.8314 45.9048 10.7741C45.9454 10.7167 45.9968 10.668 46.0562 10.6306C46.1156 10.5932 46.1818 10.5678 46.2509 10.5561C48.8653 9.5885 51.5474 8.81584 54.2753 8.24439C54.3432 8.22902 54.4134 8.22757 54.4819 8.24013C54.5503 8.25268 54.6155 8.27897 54.6736 8.31742C54.7316 8.35588 54.7813 8.4057 54.8196 8.46389C54.8579 8.52209 54.8842 8.58745 54.8966 8.65605C54.9105 8.72397 54.9108 8.79397 54.8977 8.86203C54.8845 8.93009 54.8581 8.9949 54.82 9.05273C54.7819 9.11056 54.7327 9.16029 54.6754 9.19909C54.6181 9.23789 54.5537 9.26498 54.4859 9.27883C51.8066 9.86093 49.1737 10.6406 46.609 11.6116C46.5497 11.6221 46.4891 11.6221 46.4299 11.6116ZM70.8612 8.25494C68.13 8.06465 65.389 8.06465 62.6578 8.25494C62.5883 8.2607 62.5184 8.25228 62.4522 8.2302C62.3861 8.20811 62.3251 8.17282 62.2729 8.12645C62.2208 8.08009 62.1785 8.02361 62.1487 7.96043C62.119 7.89724 62.1023 7.82866 62.0997 7.75883C62.0954 7.68949 62.1048 7.62 62.1274 7.55432C62.15 7.48864 62.1853 7.42808 62.2312 7.3761C62.2772 7.32412 62.333 7.28176 62.3953 7.25144C62.4577 7.22111 62.5254 7.20342 62.5946 7.19939C65.3749 7.00645 68.1652 7.00645 70.9455 7.19939C71.0907 7.21059 71.2255 7.27915 71.3203 7.39001C71.4151 7.50086 71.4621 7.64492 71.4509 7.7905C71.4398 7.93607 71.3714 8.07123 71.2608 8.16625C71.1502 8.26127 71.0064 8.30836 70.8612 8.29717V8.25494Z" fill="#727272"/>
<path d="M41.9202 45.1877C42.7525 45.6537 43.4839 46.2813 44.0714 47.034C44.6589 47.7866 45.0907 48.6491 45.3418 49.571C45.5928 50.4929 45.6579 51.4557 45.5333 52.4032C45.4087 53.3506 45.0968 54.2636 44.616 55.0888C43.9668 56.1871 43.0359 57.0911 41.9202 57.7066C40.756 58.3385 39.453 58.6695 38.1291 58.6695C36.8052 58.6695 35.5022 58.3385 34.338 57.7066C33.2223 57.0911 32.2914 56.1871 31.6422 55.0888C31.1496 54.2667 30.8283 53.3531 30.6974 52.4031C30.5666 51.4531 30.629 50.4864 30.8809 49.5613C31.1328 48.6361 31.569 47.7717 32.1631 47.02C32.7573 46.2684 33.4971 45.6451 34.338 45.1877C35.5065 44.5693 36.8078 44.2461 38.1291 44.2461C39.4504 44.2461 40.7517 44.5693 41.9202 45.1877ZM35.7913 47.2988C34.694 47.9402 33.8957 48.9921 33.5718 50.2233C33.248 51.4544 33.4251 52.7641 34.0642 53.8644C34.4841 54.5853 35.0826 55.1852 35.8018 55.6061C36.5189 56.0318 37.3378 56.2543 38.1712 56.2499C38.9945 56.2528 39.8029 56.0302 40.509 55.6061C41.2238 55.1866 41.8158 54.5859 42.2256 53.8644C42.6475 53.1257 42.8656 52.2878 42.8574 51.4366C42.8663 50.5887 42.6481 49.754 42.2256 49.0194C41.8174 48.3057 41.229 47.7123 40.5196 47.2988C39.8113 46.8809 39.0037 46.6621 38.1818 46.6655C37.3413 46.6515 36.5124 46.8629 35.7807 47.2777L35.7913 47.2988Z" fill="url(#paint0_linear_302_43784)"/>
<path d="M57.6213 45.1877C58.4537 45.6537 59.185 46.2813 59.7725 47.034C60.36 47.7866 60.7919 48.6491 61.0429 49.571C61.294 50.4929 61.3591 51.4557 61.2344 52.4032C61.1098 53.3506 60.798 54.2636 60.3172 55.0888C59.668 56.1871 58.7371 57.0911 57.6213 57.7066C56.4572 58.3385 55.1542 58.6695 53.8303 58.6695C52.5064 58.6695 51.2034 58.3385 50.0392 57.7066C48.9234 57.0911 47.9926 56.1871 47.3433 55.0888C46.8508 54.2667 46.5294 53.3531 46.3986 52.4031C46.2678 51.4531 46.3302 50.4864 46.5821 49.5613C46.834 48.6361 47.2702 47.7717 47.8643 47.02C48.4585 46.2684 49.1983 45.6451 50.0392 45.1877C51.2076 44.5693 52.509 44.2461 53.8303 44.2461C55.1516 44.2461 56.4529 44.5693 57.6213 45.1877ZM51.4924 47.2988C50.3951 47.9402 49.5968 48.9921 49.273 50.2233C48.9491 51.4544 49.1263 52.7641 49.7654 53.8644C50.1852 54.5853 50.7838 55.1852 51.503 55.6061C52.22 56.0318 53.039 56.2543 53.8724 56.2499C54.6956 56.2528 55.504 56.0302 56.2102 55.6061C56.9174 55.1735 57.4986 54.5619 57.8951 53.8327C58.3171 53.0941 58.5352 52.2561 58.527 51.4049C58.5359 50.5571 58.3177 49.7223 57.8951 48.9877C57.487 48.2741 56.8986 47.6807 56.1892 47.2672C55.4809 46.8492 54.6732 46.6304 53.8513 46.6338C53.0223 46.637 52.2086 46.8591 51.4924 47.2777V47.2988Z" fill="url(#paint1_linear_302_43784)"/>
<path d="M73.4915 45.6961C73.9836 46.1447 74.3694 46.6979 74.6209 47.3151C74.8723 47.9324 74.983 48.5982 74.9448 49.2638C74.9841 49.9547 74.8747 50.646 74.6239 51.2907C74.3732 51.9355 73.987 52.5186 73.4915 53.0005C72.3452 53.9512 70.8798 54.427 69.3951 54.3305H66.3201V58.4577H63.6348V44.4188H69.374C70.8565 44.323 72.3222 44.7776 73.4915 45.6961ZM71.596 51.3116C71.8733 51.0694 72.0909 50.7661 72.2316 50.4254C72.3723 50.0848 72.4323 49.7161 72.4069 49.3483C72.4322 48.9867 72.372 48.6242 72.2311 48.2903C72.0902 47.9565 71.8726 47.6607 71.596 47.4272C70.9144 46.9567 70.0946 46.7299 69.2687 46.7833H66.3201V51.9766H69.2371C70.0732 52.0347 70.9034 51.7996 71.5855 51.3116H71.596Z" fill="url(#paint2_linear_302_43784)"/>
<path d="M83.7583 47.0144C83.117 46.7938 82.4458 46.6728 81.768 46.6555C81.2388 46.6284 80.7128 46.7529 80.2516 47.0144C80.0776 47.1162 79.9341 47.263 79.8359 47.4394C79.7378 47.6157 79.6886 47.8153 79.6935 48.0172C79.6889 48.1971 79.7211 48.3761 79.7881 48.5431C79.8551 48.7101 79.9555 48.8616 80.0831 48.9883C80.3647 49.2646 80.6974 49.4833 81.0625 49.6322C81.5891 49.8446 82.127 50.0278 82.6737 50.181C83.4685 50.4065 84.2463 50.6887 85.001 51.0255C85.6099 51.309 86.1411 51.7364 86.549 52.271C87.0013 52.8987 87.2278 53.6616 87.1914 54.4349C87.2081 55.2367 86.9642 56.0222 86.4963 56.6727C86.0137 57.3273 85.3567 57.8322 84.6008 58.1294C83.7201 58.48 82.7787 58.6522 81.8312 58.6361C80.7494 58.6304 79.678 58.4228 78.672 58.0238C77.6778 57.642 76.7582 57.0882 75.9551 56.3877L77.0713 54.0972C77.769 54.746 78.5744 55.2676 79.4513 55.6383C80.2267 55.9892 81.0649 56.1794 81.9155 56.1977C82.5312 56.2286 83.1426 56.0781 83.6741 55.7649C83.8483 55.6518 83.9954 55.5014 84.105 55.3247C84.2145 55.148 84.2839 54.9492 84.308 54.7426C84.3322 54.5359 84.3105 54.3264 84.2446 54.1291C84.1787 53.9318 84.0702 53.7515 83.9268 53.601C83.6435 53.3244 83.3066 53.1088 82.9369 52.9677C82.5368 52.8059 81.9892 52.6264 81.2942 52.4294C80.5055 52.2037 79.7317 51.9287 78.9774 51.606C78.3733 51.3341 77.8452 50.9172 77.4399 50.3922C76.9937 49.7815 76.7673 49.0373 76.7975 48.281C76.7875 47.5259 77.016 46.7869 77.4505 46.1699C77.9205 45.5348 78.559 45.0447 79.2933 44.7555C80.1674 44.4082 81.1018 44.2395 82.0418 44.2594C82.9553 44.2593 83.8637 44.3945 84.7377 44.6605C85.5735 44.8977 86.3714 45.2531 87.1071 45.716L86.054 48.0594C85.335 47.617 84.5638 47.2659 83.7583 47.0144Z" fill="url(#paint3_linear_302_43784)"/>
<path d="M91.2355 56.1542C91.3696 56.2937 91.4734 56.4594 91.5405 56.6411C91.6075 56.8227 91.6363 57.0163 91.6251 57.2096C91.6327 57.4026 91.6022 57.5951 91.5353 57.7762C91.4684 57.9574 91.3666 58.1234 91.2355 58.265C91.1089 58.3999 90.9553 58.5063 90.7846 58.5773C90.614 58.6482 90.4303 58.6821 90.2456 58.6766C90.0634 58.6798 89.8826 58.6437 89.7155 58.5709C89.5483 58.4981 89.3987 58.3902 89.2768 58.2545C89.0131 57.9679 88.873 57.5886 88.8871 57.1991C88.8759 57.0057 88.9048 56.8121 88.9718 56.6305C89.0389 56.4489 89.1427 56.2831 89.2768 56.1436C89.4015 56.0128 89.5521 55.9096 89.7189 55.8405C89.8857 55.7714 90.0651 55.7381 90.2456 55.7426C90.4301 55.7384 90.6134 55.7729 90.7839 55.8438C90.9543 55.9146 91.1081 56.0204 91.2355 56.1542Z" fill="url(#paint4_linear_302_43784)"/>
<path d="M95.7433 56.1542C95.8774 56.2937 95.9812 56.4594 96.0483 56.6411C96.1153 56.8227 96.1441 57.0163 96.1329 57.2096C96.1405 57.4026 96.11 57.5951 96.0431 57.7762C95.9762 57.9574 95.8744 58.1234 95.7433 58.265C95.6167 58.3999 95.4631 58.5063 95.2924 58.5773C95.1218 58.6482 94.9381 58.6821 94.7534 58.6766C94.5712 58.6798 94.3904 58.6437 94.2233 58.5709C94.0561 58.4981 93.9065 58.3902 93.7846 58.2545C93.5209 57.9679 93.3808 57.5886 93.3949 57.1991C93.3837 57.0057 93.4125 56.8121 93.4796 56.6305C93.5467 56.4489 93.6505 56.2831 93.7846 56.1436C93.9093 56.0128 94.0599 55.9096 94.2267 55.8405C94.3935 55.7714 94.5729 55.7381 94.7534 55.7426C94.9379 55.7384 95.1212 55.7729 95.2917 55.8438C95.4621 55.9146 95.6159 56.0204 95.7433 56.1542Z" fill="url(#paint5_linear_302_43784)"/>
<path d="M100.239 56.1542C100.373 56.2937 100.477 56.4594 100.544 56.6411C100.611 56.8227 100.64 57.0163 100.629 57.2096C100.637 57.4026 100.606 57.5951 100.539 57.7762C100.472 57.9574 100.37 58.1234 100.239 58.265C100.113 58.3999 99.9592 58.5063 99.7885 58.5773C99.6179 58.6482 99.4342 58.6821 99.2495 58.6766C99.0673 58.6798 98.8865 58.6437 98.7194 58.5709C98.5522 58.4981 98.4027 58.3902 98.2807 58.2545C98.017 57.9679 97.8769 57.5886 97.891 57.1991C97.8798 57.0057 97.9087 56.8121 97.9757 56.6305C98.0428 56.4489 98.1466 56.2831 98.2807 56.1436C98.4054 56.0128 98.5559 55.9096 98.7228 55.8405C98.8896 55.7714 99.069 55.7381 99.2495 55.7426C99.434 55.7384 99.6173 55.7729 99.7878 55.8438C99.9582 55.9146 100.112 56.0204 100.239 56.1542Z" fill="url(#paint6_linear_302_43784)"/>
<path d="M60.4573 118.93C33.604 99.877 -22.2405 126.878 10.4469 155.526C53.9914 193.695 84.678 199.606 94.4083 195.458C117.155 185.778 108.393 152.95 60.4573 118.93Z" fill="#EDEDED"/>
<path d="M69.3241 226.869C75.2529 227.777 106.866 224.062 89.9327 214.53C72.9993 204.998 42.1758 199.341 35.6889 210.931C29.202 222.521 59.4252 225.36 69.3241 226.869Z" fill="#EDEDED"/>
<defs>
<linearGradient id="paint0_linear_302_43784" x1="30.6309" y1="45.8267" x2="45.1999" y2="59.1029" gradientUnits="userSpaceOnUse">
<stop stop-color="#FF6A8F"/>
<stop offset="0.494792" stop-color="#FF6276"/>
<stop offset="1" stop-color="#F53838"/>
</linearGradient>
<linearGradient id="paint1_linear_302_43784" x1="46.332" y1="45.8267" x2="60.901" y2="59.1028" gradientUnits="userSpaceOnUse">
<stop stop-color="#FF6A8F"/>
<stop offset="0.494792" stop-color="#FF6276"/>
<stop offset="1" stop-color="#F53838"/>
</linearGradient>
<linearGradient id="paint2_linear_302_43784" x1="63.6348" y1="45.9461" x2="77.0765" y2="55.4556" gradientUnits="userSpaceOnUse">
<stop stop-color="#FF6A8F"/>
<stop offset="0.494792" stop-color="#FF6276"/>
<stop offset="1" stop-color="#F53838"/>
</linearGradient>
<linearGradient id="paint3_linear_302_43784" x1="75.9551" y1="45.8336" x2="89.5685" y2="55.1804" gradientUnits="userSpaceOnUse">
<stop stop-color="#FF6A8F"/>
<stop offset="0.494792" stop-color="#FF6276"/>
<stop offset="1" stop-color="#F53838"/>
</linearGradient>
<linearGradient id="paint4_linear_302_43784" x1="88.8848" y1="56.0638" x2="91.8051" y2="58.4608" gradientUnits="userSpaceOnUse">
<stop stop-color="#FF6A8F"/>
<stop offset="0.494792" stop-color="#FF6276"/>
<stop offset="1" stop-color="#F53838"/>
</linearGradient>
<linearGradient id="paint5_linear_302_43784" x1="93.3926" y1="56.0638" x2="96.3129" y2="58.4608" gradientUnits="userSpaceOnUse">
<stop stop-color="#FF6A8F"/>
<stop offset="0.494792" stop-color="#FF6276"/>
<stop offset="1" stop-color="#F53838"/>
</linearGradient>
<linearGradient id="paint6_linear_302_43784" x1="97.8887" y1="56.0638" x2="100.809" y2="58.4608" gradientUnits="userSpaceOnUse">
<stop stop-color="#FF6A8F"/>
<stop offset="0.494792" stop-color="#FF6276"/>
<stop offset="1" stop-color="#F53838"/>
</linearGradient>
</defs>
</svg>
