<svg width="377" height="290" viewBox="0 0 377 290" fill="none" xmlns="http://www.w3.org/2000/svg">
<g clip-path="url(#clip0_3386_55332)">
<path d="M226.205 20.6524C196.729 20.6401 167.749 28.0719 142.064 42.2295C116.379 56.3871 94.8588 76.7918 79.5828 101.472C68.6674 119.344 62.8155 139.742 62.6296 160.565C62.4437 181.388 67.9306 201.883 78.5252 219.939L80.4641 223.161C107.344 266.533 192.098 290.203 243.097 281.115C380.143 256.667 389.779 134.576 367.922 94.1662C342.393 46.48 284.96 20.6524 226.205 20.6524Z" fill="#EDEDED"/>
<path d="M257.258 189.134H256.876C254.525 188.53 252.117 187.84 249.766 187.092C249.581 187.037 249.409 186.945 249.26 186.823C249.112 186.701 248.99 186.551 248.902 186.382C248.814 186.213 248.762 186.028 248.749 185.839C248.736 185.649 248.762 185.459 248.826 185.28C248.883 185.099 248.976 184.93 249.101 184.785C249.225 184.639 249.379 184.52 249.551 184.434C249.724 184.348 249.913 184.297 250.106 184.284C250.3 184.272 250.494 184.297 250.677 184.36C252.968 185.079 255.319 185.769 257.639 186.373C258.029 186.423 258.383 186.622 258.622 186.926C258.862 187.231 258.968 187.617 258.917 187.998C258.867 188.379 258.663 188.726 258.352 188.96C258.041 189.195 257.647 189.299 257.258 189.249V189.134Z" fill="#727272"/>
<path d="M268.539 290C265.602 290 262.664 290 259.726 289.712C259.533 289.701 259.344 289.653 259.17 289.57C258.996 289.487 258.841 289.372 258.713 289.23C258.584 289.089 258.486 288.924 258.423 288.745C258.36 288.566 258.334 288.376 258.345 288.188C258.389 287.814 258.572 287.469 258.859 287.22C259.147 286.97 259.518 286.833 259.902 286.836C264.794 287.123 269.699 287.123 274.591 286.836C274.784 286.82 274.977 286.843 275.16 286.904C275.343 286.964 275.511 287.061 275.654 287.187C275.798 287.314 275.913 287.468 275.993 287.64C276.072 287.812 276.115 287.999 276.119 288.188C276.131 288.376 276.104 288.566 276.041 288.745C275.978 288.924 275.88 289.089 275.752 289.23C275.623 289.372 275.468 289.487 275.294 289.57C275.12 289.653 274.931 289.701 274.738 289.712C272.711 289.942 270.655 290 268.539 290ZM289.339 288.073C289 288.073 288.672 287.958 288.409 287.748C288.147 287.539 287.967 287.247 287.899 286.922C287.829 286.549 287.909 286.164 288.123 285.848C288.336 285.531 288.667 285.308 289.045 285.225C293.805 284.309 298.459 282.931 302.94 281.112C303.12 281.037 303.312 280.997 303.507 280.996C303.702 280.994 303.896 281.03 304.076 281.103C304.257 281.175 304.42 281.282 304.558 281.417C304.696 281.552 304.805 281.712 304.879 281.889C305.018 282.241 305.013 282.631 304.865 282.979C304.717 283.327 304.438 283.606 304.086 283.758C299.419 285.635 294.579 287.07 289.632 288.044L289.339 288.073ZM245.096 288.073H244.802C239.861 287.17 235.007 285.862 230.29 284.161C230.104 284.101 229.931 284.004 229.783 283.878C229.636 283.751 229.515 283.597 229.429 283.424C229.343 283.251 229.294 283.063 229.284 282.871C229.273 282.679 229.302 282.487 229.369 282.306C229.436 282.125 229.539 281.96 229.672 281.818C229.806 281.677 229.967 281.564 230.146 281.485C230.325 281.406 230.518 281.362 230.715 281.358C230.911 281.353 231.106 281.387 231.289 281.457C235.859 283.116 240.567 284.386 245.361 285.254C245.75 285.288 246.11 285.473 246.361 285.767C246.611 286.061 246.732 286.44 246.697 286.821C246.662 287.203 246.474 287.555 246.174 287.8C245.873 288.046 245.486 288.164 245.096 288.13V288.073ZM217.393 277.92C217.126 277.911 216.865 277.842 216.63 277.718C212.303 275.202 208.213 272.315 204.409 269.09C204.26 268.971 204.137 268.823 204.047 268.657C203.957 268.49 203.903 268.308 203.886 268.12C203.87 267.932 203.892 267.743 203.951 267.564C204.011 267.385 204.106 267.219 204.232 267.077C204.512 266.811 204.886 266.663 205.275 266.663C205.665 266.663 206.039 266.811 206.318 267.077C209.979 270.188 213.911 272.979 218.069 275.418C218.237 275.51 218.385 275.634 218.503 275.784C218.621 275.933 218.707 276.104 218.756 276.286C218.805 276.468 218.817 276.659 218.79 276.845C218.762 277.032 218.697 277.212 218.598 277.373C218.453 277.549 218.27 277.69 218.061 277.784C217.852 277.879 217.624 277.925 217.393 277.92ZM316.366 276.741C316.138 276.738 315.914 276.685 315.71 276.586C315.507 276.486 315.329 276.342 315.191 276.165C315.075 276.014 314.991 275.842 314.943 275.659C314.895 275.476 314.884 275.286 314.912 275.099C314.939 274.912 315.004 274.732 315.102 274.57C315.2 274.407 315.33 274.265 315.484 274.152C319.335 271.338 322.731 267.974 325.561 264.172C325.675 264.019 325.818 263.889 325.983 263.791C326.148 263.692 326.331 263.626 326.522 263.597C326.713 263.567 326.908 263.575 327.096 263.619C327.284 263.664 327.461 263.744 327.617 263.856C327.774 263.967 327.906 264.107 328.007 264.269C328.107 264.43 328.175 264.61 328.205 264.797C328.235 264.984 328.227 265.174 328.182 265.358C328.136 265.542 328.054 265.716 327.94 265.869C324.952 269.904 321.357 273.473 317.277 276.453C317.023 276.642 316.713 276.743 316.395 276.741H316.366ZM333.346 253.53H332.935C332.749 253.475 332.576 253.383 332.427 253.262C332.277 253.14 332.154 252.991 332.063 252.822C331.973 252.654 331.918 252.47 331.901 252.28C331.884 252.09 331.906 251.9 331.965 251.718C333.208 247.689 333.841 243.503 333.845 239.293C333.845 238.804 333.845 238.344 333.845 237.884C333.837 237.5 333.984 237.128 334.253 236.848C334.522 236.569 334.893 236.403 335.285 236.389C335.476 236.381 335.667 236.411 335.847 236.476C336.027 236.542 336.191 236.642 336.33 236.77C336.47 236.899 336.582 237.054 336.66 237.225C336.737 237.396 336.779 237.581 336.783 237.769C336.783 238.287 336.783 238.776 336.783 239.293C336.829 243.77 336.195 248.229 334.903 252.524C334.804 252.837 334.598 253.107 334.32 253.29C334.042 253.473 333.709 253.558 333.375 253.53H333.346ZM332.435 224.999C332.137 225.001 331.845 224.914 331.598 224.75C331.352 224.585 331.162 224.351 331.055 224.079C329.389 219.669 327.008 215.551 324.004 211.884C323.819 211.579 323.753 211.219 323.818 210.871C323.883 210.522 324.075 210.209 324.358 209.988C324.641 209.767 324.996 209.654 325.357 209.669C325.719 209.685 326.063 209.828 326.325 210.072C329.505 213.993 332.033 218.38 333.816 223.072C333.948 223.431 333.93 223.826 333.764 224.171C333.599 224.516 333.301 224.783 332.935 224.913C332.784 224.966 332.625 224.995 332.465 224.999H332.435ZM314.339 202.594C314.045 202.589 313.758 202.499 313.516 202.335C309.529 199.701 305.189 197.62 300.62 196.151C300.23 196.033 299.904 195.768 299.714 195.415C299.524 195.062 299.485 194.649 299.606 194.268C299.727 193.886 299.997 193.567 300.358 193.381C300.719 193.195 301.141 193.157 301.53 193.275C306.365 194.836 310.96 197.032 315.191 199.804C315.462 199.975 315.667 200.228 315.777 200.525C315.886 200.821 315.893 201.145 315.796 201.446C315.7 201.746 315.504 202.008 315.241 202.189C314.978 202.371 314.661 202.462 314.339 202.45V202.594ZM286.577 193.333C285.608 193.333 284.609 193.333 283.639 193.16C279.703 192.959 275.708 192.585 271.888 192.039C271.499 191.985 271.147 191.782 270.91 191.475C270.673 191.168 270.571 190.781 270.625 190.399C270.68 190.018 270.887 189.673 271.201 189.441C271.515 189.209 271.91 189.109 272.3 189.162C276.148 189.709 280.055 190.083 284.051 190.255C285.079 190.255 286.136 190.255 286.988 190.457C287.182 190.471 287.37 190.523 287.542 190.609C287.715 190.695 287.869 190.814 287.994 190.958C288.12 191.102 288.215 191.27 288.274 191.45C288.334 191.631 288.356 191.821 288.34 192.01C288.323 192.214 288.262 192.412 288.162 192.592C288.062 192.772 287.924 192.929 287.758 193.054C287.592 193.179 287.401 193.268 287.198 193.316C286.994 193.364 286.783 193.37 286.577 193.333Z" fill="#727272"/>
<path d="M194.89 258.851C194.67 258.846 194.454 258.794 194.256 258.7C194.058 258.606 193.884 258.471 193.744 258.304C192.217 256.492 190.806 254.536 189.22 252.552C188.994 252.239 188.904 251.851 188.97 251.474C189.037 251.096 189.253 250.76 189.573 250.539C189.892 250.317 190.288 250.229 190.674 250.294C191.059 250.359 191.403 250.571 191.629 250.884C193.039 252.811 194.567 254.709 196.006 256.636C196.132 256.778 196.228 256.944 196.287 257.123C196.347 257.302 196.369 257.491 196.352 257.679C196.336 257.867 196.281 258.049 196.192 258.216C196.102 258.383 195.979 258.53 195.83 258.649C195.548 258.816 195.217 258.887 194.89 258.851Z" fill="#727272"/>
<path d="M91.394 70.3503C91.2484 70.3775 91.0989 70.3775 90.9533 70.3503C88.5559 69.6275 86.2019 68.7729 83.9027 67.7906C83.554 67.6279 83.2828 67.3396 83.146 66.9859C83.0091 66.6322 83.0171 66.2404 83.1683 65.8923C83.245 65.7182 83.356 65.5606 83.4952 65.4287C83.6343 65.2967 83.7986 65.193 83.9789 65.1235C84.1591 65.054 84.3515 65.0201 84.5452 65.0237C84.7388 65.0273 84.9298 65.0684 85.1072 65.1445C87.2962 66.1022 89.5429 66.9282 91.8346 67.618C92.2032 67.7308 92.5116 67.9812 92.693 68.3149C92.8745 68.6486 92.9144 69.0389 92.8041 69.4012C92.6961 69.6814 92.5031 69.9226 92.251 70.0923C91.999 70.2619 91.6999 70.352 91.394 70.3503Z" fill="#727272"/>
<path d="M270.007 112.714C266.321 112.688 262.648 112.284 259.049 111.506C258.861 111.469 258.682 111.395 258.523 111.289C258.365 111.183 258.229 111.046 258.125 110.888C258.021 110.73 257.951 110.553 257.917 110.368C257.884 110.183 257.889 109.993 257.933 109.809C257.971 109.624 258.046 109.448 258.154 109.292C258.262 109.135 258.401 109.001 258.562 108.897C258.723 108.793 258.903 108.721 259.093 108.685C259.282 108.649 259.477 108.65 259.666 108.688C263.063 109.417 266.529 109.803 270.007 109.838C271.184 109.854 272.362 109.796 273.532 109.665C273.923 109.641 274.309 109.764 274.61 110.011C274.911 110.257 275.103 110.607 275.148 110.988C275.173 111.364 275.05 111.735 274.804 112.024C274.558 112.313 274.207 112.498 273.826 112.542C272.56 112.701 271.282 112.758 270.007 112.714ZM287.281 108.285C287.028 108.281 286.781 108.216 286.56 108.095C286.34 107.975 286.153 107.803 286.017 107.595C285.916 107.433 285.849 107.252 285.819 107.065C285.789 106.877 285.798 106.685 285.844 106.5C285.891 106.316 285.974 106.142 286.089 105.989C286.205 105.837 286.35 105.708 286.517 105.61C287.532 105.002 288.513 104.339 289.454 103.626C292.098 101.601 294.263 99.0399 295.8 96.1189C295.878 95.9363 295.993 95.7714 296.139 95.6345C296.284 95.4975 296.457 95.3914 296.647 95.3229C296.836 95.2543 297.038 95.2247 297.24 95.236C297.441 95.2473 297.639 95.2992 297.819 95.3884C297.999 95.4776 298.159 95.6023 298.287 95.7546C298.416 95.9069 298.512 96.0836 298.567 96.2736C298.623 96.4637 298.639 96.6629 298.612 96.859C298.586 97.0551 298.519 97.2437 298.415 97.4132C296.689 100.705 294.253 103.59 291.276 105.869C290.242 106.666 289.163 107.405 288.044 108.084C287.809 108.207 287.548 108.276 287.281 108.285ZM245.653 107.25C245.469 107.29 245.278 107.29 245.095 107.25C240.624 105.379 236.278 103.237 232.08 100.836C231.764 100.638 231.536 100.329 231.445 99.9722C231.354 99.6154 231.406 99.238 231.59 98.9176C231.775 98.5971 232.078 98.358 232.436 98.2494C232.795 98.1408 233.183 98.1709 233.52 98.3335C237.65 100.633 241.918 102.689 246.299 104.488C246.478 104.558 246.642 104.662 246.779 104.794C246.917 104.926 247.026 105.084 247.1 105.259C247.174 105.433 247.211 105.62 247.21 105.809C247.209 105.998 247.169 106.185 247.092 106.358C246.984 106.64 246.785 106.88 246.526 107.041C246.266 107.202 245.959 107.275 245.653 107.25ZM184.577 98.8512H184.195C184.008 98.8043 183.832 98.7217 183.677 98.608C183.523 98.4944 183.393 98.352 183.294 98.189C183.196 98.026 183.132 97.8456 183.105 97.6582C183.078 97.4708 183.089 97.28 183.138 97.0968C184.415 92.4508 186.188 87.9489 188.426 83.6653C188.602 83.3266 188.908 83.0699 189.276 82.9513C189.645 82.8328 190.047 82.862 190.394 83.0325C190.568 83.1149 190.723 83.2308 190.851 83.3733C190.978 83.5157 191.075 83.6818 191.135 83.8617C191.195 84.0415 191.218 84.2314 191.202 84.42C191.185 84.6087 191.131 84.7921 191.04 84.9595C188.9 89.0495 187.206 93.3492 185.987 97.7871C185.904 98.0911 185.72 98.3599 185.466 98.5522C185.211 98.7444 184.899 98.8495 184.577 98.8512ZM220.506 93.5304C220.21 93.5325 219.922 93.4418 219.683 93.2715C215.776 90.6255 211.869 87.7494 207.932 84.6432C207.781 84.5259 207.656 84.3802 207.563 84.2146C207.471 84.049 207.413 83.8669 207.394 83.6791C207.375 83.4913 207.395 83.3017 207.452 83.1215C207.509 82.9412 207.602 82.7741 207.727 82.6299C207.846 82.482 207.995 82.3592 208.164 82.2687C208.333 82.1783 208.519 82.122 208.711 82.1032C208.903 82.0844 209.097 82.1035 209.281 82.1594C209.465 82.2153 209.636 82.3068 209.783 82.4285C213.543 85.3047 217.392 88.1808 221.211 90.8268C221.371 90.9309 221.508 91.0653 221.615 91.2222C221.721 91.3791 221.794 91.5552 221.829 91.7402C221.865 91.9252 221.862 92.1153 221.822 92.2992C221.781 92.4832 221.703 92.6573 221.593 92.8114C221.481 93.0055 221.324 93.1715 221.136 93.2963C220.947 93.4211 220.731 93.5012 220.506 93.5304ZM299.061 84.4706C298.709 84.475 298.367 84.3555 298.097 84.1338C297.828 83.9121 297.648 83.6029 297.592 83.2626C296.803 78.8058 295.083 74.5564 292.539 70.7802C292.34 70.4542 292.277 70.0652 292.365 69.695C292.452 69.3249 292.683 69.0024 293.009 68.7957C293.337 68.5903 293.734 68.5203 294.114 68.6012C294.494 68.6821 294.825 68.9072 295.036 69.2271C297.774 73.3453 299.632 77.9629 300.5 82.8024C300.56 83.1758 300.467 83.5571 300.241 83.8639C300.016 84.1707 299.676 84.3783 299.296 84.4418L299.061 84.4706ZM198.12 75.8422C197.935 75.8443 197.75 75.8097 197.579 75.7405C197.407 75.6713 197.252 75.5689 197.121 75.4395L194.477 72.9661C191.997 70.5072 189.336 68.229 186.516 66.1497C186.362 66.0345 186.232 65.8906 186.135 65.7264C186.037 65.5621 185.974 65.3807 185.948 65.1924C185.922 65.0041 185.934 64.8127 185.984 64.629C186.033 64.4454 186.119 64.2731 186.237 64.122C186.355 63.9709 186.502 63.844 186.669 63.7485C186.837 63.653 187.022 63.5908 187.215 63.5654C187.407 63.54 187.603 63.552 187.79 63.6006C187.978 63.6492 188.154 63.7336 188.308 63.8488C191.203 66.0208 193.951 68.3746 196.534 70.8953C199.265 67.1536 202.312 63.6421 205.641 60.3974C205.773 60.2598 205.932 60.1502 206.109 60.0752C206.286 60.0003 206.476 59.9616 206.669 59.9616C206.862 59.9616 207.052 60.0003 207.229 60.0752C207.406 60.1502 207.565 60.2598 207.697 60.3974C207.835 60.5311 207.944 60.6901 208.019 60.8654C208.093 61.0406 208.132 61.2286 208.132 61.4184C208.132 61.6083 208.093 61.7962 208.019 61.9715C207.944 62.1467 207.835 62.3058 207.697 62.4394C204.419 65.6179 201.422 69.0624 198.737 72.736L199.207 73.1674C199.345 73.3011 199.454 73.4601 199.529 73.6354C199.603 73.8106 199.642 73.9986 199.642 74.1884C199.642 74.3783 199.603 74.5662 199.529 74.7415C199.454 74.9167 199.345 75.0758 199.207 75.2095C199.075 75.3702 198.91 75.5019 198.723 75.5961C198.536 75.6903 198.33 75.7447 198.12 75.7559V75.8422ZM106.845 72.7072H105.523C105.331 72.7036 105.142 72.6625 104.967 72.5864C104.792 72.5103 104.634 72.4007 104.503 72.2641C104.371 72.1275 104.269 71.9665 104.202 71.7907C104.135 71.615 104.105 71.4279 104.113 71.2404C104.12 70.864 104.278 70.5056 104.553 70.2421C104.828 69.9786 105.197 69.831 105.581 69.8311C110.255 69.9579 114.924 69.435 119.448 68.278C119.825 68.1897 120.223 68.2483 120.557 68.4414C120.891 68.6346 121.136 68.9472 121.24 69.3134C121.329 69.6869 121.265 70.0797 121.062 70.4077C120.858 70.7356 120.532 70.9726 120.153 71.0678C115.802 72.1473 111.333 72.6979 106.845 72.7072ZM133.461 66.4948C133.169 66.5014 132.882 66.4191 132.64 66.2594C132.398 66.0998 132.212 65.8705 132.109 65.6032C132.033 65.4298 131.993 65.2432 131.991 65.0544C131.99 64.8655 132.027 64.6784 132.101 64.504C132.175 64.3296 132.284 64.1716 132.422 64.0392C132.56 63.9069 132.723 63.803 132.902 63.7337L137.456 61.8642C140.394 60.5987 143.331 59.3908 146.269 58.3266C146.632 58.1956 147.032 58.2097 147.384 58.3658C147.736 58.5219 148.011 58.8075 148.149 59.1607C148.284 59.5195 148.271 59.9158 148.111 60.265C147.952 60.6142 147.66 60.8887 147.297 61.0301C144.36 62.0655 141.598 63.2448 138.484 64.5103L133.901 66.3797C133.763 66.4439 133.613 66.4829 133.461 66.4948ZM284.46 60.7425C284.104 60.7515 283.758 60.6282 283.491 60.3974C279.994 57.335 276.138 54.6896 272.004 52.5168C271.832 52.429 271.679 52.3085 271.554 52.1623C271.429 52.0161 271.336 51.8471 271.278 51.6652C271.221 51.4832 271.201 51.2919 271.22 51.1024C271.238 50.9129 271.295 50.7288 271.387 50.561C271.579 50.2303 271.895 49.9855 272.267 49.8781C272.64 49.7708 273.041 49.8094 273.385 49.9858C277.743 52.2491 281.799 55.0313 285.459 58.2691C285.728 58.5379 285.879 58.8993 285.879 59.2757C285.879 59.6521 285.728 60.0135 285.459 60.2823C285.196 60.5523 284.84 60.7164 284.46 60.7425ZM174.883 59.5058C174.717 59.5332 174.549 59.5332 174.383 59.5058C170.964 58.2383 167.345 57.5666 163.69 57.5213C162.779 57.5213 161.78 57.5213 160.752 57.6651C160.363 57.6994 159.975 57.5808 159.675 57.3354C159.526 57.2139 159.403 57.0649 159.313 56.8969C159.224 56.7289 159.168 56.5453 159.151 56.3564C159.134 56.1676 159.155 55.9772 159.212 55.7963C159.27 55.6153 159.364 55.4472 159.488 55.3017C159.738 55.0077 160.098 54.8233 160.488 54.7889C161.516 54.7889 162.544 54.6451 163.602 54.6451C167.609 54.6387 171.586 55.3202 175.353 56.6584C175.742 56.7233 176.09 56.937 176.318 57.2525C176.547 57.568 176.638 57.9596 176.572 58.341C176.506 58.7224 176.287 59.0624 175.965 59.2862C175.643 59.5101 175.243 59.5994 174.853 59.5346L174.883 59.5058ZM217.832 54.1562C217.516 54.1554 217.208 54.0544 216.954 53.8682C216.701 53.682 216.516 53.4207 216.427 53.1231C216.338 52.8255 216.349 52.5077 216.459 52.217C216.57 51.9264 216.773 51.6784 217.039 51.5102C221.202 48.9123 225.696 46.8622 230.406 45.4128C230.78 45.3039 231.183 45.3421 231.528 45.5194C231.874 45.6966 232.135 45.9989 232.257 46.3619C232.368 46.728 232.329 47.1222 232.148 47.4606C231.967 47.799 231.658 48.0549 231.287 48.1738C226.817 49.5371 222.55 51.4712 218.596 53.9261C218.375 54.0836 218.106 54.1646 217.832 54.1562ZM259.284 47.5699H258.931C254.743 46.5421 250.441 46.0205 246.123 46.0168H245.036C244.646 46.0168 244.273 45.8652 243.997 45.5956C243.722 45.3259 243.567 44.9601 243.567 44.5787C243.567 44.1973 243.722 43.8315 243.997 43.5618C244.273 43.2921 244.646 43.1406 245.036 43.1406H246.182C250.747 43.1468 255.295 43.6973 259.725 44.78C260.099 44.8814 260.418 45.1209 260.615 45.4482C260.812 45.7754 260.872 46.1649 260.782 46.5345C260.689 46.8478 260.491 47.121 260.218 47.3092C259.946 47.4974 259.617 47.5893 259.284 47.5699Z" fill="#727272"/>
<path d="M183.021 120.108C182.662 120.104 182.317 119.975 182.047 119.742C181.777 119.51 181.602 119.191 181.553 118.842C181.255 116.399 181.117 113.94 181.141 111.48C181.149 111.103 181.307 110.745 181.582 110.481C181.856 110.218 182.226 110.07 182.61 110.07C182.995 110.078 183.361 110.233 183.63 110.502C183.899 110.77 184.05 111.132 184.05 111.508C184.031 113.843 184.159 116.178 184.432 118.497C184.46 118.685 184.45 118.876 184.402 119.06C184.354 119.243 184.268 119.415 184.15 119.566C184.032 119.716 183.884 119.842 183.716 119.935C183.547 120.028 183.361 120.087 183.168 120.108H183.021Z" fill="#727272"/>
<path d="M238.457 118.668H48.1206C42.3122 118.668 37.6035 123.278 37.6035 128.965V241.479C37.6035 247.165 42.3122 251.775 48.1206 251.775H238.457C244.265 251.775 248.974 247.165 248.974 241.479V128.965C248.974 123.278 244.265 118.668 238.457 118.668Z" fill="#FFFEFD"/>
<path d="M238.457 253.099H48.1207C44.9822 253.099 41.9686 251.895 39.7274 249.744C37.4862 247.592 36.1963 244.666 36.1348 241.594V128.965C36.1348 127.424 36.4448 125.898 37.0471 124.474C37.6495 123.051 38.5324 121.757 39.6454 120.667C40.7584 119.578 42.0797 118.713 43.5339 118.124C44.9881 117.534 46.5467 117.23 48.1207 117.23H238.457C241.636 117.23 244.684 118.467 246.932 120.667C249.18 122.868 250.443 125.853 250.443 128.965V241.594C250.381 244.666 249.091 247.592 246.85 249.744C244.609 251.895 241.595 253.099 238.457 253.099ZM48.1207 120.107C45.721 120.107 43.4195 121.04 41.7227 122.701C40.0258 124.362 39.0725 126.616 39.0725 128.965V241.594C39.1338 243.904 40.1141 246.098 41.8043 247.71C43.4946 249.322 45.7612 250.223 48.1207 250.223H238.457C240.816 250.223 243.083 249.322 244.773 247.71C246.463 246.098 247.444 243.904 247.505 241.594V128.965C247.505 126.616 246.552 124.362 244.855 122.701C243.158 121.04 240.857 120.107 238.457 120.107H48.1207Z" fill="#727272"/>
<path d="M143.274 214.731C140.358 214.739 137.47 214.171 134.784 213.059C132.099 211.947 129.67 210.314 127.646 208.259L42.8036 122.637C42.666 122.503 42.5567 122.344 42.4821 122.169C42.4075 121.994 42.3691 121.806 42.3691 121.616C42.3691 121.426 42.4075 121.238 42.4821 121.063C42.5567 120.888 42.666 120.729 42.8036 120.595C42.9377 120.461 43.0976 120.355 43.2742 120.282C43.4507 120.209 43.6403 120.172 43.8318 120.172C44.0233 120.172 44.2129 120.209 44.3895 120.282C44.566 120.355 44.726 120.461 44.86 120.595L129.761 206.246C131.495 208.054 133.588 209.497 135.912 210.486C138.235 211.475 140.741 211.99 143.274 211.998C145.813 211.992 148.323 211.479 150.652 210.489C152.98 209.5 155.078 208.056 156.817 206.246L241.659 120.796C241.788 120.644 241.947 120.519 242.127 120.429C242.308 120.34 242.505 120.287 242.706 120.276C242.908 120.264 243.11 120.294 243.3 120.362C243.489 120.43 243.663 120.536 243.808 120.673C243.954 120.81 244.07 120.975 244.148 121.158C244.225 121.34 244.264 121.536 244.261 121.734C244.258 121.932 244.213 122.127 244.129 122.307C244.045 122.487 243.925 122.648 243.774 122.781L158.932 208.259C156.903 210.316 154.47 211.95 151.779 213.062C149.088 214.174 146.195 214.742 143.274 214.731Z" fill="#727272"/>
<path d="M42.6861 249.273C42.4643 249.279 42.2444 249.232 42.0449 249.137C41.8455 249.042 41.6724 248.901 41.5403 248.726C41.3002 248.428 41.1901 248.05 41.2341 247.672C41.2781 247.295 41.4727 246.95 41.7754 246.713L113.309 191.52C113.458 191.4 113.631 191.311 113.816 191.257C114.001 191.203 114.195 191.187 114.387 191.208C114.579 191.23 114.765 191.289 114.933 191.382C115.101 191.475 115.248 191.6 115.366 191.75C115.606 192.048 115.716 192.427 115.672 192.804C115.628 193.182 115.433 193.526 115.131 193.764L43.5968 248.985C43.3345 249.178 43.0139 249.279 42.6861 249.273Z" fill="#727272"/>
<path d="M4.14172 2.87504C3.95584 2.87347 3.77249 2.91736 3.60832 3.00275C3.44416 3.08813 3.30437 3.2123 3.20165 3.36398C3.07155 3.55041 3.00195 3.77095 3.00195 3.99673C3.00195 4.22252 3.07155 4.44305 3.20165 4.62948L47.3852 86.5128C47.4755 86.681 47.605 86.8259 47.7633 86.9359C47.9215 87.0458 48.104 87.1177 48.2959 87.1456C48.4901 87.1748 48.6886 87.1558 48.8734 87.0905C49.0581 87.0252 49.2232 86.9156 49.3535 86.7717L74.3243 60.8865C74.4995 60.6991 74.7222 60.5604 74.9699 60.4846C75.2176 60.4089 75.4814 60.3987 75.7344 60.4551C75.9813 60.5062 76.2097 60.6212 76.3957 60.7882C76.5817 60.9551 76.7186 61.1679 76.792 61.4042L80.8461 73.1964L89.6593 45.0966C89.7426 44.8565 89.8837 44.6394 90.0706 44.4639L109.9 26.5456C110.061 26.3992 110.177 26.2127 110.237 26.0063C110.297 25.7999 110.299 25.5813 110.241 25.3741C110.184 25.167 110.07 24.9791 109.911 24.8307C109.753 24.6824 109.556 24.5792 109.342 24.5323L4.40612 2.87504H4.14172Z" fill="white"/>
<path d="M21.5918 17.7188L75.4112 61.7523L80.9047 77.7723L91.1281 45.4159L21.5918 17.7188Z" fill="#EDEDED"/>
<path d="M48.4728 90.0214H47.9146C47.2606 89.9332 46.6372 89.6943 46.0959 89.3243C45.5545 88.9543 45.1106 88.4637 44.8006 87.893L0.499516 5.98091C0.119308 5.30221 -0.0498922 4.52948 0.0127437 3.75784C0.0753796 2.98621 0.367118 2.24934 0.852045 1.63795C1.3073 0.995093 1.94519 0.497116 2.68669 0.205712C3.42819 -0.0856915 4.24073 -0.157716 5.02363 -0.00143847L109.989 21.5983C110.737 21.7484 111.427 22.0978 111.985 22.6079C112.542 23.1179 112.945 23.7688 113.148 24.4888C113.352 25.2087 113.349 25.9698 113.138 26.6879C112.928 27.406 112.519 28.0534 111.957 28.5585L92.4214 46.1892L82.2568 78.2005C82.1641 78.4892 81.9807 78.7419 81.7328 78.9226C81.4849 79.1033 81.1851 79.2029 80.8761 79.2071C80.5677 79.2026 80.2679 79.1067 80.0162 78.9321C79.7645 78.7576 79.5727 78.5126 79.4659 78.2292L74.7362 64.4813L51.4399 88.7559C50.6594 89.5434 49.5934 89.9981 48.4728 90.0214ZM4.14231 2.87469C3.95643 2.87311 3.77308 2.91701 3.60891 3.00239C3.44475 3.08778 3.30496 3.21195 3.20224 3.36363C3.07214 3.55006 3.00254 3.77059 3.00254 3.99638C3.00254 4.22217 3.07214 4.4427 3.20224 4.62913L47.3858 86.5125C47.4761 86.6806 47.6056 86.8256 47.7639 86.9355C47.9221 87.0455 48.1046 87.1173 48.2965 87.1452C48.4907 87.1744 48.6892 87.1555 48.874 87.0902C49.0587 87.0249 49.2238 86.9152 49.3541 86.7713L74.3249 60.8862C74.4955 60.7012 74.7132 60.5637 74.9558 60.4879C75.1983 60.4121 75.4571 60.4007 75.7056 60.4548C75.9579 60.5011 76.1924 60.614 76.384 60.7813C76.5755 60.9486 76.7168 61.1638 76.7926 61.4039L80.8467 73.196L89.6599 45.0962C89.7432 44.8561 89.8843 44.6391 90.0712 44.4635L109.901 26.5452C110.061 26.3988 110.178 26.2124 110.238 26.006C110.298 25.7995 110.299 25.5809 110.242 25.3738C110.185 25.1666 110.07 24.9787 109.912 24.8304C109.754 24.682 109.557 24.5788 109.343 24.5319L4.40671 2.87469H4.14231Z" fill="#727272"/>
<path d="M243.833 249.274C243.505 249.28 243.184 249.179 242.922 248.986L171.447 193.765C171.277 193.654 171.133 193.511 171.023 193.343C170.914 193.176 170.841 192.987 170.809 192.791C170.777 192.594 170.788 192.393 170.84 192.201C170.891 192.008 170.983 191.828 171.11 191.672C171.237 191.516 171.395 191.388 171.575 191.295C171.755 191.202 171.952 191.147 172.155 191.133C172.358 191.118 172.562 191.146 172.753 191.212C172.945 191.279 173.12 191.385 173.268 191.521L244.802 246.714C245.105 246.951 245.299 247.296 245.343 247.673C245.387 248.05 245.277 248.429 245.037 248.727C244.898 248.908 244.715 249.053 244.505 249.148C244.295 249.243 244.064 249.287 243.833 249.274Z" fill="#727272"/>
<path d="M248.974 151.831C267.681 151.831 282.846 136.984 282.846 118.67C282.846 100.355 267.681 85.5078 248.974 85.5078C230.267 85.5078 215.102 100.355 215.102 118.67C215.102 136.984 230.267 151.831 248.974 151.831Z" fill="#F27292"/>
<path d="M75.4114 63.2738C75.0659 63.273 74.7322 63.1505 74.4713 62.9287L20.5638 18.8089C20.2639 18.5648 20.0752 18.214 20.0394 17.8338C20.0036 17.4535 20.1236 17.0749 20.3729 16.7812C20.6222 16.4875 20.9805 16.3029 21.3689 16.2678C21.7573 16.2327 22.144 16.3502 22.444 16.5943L76.3809 60.6566C76.6082 60.8468 76.7707 61.1005 76.8468 61.3836C76.9229 61.6667 76.9089 61.9659 76.8067 62.241C76.7045 62.5161 76.519 62.7542 76.2749 62.9233C76.0308 63.0925 75.7398 63.1847 75.4408 63.1875L75.4114 63.2738Z" fill="#727272"/>
<path d="M247.592 134.576V108.489C245.585 109.691 243.377 110.538 241.07 110.991V107.252C244.031 106.411 246.734 104.87 248.943 102.766H252.645V134.576H247.592Z" fill="white"/>
</g>
<defs>
<clipPath id="clip0_3386_55332">
<rect width="377" height="290" fill="white"/>
</clipPath>
</defs>
</svg>
