    <svg
      class="visually-hidden"
      width="0"
      height="0"
      xmlns="http://www.w3.org/2000/svg" xmlns:xlink="http://www.w3.org/1999/xlink"
    >
    <symbol id="icon-dashboard" viewBox="0 0 40 40" xmlns="http://www.w3.org/2000/svg">
   <path
                      d="M6.66667 21.6667H16.6667C17.1087 21.6667 17.5326 21.4911 17.8452 21.1785C18.1577 20.8659 18.3333 20.442 18.3333 20V6.66667C18.3333 6.22464 18.1577 5.80072 17.8452 5.48816C17.5326 5.17559 17.1087 5 16.6667 5H6.66667C6.22464 5 5.80072 5.17559 5.48816 5.48816C5.17559 5.80072 5 6.22464 5 6.66667V20C5 20.442 5.17559 20.8659 5.48816 21.1785C5.80072 21.4911 6.22464 21.6667 6.66667 21.6667ZM5 33.3333C5 33.7754 5.17559 34.1993 5.48816 34.5118C5.80072 34.8244 6.22464 35 6.66667 35H16.6667C17.1087 35 17.5326 34.8244 17.8452 34.5118C18.1577 34.1993 18.3333 33.7754 18.3333 33.3333V26.6667C18.3333 26.2246 18.1577 25.8007 17.8452 25.4882C17.5326 25.1756 17.1087 25 16.6667 25H6.66667C6.22464 25 5.80072 25.1756 5.48816 25.4882C5.17559 25.8007 5 26.2246 5 26.6667V33.3333ZM21.6667 33.3333C21.6667 33.7754 21.8423 34.1993 22.1548 34.5118C22.4674 34.8244 22.8913 35 23.3333 35H33.3333C33.7754 35 34.1993 34.8244 34.5118 34.5118C34.8244 34.1993 35 33.7754 35 33.3333V21.6667C35 21.2246 34.8244 20.8007 34.5118 20.4882C34.1993 20.1756 33.7754 20 33.3333 20H23.3333C22.8913 20 22.4674 20.1756 22.1548 20.4882C21.8423 20.8007 21.6667 21.2246 21.6667 21.6667V33.3333ZM23.3333 16.6667H33.3333C33.7754 16.6667 34.1993 16.4911 34.5118 16.1785C34.8244 15.8659 35 15.442 35 15V6.66667C35 6.22464 34.8244 5.80072 34.5118 5.48816C34.1993 5.17559 33.7754 5 33.3333 5H23.3333C22.8913 5 22.4674 5.17559 22.1548 5.48816C21.8423 5.80072 21.6667 6.22464 21.6667 6.66667V15C21.6667 15.442 21.8423 15.8659 22.1548 16.1785C22.4674 16.4911 22.8913 16.6667 23.3333 16.6667Z"
                    />
    </symbol>

<symbol id="icon-service" viewBox="0 0 41 40"  xmlns="http://www.w3.org/2000/svg">
<path d="M32.1667 6.66668H27.1667V3.33334H23.8333V6.66668H17.1667V3.33334H13.8333V6.66668H8.83333C6.995 6.66668 5.5 8.16168 5.5 10V33.3333C5.5 35.1717 6.995 36.6667 8.83333 36.6667H32.1667C34.005 36.6667 35.5 35.1717 35.5 33.3333V10C35.5 8.16168 34.005 6.66668 32.1667 6.66668ZM20.5 23.3333H12.1667V20H20.5V23.3333ZM28.8333 16.6667H12.1667V13.3333H28.8333V16.6667Z"/>
</symbol>

<symbol id="icon-employees"  viewBox="0 0 41 40" xmlns="http://www.w3.org/2000/svg">
<path d="M16.334 20C20.0106 20 23.0006 17.01 23.0006 13.3333C23.0006 9.65666 20.0106 6.66666 16.334 6.66666C12.6573 6.66666 9.66732 9.65666 9.66732 13.3333C9.66732 17.01 12.6573 20 16.334 20ZM18.834 21.6667H13.834C8.31898 21.6667 3.83398 26.1517 3.83398 31.6667V33.3333H28.834V31.6667C28.834 26.1517 24.349 21.6667 18.834 21.6667Z" />
<path d="M28.1743 18.4133C29.1893 16.6835 29.6277 14.6755 29.4259 12.68C29.1276 9.70667 27.4676 7.07833 24.7543 5.28L22.9126 8.05667C24.7776 9.29333 25.9126 11.055 26.1093 13.0133C26.2 13.9235 26.0866 14.8424 25.7776 15.7033C25.4685 16.5642 24.9715 17.3453 24.3226 17.99L22.3359 19.9767L25.0326 20.7683C32.0859 22.835 32.1676 29.9283 32.1676 30H35.5009C35.5009 27.0183 33.9076 21.1917 28.1743 18.4133Z" />
<symbol>

<symbol id="icon-clients" viewBox="0 0 41 40" xmlns="http://www.w3.org/2000/svg">
<path d="M10.52 30H35.5V6.66668C35.5 4.82834 34.005 3.33334 32.1667 3.33334H10.5C8.49 3.33334 5.5 4.66501 5.5 8.33334V31.6667C5.5 35.335 8.49 36.6667 10.5 36.6667H35.5V33.3333H10.52C9.75 33.3133 8.83333 33.01 8.83333 31.6667C8.83333 31.4983 8.84833 31.3483 8.87333 31.2117C9.06 30.2517 9.84667 30.0167 10.52 30ZM14.9133 12.7367C15.6071 12.0518 16.5427 11.6678 17.5175 11.6678C18.4923 11.6678 19.4279 12.0518 20.1217 12.7367L20.495 13.1017L20.8667 12.7367C21.5607 12.0517 22.4965 11.6676 23.4717 11.6676C24.4468 11.6676 25.3827 12.0517 26.0767 12.7367C26.4209 13.0678 26.6948 13.4649 26.8819 13.9044C27.0689 14.3439 27.1654 14.8166 27.1654 15.2942C27.1654 15.7718 27.0689 16.2445 26.8819 16.684C26.6948 17.1234 26.4209 17.5206 26.0767 17.8517L20.4967 23.3333L14.915 17.8517C14.5704 17.5208 14.2962 17.1238 14.1089 16.6844C13.9215 16.245 13.8249 15.7722 13.8247 15.2945C13.8246 14.8168 13.9209 14.344 14.108 13.9045C14.2951 13.465 14.569 13.0677 14.9133 12.7367Z" />

</symbol>

<symbol id="icon-websites" viewBox="0 0 48 48" xmlns="http://www.w3.org/2000/svg">
<path d="M40 6H8C5.794 6 4 7.794 4 10V38C4 40.206 5.794 42 8 42H40C42.206 42 44 40.206 44 38V10C44 7.794 42.206 6 40 6ZM38 14V18H28V14H38ZM28 22H38V26H28V22ZM8 38V10H22V38H8Z"/>
</symbol>
<symbol id="icon-settings" viewBox="0 0 48 48"  xmlns="http://www.w3.org/2000/svg">
<path d="M4.6876 30.542L8.6876 37.462C8.95316 37.921 9.39014 38.2558 9.90245 38.3927C10.4148 38.5295 10.9605 38.4574 11.4196 38.192L14.2116 36.58C15.3716 37.494 16.6536 38.244 18.0016 38.804V42C18.0016 42.5304 18.2123 43.0391 18.5874 43.4142C18.9625 43.7893 19.4712 44 20.0016 44H28.0016C28.532 44 29.0407 43.7893 29.4158 43.4142C29.7909 43.0391 30.0016 42.5304 30.0016 42V38.804C31.3601 38.2384 32.6352 37.4902 33.7916 36.58L36.5836 38.192C37.5376 38.742 38.7656 38.412 39.3156 37.462L43.3156 30.542C43.5788 30.0824 43.6498 29.5374 43.5131 29.0257C43.3763 28.514 43.043 28.0771 42.5856 27.81L39.8416 26.224C40.056 24.749 40.0547 23.2506 39.8376 21.776L42.5816 20.19C43.5336 19.64 43.8636 18.41 43.3116 17.458L39.3116 10.538C39.046 10.079 38.6091 9.74424 38.0967 9.60735C37.5844 9.47046 37.0387 9.54263 36.5796 9.808L33.7876 11.42C32.6327 10.5088 31.3581 9.76043 29.9996 9.196V6C29.9996 5.46957 29.7889 4.96086 29.4138 4.58579C29.0387 4.21071 28.53 4 27.9996 4H19.9996C19.4692 4 18.9605 4.21071 18.5854 4.58579C18.2103 4.96086 17.9996 5.46957 17.9996 6V9.196C16.6411 9.76162 15.366 10.5098 14.2096 11.42L11.4196 9.808C11.1923 9.67634 10.9413 9.59077 10.681 9.55621C10.4206 9.52164 10.156 9.53875 9.90224 9.60655C9.64849 9.67435 9.41061 9.79152 9.20219 9.95134C8.99376 10.1112 8.8189 10.3105 8.6876 10.538L4.6876 17.458C4.42437 17.9176 4.3534 18.4626 4.49012 18.9743C4.62685 19.486 4.96021 19.9229 5.4176 20.19L8.1616 21.776C7.94587 23.2508 7.94587 24.7492 8.1616 26.224L5.4176 27.81C4.4656 28.36 4.1356 29.59 4.6876 30.542ZM23.9996 16C28.4116 16 31.9996 19.588 31.9996 24C31.9996 28.412 28.4116 32 23.9996 32C19.5876 32 15.9996 28.412 15.9996 24C15.9996 19.588 19.5876 16 23.9996 16Z" />
</symbol>
<symbol id="icon-more" viewBox="0 0 41 40"  xmlns="http://www.w3.org/2000/svg">
<path d="M20.4993 16.666C18.666 16.666 17.166 18.166 17.166 19.9993C17.166 21.8327 18.666 23.3327 20.4993 23.3327C22.3327 23.3327 23.8327 21.8327 23.8327 19.9993C23.8327 18.166 22.3327 16.666 20.4993 16.666ZM30.4993 16.666C28.666 16.666 27.166 18.166 27.166 19.9993C27.166 21.8327 28.666 23.3327 30.4993 23.3327C32.3327 23.3327 33.8327 21.8327 33.8327 19.9993C33.8327 18.166 32.3327 16.666 30.4993 16.666ZM10.4993 16.666C8.66602 16.666 7.16602 18.166 7.16602 19.9993C7.16602 21.8327 8.66602 23.3327 10.4993 23.3327C12.3327 23.3327 13.8327 21.8327 13.8327 19.9993C13.8327 18.166 12.3327 16.666 10.4993 16.666Z"/>
</symbol>
<symbol id="icon-save" viewBox="0 0 26 26"  xmlns="http://www.w3.org/2000/svg">
<path d="M5.41667 22.75H20.5833C21.158 22.75 21.7091 22.5217 22.1154 22.1154C22.5217 21.7091 22.75 21.158 22.75 20.5833V8.66665C22.7508 8.52408 22.7235 8.38275 22.6696 8.25076C22.6157 8.11877 22.5362 7.99871 22.4358 7.89749L18.1025 3.56415C18.0013 3.46375 17.8812 3.38431 17.7492 3.3304C17.6172 3.27649 17.4759 3.24916 17.3333 3.24999H5.41667C4.84203 3.24999 4.29093 3.47826 3.8846 3.88459C3.47827 4.29092 3.25 4.84202 3.25 5.41665V20.5833C3.25 21.158 3.47827 21.7091 3.8846 22.1154C4.29093 22.5217 4.84203 22.75 5.41667 22.75ZM16.25 20.5833H9.75V15.1667H16.25V20.5833ZM14.0833 7.58332H11.9167V5.41665H14.0833V7.58332ZM5.41667 5.41665H7.58333V9.74999H16.25V5.41665H16.8892L20.5833 9.11082V20.5833H18.4167V15.1667C18.4167 14.592 18.1884 14.0409 17.7821 13.6346C17.3757 13.2283 16.8246 13 16.25 13H9.75C9.17536 13 8.62426 13.2283 8.21794 13.6346C7.81161 14.0409 7.58333 14.592 7.58333 15.1667V20.5833H5.41667V5.41665Z"/>
</symbol>

<symbol id="icon-close" viewBox="0 0 14 14" xmlns="http://www.w3.org/2000/svg">
<path d="M11.5423 0.872681L6.94569 5.46818L2.35019 0.872681L0.818359 2.40451L5.41386 7.00001L0.818359 11.5955L2.35019 13.1273L6.94569 8.53185L11.5423 13.1273L13.0741 11.5955L8.47861 7.00001L13.0741 2.40451L11.5423 0.872681Z" fill="black"/>
</symbol>


    </svg>